{
  "extensionsUsed": [
    "KHR_lights_punctual"
  ],
  "accessors": [
    {
      "bufferView": 0,
      "componentType": 5126,
      "count": 208,
      "type": "VEC3",
      "max": [
        0.90973144769668579,
        0.31764459609985352,
        1.9957517385482788
      ],
      "min": [
        -0.90972167253494263,
        -0.31764516234397888,
        -1.9957566261291504
      ]
    },
    {
      "bufferView": 1,
      "componentType": 5126,
      "count": 208,
      "type": "VEC3",
      "max": [
        0.95466077327728271,
        0.99929046630859375,
        0.9786943793296814
      ],
      "min": [
        -0.95467519760131836,
        -0.99958306550979614,
        -0.978694498538971
      ]
    },
    {
      "bufferView": 2,
      "componentType": 5126,
      "count": 208,
      "type": "VEC4",
      "max": [
        0.9999920129776001,
        0.93699407577514648,
        0.71239393949508667,
        1.0
      ],
      "min": [
        -0.99400639533996582,
        -0.98157572746276855,
        -1.0,
        1.0
      ]
    },
    {
      "bufferView": 3,
      "componentType": 5126,
      "count": 208,
      "type": "VEC2",
      "max": [
        0.86724883317947388,
        0.41788047552108765
      ],
      "min": [
        0.020828843116760254,
        0.17711776494979858
      ]
    },
    {
      "bufferView": 4,
      "componentType": 5121,
      "count": 708,
      "type": "SCALAR",
      "max": [
        207.0
      ],
      "min": [
        0.0
      ]
    }
  ],
  "asset": {
    "version": "2.0"
  },
  "buffers": [
    {
      "uri": "boat_001.bin",
      "byteLength": 10692
    }
  ],
  "bufferViews": [
    {
      "buffer": 0,
      "byteLength": 2496
    },
    {
      "buffer": 0,
      "byteOffset": 2496,
      "byteLength": 2496
    },
    {
      "buffer": 0,
      "byteOffset": 4992,
      "byteLength": 3328
    },
    {
      "buffer": 0,
      "byteOffset": 8320,
      "byteLength": 1664
    },
    {
      "buffer": 0,
      "byteOffset": 9984,
      "byteLength": 708
    }
  ],
  "images": [
    {
      "uri": "1124351310TextureMain.png",
      "name": "Texture"
    }
  ],
  "materials": [
    {
      "pbrMetallicRoughness": {
        "baseColorTexture": {
          "index": 0
        },
        "metallicFactor": 0.0,
        "roughnessFactor": 0.5
      },
      "name": "Main_Materials"
    }
  ],
  "meshes": [
    {
      "primitives": [
        {
          "attributes": {
            "POSITION": 0,
            "NORMAL": 1,
            "TANGENT": 2,
            "TEXCOORD_0": 3
          },
          "indices": 4,
          "material": 0
        }
      ],
      "name": "boat_001"
    }
  ],
  "nodes": [
    {
      "mesh": 0,
      "name": "boat_001"
    }
  ],
  "samplers": [
    {}
  ],
  "scene": 0,
  "scenes": [
    {
      "nodes": [
        0
      ],
      "name": "boat_001"
    }
  ],
  "textures": [
    {
      "sampler": 0,
      "source": 0,
      "name": "1124351310TextureMain"
    }
  ]
}