{
  "extensionsUsed": [
    "KHR_lights_punctual"
  ],
  "accessors": [
    {
      "bufferView": 0,
      "componentType": 5126,
      "count": 9584,
      "type": "VEC3",
      "max": [
        9.3736782073974609,
        10.217315673828125,
        5.0121750831604
      ],
      "min": [
        -9.3736391067504883,
        -7.7512959251180291E-07,
        -5.0121731758117676
      ]
    },
    {
      "bufferView": 1,
      "componentType": 5126,
      "count": 9584,
      "type": "VEC3",
      "max": [
        1.0,
        0.99894911050796509,
        1.0
      ],
      "min": [
        -1.0,
        -1.0,
        -1.0
      ]
    },
    {
      "bufferView": 2,
      "componentType": 5126,
      "count": 9584,
      "type": "VEC4",
      "max": [
        1.0,
        1.0,
        1.0,
        1.0
      ],
      "min": [
        -1.0,
        -1.0,
        -1.0,
        -1.0
      ]
    },
    {
      "bufferView": 3,
      "componentType": 5126,
      "count": 9584,
      "type": "VEC2",
      "max": [
        0.93514847755432129,
        0.69776272773742676
      ],
      "min": [
        0.74045205116271973,
        0.11425280570983887
      ]
    },
    {
      "bufferView": 4,
      "componentType": 5123,
      "count": 21492,
      "type": "SCALAR",
      "max": [
        9583.0
      ],
      "min": [
        0.0
      ]
    }
  ],
  "asset": {
    "version": "2.0"
  },
  "buffers": [
    {
      "uri": "building_001.bin",
      "byteLength": 503016
    }
  ],
  "bufferViews": [
    {
      "buffer": 0,
      "byteLength": 115008
    },
    {
      "buffer": 0,
      "byteOffset": 115008,
      "byteLength": 115008
    },
    {
      "buffer": 0,
      "byteOffset": 230016,
      "byteLength": 153344
    },
    {
      "buffer": 0,
      "byteOffset": 383360,
      "byteLength": 76672
    },
    {
      "buffer": 0,
      "byteOffset": 460032,
      "byteLength": 42984
    }
  ],
  "images": [
    {
      "uri": "1124351310TextureMain.png",
      "name": "Texture"
    }
  ],
  "materials": [
    {
      "pbrMetallicRoughness": {
        "baseColorTexture": {
          "index": 0
        },
        "metallicFactor": 0.0,
        "roughnessFactor": 0.5
      },
      "name": "Main_Materials"
    }
  ],
  "meshes": [
    {
      "primitives": [
        {
          "attributes": {
            "POSITION": 0,
            "NORMAL": 1,
            "TANGENT": 2,
            "TEXCOORD_0": 3
          },
          "indices": 4,
          "material": 0
        }
      ],
      "name": "building_001"
    }
  ],
  "nodes": [
    {
      "mesh": 0,
      "name": "building_001"
    }
  ],
  "samplers": [
    {}
  ],
  "scene": 0,
  "scenes": [
    {
      "nodes": [
        0
      ],
      "name": "building_001"
    }
  ],
  "textures": [
    {
      "sampler": 0,
      "source": 0,
      "name": "1124351310TextureMain"
    }
  ]
}