{
  "extensionsUsed": [
    "KHR_lights_punctual"
  ],
  "accessors": [
    {
      "bufferView": 0,
      "componentType": 5126,
      "count": 2204,
      "type": "VEC3",
      "max": [
        1.9505343437194824,
        17.140693664550781,
        1.9962937831878662
      ],
      "min": [
        -1.9504421949386597,
        -3.1777580034031416E-07,
        -1.9504941701889038
      ]
    },
    {
      "bufferView": 1,
      "componentType": 5126,
      "count": 2204,
      "type": "VEC3",
      "max": [
        1.0,
        1.0,
        1.0
      ],
      "min": [
        -1.0,
        -1.0,
        -1.0
      ]
    },
    {
      "bufferView": 2,
      "componentType": 5126,
      "count": 2204,
      "type": "VEC4",
      "max": [
        1.0,
        1.0,
        1.0,
        1.0
      ],
      "min": [
        -1.0,
        -1.0,
        -1.0,
        -1.0
      ]
    },
    {
      "bufferView": 3,
      "componentType": 5126,
      "count": 2204,
      "type": "VEC2",
      "max": [
        0.88097643852233887,
        0.38624435663223267
      ],
      "min": [
        0.27060976624488831,
        0.16206216812133789
      ]
    },
    {
      "bufferView": 4,
      "componentType": 5126,
      "count": 2204,
      "type": "VEC2",
      "max": [
        0.0,
        1.0
      ],
      "min": [
        0.0,
        1.0
      ]
    },
    {
      "bufferView": 5,
      "componentType": 5121,
      "count": 66,
      "type": "SCALAR",
      "max": [
        43.0
      ],
      "min": [
        0.0
      ]
    },
    {
      "bufferView": 6,
      "componentType": 5123,
      "count": 4458,
      "type": "SCALAR",
      "max": [
        2203.0
      ],
      "min": [
        44.0
      ]
    }
  ],
  "asset": {
    "version": "2.0"
  },
  "buffers": [
    {
      "uri": "castle_tower_008.bin",
      "byteLength": 132406
    }
  ],
  "bufferViews": [
    {
      "buffer": 0,
      "byteLength": 26448
    },
    {
      "buffer": 0,
      "byteOffset": 26448,
      "byteLength": 26448
    },
    {
      "buffer": 0,
      "byteOffset": 52896,
      "byteLength": 35264
    },
    {
      "buffer": 0,
      "byteOffset": 88160,
      "byteLength": 17632
    },
    {
      "buffer": 0,
      "byteOffset": 105792,
      "byteLength": 17632
    },
    {
      "buffer": 0,
      "byteOffset": 123424,
      "byteLength": 66
    },
    {
      "buffer": 0,
      "byteOffset": 123490,
      "byteLength": 8916
    }
  ],
  "images": [
    {
      "uri": "1124351310TextureMain.png",
      "name": "Texture"
    }
  ],
  "materials": [
    {
      "pbrMetallicRoughness": {
        "metallicFactor": 0.0,
        "roughnessFactor": 0.5
      },
      "name": "emission"
    },
    {
      "pbrMetallicRoughness": {
        "baseColorTexture": {
          "index": 0
        },
        "metallicFactor": 0.0,
        "roughnessFactor": 0.5
      },
      "name": "Main_Materials"
    }
  ],
  "meshes": [
    {
      "primitives": [
        {
          "attributes": {
            "POSITION": 0,
            "NORMAL": 1,
            "TANGENT": 2,
            "TEXCOORD_0": 3,
            "TEXCOORD_1": 4
          },
          "indices": 5,
          "material": 0
        },
        {
          "attributes": {
            "POSITION": 0,
            "NORMAL": 1,
            "TANGENT": 2,
            "TEXCOORD_0": 3,
            "TEXCOORD_1": 4
          },
          "indices": 6,
          "material": 1
        }
      ],
      "name": "castle_tower_008"
    }
  ],
  "nodes": [
    {
      "mesh": 0,
      "name": "castle_tower_008"
    }
  ],
  "samplers": [
    {}
  ],
  "scene": 0,
  "scenes": [
    {
      "nodes": [
        0
      ],
      "name": "castle_tower_008"
    }
  ],
  "textures": [
    {
      "sampler": 0,
      "source": 0,
      "name": "1124351310TextureMain"
    }
  ]
}