{
  "extensionsUsed": [
    "KHR_lights_punctual"
  ],
  "accessors": [
    {
      "bufferView": 0,
      "componentType": 5126,
      "count": 1585,
      "type": "VEC3",
      "max": [
        0.90174251794815063,
        2.2347953319549561,
        0.585722029209137
      ],
      "min": [
        -0.901762068271637,
        -8.641782045515356E-08,
        -0.58572161197662354
      ]
    },
    {
      "bufferView": 1,
      "componentType": 5126,
      "count": 1585,
      "type": "VEC3",
      "max": [
        1.0,
        1.0,
        1.0
      ],
      "min": [
        -1.0,
        -1.0,
        -1.0
      ]
    },
    {
      "bufferView": 2,
      "componentType": 5126,
      "count": 1585,
      "type": "VEC4",
      "max": [
        1.0,
        1.0,
        1.0,
        1.0
      ],
      "min": [
        -1.0,
        -1.0,
        -1.0,
        -1.0
      ]
    },
    {
      "bufferView": 3,
      "componentType": 5126,
      "count": 1585,
      "type": "VEC2",
      "max": [
        0.885528028011322,
        0.42686045169830322
      ],
      "min": [
        0.021940808743238449,
        0.0750190019607544
      ]
    },
    {
      "bufferView": 4,
      "componentType": 5123,
      "count": 3558,
      "type": "SCALAR",
      "max": [
        1584.0
      ],
      "min": [
        0.0
      ]
    }
  ],
  "asset": {
    "version": "2.0"
  },
  "buffers": [
    {
      "uri": "stall_007.bin",
      "byteLength": 83196
    }
  ],
  "bufferViews": [
    {
      "buffer": 0,
      "byteLength": 19020
    },
    {
      "buffer": 0,
      "byteOffset": 19020,
      "byteLength": 19020
    },
    {
      "buffer": 0,
      "byteOffset": 38040,
      "byteLength": 25360
    },
    {
      "buffer": 0,
      "byteOffset": 63400,
      "byteLength": 12680
    },
    {
      "buffer": 0,
      "byteOffset": 76080,
      "byteLength": 7116
    }
  ],
  "images": [
    {
      "uri": "1124351310TextureMain.png",
      "name": "Texture"
    }
  ],
  "materials": [
    {
      "pbrMetallicRoughness": {
        "baseColorTexture": {
          "index": 0
        },
        "metallicFactor": 0.0,
        "roughnessFactor": 0.5
      },
      "name": "Main_Materials"
    }
  ],
  "meshes": [
    {
      "primitives": [
        {
          "attributes": {
            "POSITION": 0,
            "NORMAL": 1,
            "TANGENT": 2,
            "TEXCOORD_0": 3
          },
          "indices": 4,
          "material": 0
        }
      ],
      "name": "stall_007"
    }
  ],
  "nodes": [
    {
      "mesh": 0,
      "name": "stall_007"
    }
  ],
  "samplers": [
    {}
  ],
  "scene": 0,
  "scenes": [
    {
      "nodes": [
        0
      ],
      "name": "stall_007"
    }
  ],
  "textures": [
    {
      "sampler": 0,
      "source": 0,
      "name": "1124351310TextureMain"
    }
  ]
}