{
  "extensionsUsed": [
    "KHR_lights_punctual"
  ],
  "accessors": [
    {
      "bufferView": 0,
      "componentType": 5126,
      "count": 2571,
      "type": "VEC3",
      "max": [
        6.8941893577575684,
        7.1450595855712891,
        5.1424908638000488
      ],
      "min": [
        -7.5013279914855957,
        -7.2816351348592434E-07,
        -5.6922178268432617
      ]
    },
    {
      "bufferView": 1,
      "componentType": 5126,
      "count": 2571,
      "type": "VEC3",
      "max": [
        1.0,
        1.0,
        1.0
      ],
      "min": [
        -1.0,
        -1.0,
        -1.0
      ]
    },
    {
      "bufferView": 2,
      "componentType": 5126,
      "count": 2571,
      "type": "VEC4",
      "max": [
        1.0,
        1.0,
        1.0,
        1.0
      ],
      "min": [
        -1.0,
        -1.0,
        -1.0,
        -1.0
      ]
    },
    {
      "bufferView": 3,
      "componentType": 5126,
      "count": 2571,
      "type": "VEC2",
      "max": [
        0.93088668584823608,
        0.47963947057724
      ],
      "min": [
        0.023818373680114746,
        0.014557778835296631
      ]
    },
    {
      "bufferView": 4,
      "componentType": 5123,
      "count": 6498,
      "type": "SCALAR",
      "max": [
        2570.0
      ],
      "min": [
        0.0
      ]
    }
  ],
  "asset": {
    "version": "2.0"
  },
  "buffers": [
    {
      "uri": "building_002.bin",
      "byteLength": 136404
    }
  ],
  "bufferViews": [
    {
      "buffer": 0,
      "byteLength": 30852
    },
    {
      "buffer": 0,
      "byteOffset": 30852,
      "byteLength": 30852
    },
    {
      "buffer": 0,
      "byteOffset": 61704,
      "byteLength": 41136
    },
    {
      "buffer": 0,
      "byteOffset": 102840,
      "byteLength": 20568
    },
    {
      "buffer": 0,
      "byteOffset": 123408,
      "byteLength": 12996
    }
  ],
  "images": [
    {
      "uri": "1124351310TextureMain.png",
      "name": "Texture"
    }
  ],
  "materials": [
    {
      "pbrMetallicRoughness": {
        "baseColorTexture": {
          "index": 0
        },
        "metallicFactor": 0.0,
        "roughnessFactor": 0.5
      },
      "name": "Main_Materials"
    }
  ],
  "meshes": [
    {
      "primitives": [
        {
          "attributes": {
            "POSITION": 0,
            "NORMAL": 1,
            "TANGENT": 2,
            "TEXCOORD_0": 3
          },
          "indices": 4,
          "material": 0
        }
      ],
      "name": "building_002"
    }
  ],
  "nodes": [
    {
      "mesh": 0,
      "name": "building_002"
    }
  ],
  "samplers": [
    {}
  ],
  "scene": 0,
  "scenes": [
    {
      "nodes": [
        0
      ],
      "name": "building_002"
    }
  ],
  "textures": [
    {
      "sampler": 0,
      "source": 0,
      "name": "1124351310TextureMain"
    }
  ]
}