{
  "extensionsUsed": [
    "KHR_lights_punctual"
  ],
  "accessors": [
    {
      "bufferView": 0,
      "componentType": 5126,
      "count": 2259,
      "type": "VEC3",
      "max": [
        2.6061327457427979,
        4.9675130844116211,
        2.4832720756530762
      ],
      "min": [
        -2.6061522960662842,
        -9.8347197763359873E-07,
        -2.4832704067230225
      ]
    },
    {
      "bufferView": 1,
      "componentType": 5126,
      "count": 2259,
      "type": "VEC3",
      "max": [
        1.0,
        1.0,
        1.0
      ],
      "min": [
        -1.0,
        -1.0,
        -1.0
      ]
    },
    {
      "bufferView": 2,
      "componentType": 5126,
      "count": 2259,
      "type": "VEC4",
      "max": [
        1.0,
        1.0,
        1.0,
        1.0
      ],
      "min": [
        -1.0,
        -1.0,
        -1.0,
        -1.0
      ]
    },
    {
      "bufferView": 3,
      "componentType": 5126,
      "count": 2259,
      "type": "VEC2",
      "max": [
        0.8825797438621521,
        0.44162869453430176
      ],
      "min": [
        0.025148987770080566,
        0.027668237686157227
      ]
    },
    {
      "bufferView": 4,
      "componentType": 5123,
      "count": 5991,
      "type": "SCALAR",
      "max": [
        2254.0
      ],
      "min": [
        0.0
      ]
    },
    {
      "bufferView": 5,
      "componentType": 5123,
      "count": 6,
      "type": "SCALAR",
      "max": [
        2258.0
      ],
      "min": [
        2255.0
      ]
    }
  ],
  "asset": {
    "version": "2.0"
  },
  "buffers": [
    {
      "uri": "stall_001.bin",
      "byteLength": 120426
    }
  ],
  "bufferViews": [
    {
      "buffer": 0,
      "byteLength": 27108
    },
    {
      "buffer": 0,
      "byteOffset": 27108,
      "byteLength": 27108
    },
    {
      "buffer": 0,
      "byteOffset": 54216,
      "byteLength": 36144
    },
    {
      "buffer": 0,
      "byteOffset": 90360,
      "byteLength": 18072
    },
    {
      "buffer": 0,
      "byteOffset": 108432,
      "byteLength": 11982
    },
    {
      "buffer": 0,
      "byteOffset": 120414,
      "byteLength": 12
    }
  ],
  "images": [
    {
      "uri": "1124351310TextureMain.png",
      "name": "Texture"
    }
  ],
  "materials": [
    {
      "pbrMetallicRoughness": {
        "baseColorTexture": {
          "index": 0
        },
        "metallicFactor": 0.0,
        "roughnessFactor": 0.5
      },
      "name": "Main_Materials"
    },
    {
      "pbrMetallicRoughness": {
        "metallicFactor": 0.0,
        "roughnessFactor": 0.5
      },
      "name": "emission"
    }
  ],
  "meshes": [
    {
      "primitives": [
        {
          "attributes": {
            "POSITION": 0,
            "NORMAL": 1,
            "TANGENT": 2,
            "TEXCOORD_0": 3
          },
          "indices": 4,
          "material": 0
        },
        {
          "attributes": {
            "POSITION": 0,
            "NORMAL": 1,
            "TANGENT": 2,
            "TEXCOORD_0": 3
          },
          "indices": 5,
          "material": 1
        }
      ],
      "name": "stall_001"
    }
  ],
  "nodes": [
    {
      "mesh": 0,
      "name": "stall_001"
    }
  ],
  "samplers": [
    {}
  ],
  "scene": 0,
  "scenes": [
    {
      "nodes": [
        0
      ],
      "name": "stall_001"
    }
  ],
  "textures": [
    {
      "sampler": 0,
      "source": 0,
      "name": "1124351310TextureMain"
    }
  ]
}