{
  "extensionsUsed": [
    "KHR_lights_punctual"
  ],
  "accessors": [
    {
      "bufferView": 0,
      "componentType": 5126,
      "count": 3430,
      "type": "VEC3",
      "max": [
        2.298208475112915,
        5.4033570289611816,
        2.31539249420166
      ],
      "min": [
        -2.2982125282287598,
        -3.3265664001191908E-07,
        -2.3153946399688721
      ]
    },
    {
      "bufferView": 1,
      "componentType": 5126,
      "count": 3430,
      "type": "VEC3",
      "max": [
        1.0,
        1.0,
        1.0
      ],
      "min": [
        -1.0,
        -1.0,
        -1.0
      ]
    },
    {
      "bufferView": 2,
      "componentType": 5126,
      "count": 3430,
      "type": "VEC4",
      "max": [
        1.0,
        1.0,
        1.0,
        1.0
      ],
      "min": [
        -1.0,
        -1.0,
        -1.0,
        -1.0
      ]
    },
    {
      "bufferView": 3,
      "componentType": 5126,
      "count": 3430,
      "type": "VEC2",
      "max": [
        0.93388289213180542,
        0.71081036329269409
      ],
      "min": [
        0.020494580268859863,
        0.021557152271270752
      ]
    },
    {
      "bufferView": 4,
      "componentType": 5123,
      "count": 7350,
      "type": "SCALAR",
      "max": [
        3079.0
      ],
      "min": [
        0.0
      ]
    },
    {
      "bufferView": 5,
      "componentType": 5123,
      "count": 984,
      "type": "SCALAR",
      "max": [
        3429.0
      ],
      "min": [
        3080.0
      ]
    }
  ],
  "asset": {
    "version": "2.0"
  },
  "buffers": [
    {
      "uri": "stall_005.bin",
      "byteLength": 181308
    }
  ],
  "bufferViews": [
    {
      "buffer": 0,
      "byteLength": 41160
    },
    {
      "buffer": 0,
      "byteOffset": 41160,
      "byteLength": 41160
    },
    {
      "buffer": 0,
      "byteOffset": 82320,
      "byteLength": 54880
    },
    {
      "buffer": 0,
      "byteOffset": 137200,
      "byteLength": 27440
    },
    {
      "buffer": 0,
      "byteOffset": 164640,
      "byteLength": 14700
    },
    {
      "buffer": 0,
      "byteOffset": 179340,
      "byteLength": 1968
    }
  ],
  "images": [
    {
      "uri": "1124351310TextureMain.png",
      "name": "Texture"
    }
  ],
  "materials": [
    {
      "pbrMetallicRoughness": {
        "baseColorTexture": {
          "index": 0
        },
        "metallicFactor": 0.0,
        "roughnessFactor": 0.5
      },
      "name": "Main_Materials"
    },
    {
      "pbrMetallicRoughness": {
        "metallicFactor": 0.0,
        "roughnessFactor": 0.5
      },
      "name": "emission"
    }
  ],
  "meshes": [
    {
      "primitives": [
        {
          "attributes": {
            "POSITION": 0,
            "NORMAL": 1,
            "TANGENT": 2,
            "TEXCOORD_0": 3
          },
          "indices": 4,
          "material": 0
        },
        {
          "attributes": {
            "POSITION": 0,
            "NORMAL": 1,
            "TANGENT": 2,
            "TEXCOORD_0": 3
          },
          "indices": 5,
          "material": 1
        }
      ],
      "name": "stall_005"
    }
  ],
  "nodes": [
    {
      "mesh": 0,
      "name": "stall_005"
    }
  ],
  "samplers": [
    {}
  ],
  "scene": 0,
  "scenes": [
    {
      "nodes": [
        0
      ],
      "name": "stall_005"
    }
  ],
  "textures": [
    {
      "sampler": 0,
      "source": 0,
      "name": "1124351310TextureMain"
    }
  ]
}