{
  "extensionsUsed": [
    "KHR_lights_punctual"
  ],
  "accessors": [
    {
      "bufferView": 0,
      "componentType": 5126,
      "count": 28474,
      "type": "VEC3",
      "max": [
        10.783812522888184,
        14.774243354797363,
        10.083810806274414
      ],
      "min": [
        -9.6838092803955078,
        -0.51999950408935547,
        -5.5036625862121582
      ]
    },
    {
      "bufferView": 1,
      "componentType": 5126,
      "count": 28474,
      "type": "VEC3",
      "max": [
        1.0000002384185791,
        1.0,
        1.0000002384185791
      ],
      "min": [
        -1.0000002384185791,
        -1.0,
        -1.0000002384185791
      ]
    },
    {
      "bufferView": 2,
      "componentType": 5126,
      "count": 28474,
      "type": "VEC4",
      "max": [
        1.0000002384185791,
        1.0,
        1.0000002384185791,
        1.0
      ],
      "min": [
        -1.0000002384185791,
        -1.0,
        -1.0000002384185791,
        -1.0
      ]
    },
    {
      "bufferView": 3,
      "componentType": 5126,
      "count": 28474,
      "type": "VEC2",
      "max": [
        3.0009765625,
        2.60791015625
      ],
      "min": [
        -2.43212890625,
        -1.3678648471832275
      ]
    },
    {
      "bufferView": 4,
      "componentType": 5126,
      "count": 28474,
      "type": "VEC2",
      "max": [
        1.5187332630157471,
        1.9522103071212769
      ],
      "min": [
        -1.0648585557937622,
        -1.3678648471832275
      ]
    },
    {
      "bufferView": 5,
      "componentType": 5123,
      "count": 27816,
      "type": "SCALAR",
      "max": [
        17184.0
      ],
      "min": [
        0.0
      ]
    },
    {
      "bufferView": 6,
      "componentType": 5123,
      "count": 294,
      "type": "SCALAR",
      "max": [
        17316.0
      ],
      "min": [
        17185.0
      ]
    },
    {
      "bufferView": 7,
      "componentType": 5123,
      "count": 1176,
      "type": "SCALAR",
      "max": [
        17818.0
      ],
      "min": [
        17317.0
      ]
    },
    {
      "bufferView": 8,
      "componentType": 5123,
      "count": 54,
      "type": "SCALAR",
      "max": [
        17854.0
      ],
      "min": [
        17819.0
      ]
    },
    {
      "bufferView": 9,
      "componentType": 5123,
      "count": 84,
      "type": "SCALAR",
      "max": [
        17886.0
      ],
      "min": [
        17855.0
      ]
    },
    {
      "bufferView": 10,
      "componentType": 5123,
      "count": 7578,
      "type": "SCALAR",
      "max": [
        22255.0
      ],
      "min": [
        17887.0
      ]
    },
    {
      "bufferView": 11,
      "componentType": 5123,
      "count": 1776,
      "type": "SCALAR",
      "max": [
        23139.0
      ],
      "min": [
        22256.0
      ]
    },
    {
      "bufferView": 12,
      "componentType": 5123,
      "count": 3783,
      "type": "SCALAR",
      "max": [
        25099.0
      ],
      "min": [
        23140.0
      ]
    },
    {
      "bufferView": 13,
      "componentType": 5123,
      "count": 7641,
      "type": "SCALAR",
      "max": [
        28473.0
      ],
      "min": [
        25100.0
      ]
    }
  ],
  "asset": {
    "version": "2.0"
  },
  "buffers": [
    {
      "uri": "house_2x2_03.bin",
      "byteLength": 1694948
    }
  ],
  "bufferViews": [
    {
      "buffer": 0,
      "byteLength": 341688
    },
    {
      "buffer": 0,
      "byteOffset": 341688,
      "byteLength": 341688
    },
    {
      "buffer": 0,
      "byteOffset": 683376,
      "byteLength": 455584
    },
    {
      "buffer": 0,
      "byteOffset": 1138960,
      "byteLength": 227792
    },
    {
      "buffer": 0,
      "byteOffset": 1366752,
      "byteLength": 227792
    },
    {
      "buffer": 0,
      "byteOffset": 1594544,
      "byteLength": 55632
    },
    {
      "buffer": 0,
      "byteOffset": 1650176,
      "byteLength": 588
    },
    {
      "buffer": 0,
      "byteOffset": 1650764,
      "byteLength": 2352
    },
    {
      "buffer": 0,
      "byteOffset": 1653116,
      "byteLength": 108
    },
    {
      "buffer": 0,
      "byteOffset": 1653224,
      "byteLength": 168
    },
    {
      "buffer": 0,
      "byteOffset": 1653392,
      "byteLength": 15156
    },
    {
      "buffer": 0,
      "byteOffset": 1668548,
      "byteLength": 3552
    },
    {
      "buffer": 0,
      "byteOffset": 1672100,
      "byteLength": 7566
    },
    {
      "buffer": 0,
      "byteOffset": 1679666,
      "byteLength": 15282
    }
  ],
  "images": [
    {
      "uri": "540049250T_WoodTrim_02_CMain.png",
      "name": "T_WoodTrim_02_C"
    },
    {
      "uri": "413864656T_House_PlasterBricks_01_CMain.png",
      "name": "T_House_PlasterBricks_01_C"
    },
    {
      "uri": "395544113T_Plaster_03_CMain.png",
      "name": "T_Plaster_03_C"
    },
    {
      "uri": "1874190472T_VillageGlass_01_CMain.png",
      "name": "T_VillageGlass_01_C"
    },
    {
      "uri": "413830831T_House_PlasterBricks_02_CMain.png",
      "name": "T_House_PlasterBricks_02_C"
    },
    {
      "uri": "761451313T_TrimMetal_CMain.png",
      "name": "T_TrimMetal_C"
    },
    {
      "uri": "1039729349T_Stonewall_01_CMain.png",
      "name": "T_Stonewall_01_C"
    },
    {
      "uri": "1542044607T_WoodPlanks_02_CMain.png",
      "name": "T_WoodPlanks_02_C"
    },
    {
      "uri": "856012099T_RoofTiles_01_CMain.png",
      "name": "T_RoofTiles_01_C"
    }
  ],
  "materials": [
    {
      "pbrMetallicRoughness": {
        "baseColorTexture": {
          "index": 0
        },
        "metallicFactor": 0.0
      },
      "name": "M_WoodTrim"
    },
    {
      "pbrMetallicRoughness": {
        "baseColorTexture": {
          "index": 1
        },
        "metallicFactor": 0.0
      },
      "name": "M_House_PlasterBricks_01"
    },
    {
      "pbrMetallicRoughness": {
        "baseColorTexture": {
          "index": 2
        },
        "metallicFactor": 0.0
      },
      "name": "M_Plaster"
    },
    {
      "pbrMetallicRoughness": {
        "baseColorTexture": {
          "index": 3
        },
        "metallicFactor": 0.0
      },
      "alphaMode": "MASK",
      "alphaCutoff": 0.0,
      "name": "M_Glass"
    },
    {
      "pbrMetallicRoughness": {
        "baseColorTexture": {
          "index": 4
        },
        "metallicFactor": 0.0
      },
      "name": "M_House_PlasterBricks_02"
    },
    {
      "pbrMetallicRoughness": {
        "baseColorTexture": {
          "index": 5
        },
        "metallicFactor": 0.0
      },
      "name": "M_MetalTrim"
    },
    {
      "pbrMetallicRoughness": {
        "baseColorTexture": {
          "index": 6
        },
        "metallicFactor": 0.0
      },
      "name": "M_House_StoneWall_01"
    },
    {
      "pbrMetallicRoughness": {
        "baseColorTexture": {
          "index": 7
        },
        "metallicFactor": 0.0
      },
      "name": "M_Roof_Wood"
    },
    {
      "pbrMetallicRoughness": {
        "baseColorTexture": {
          "index": 8
        },
        "metallicFactor": 0.0
      },
      "name": "M_RoofTiles_Red"
    }
  ],
  "meshes": [
    {
      "primitives": [
        {
          "attributes": {
            "POSITION": 0,
            "NORMAL": 1,
            "TANGENT": 2,
            "TEXCOORD_0": 3,
            "TEXCOORD_1": 4
          },
          "indices": 5,
          "material": 0
        },
        {
          "attributes": {
            "POSITION": 0,
            "NORMAL": 1,
            "TANGENT": 2,
            "TEXCOORD_0": 3,
            "TEXCOORD_1": 4
          },
          "indices": 6,
          "material": 1
        },
        {
          "attributes": {
            "POSITION": 0,
            "NORMAL": 1,
            "TANGENT": 2,
            "TEXCOORD_0": 3,
            "TEXCOORD_1": 4
          },
          "indices": 7,
          "material": 2
        },
        {
          "attributes": {
            "POSITION": 0,
            "NORMAL": 1,
            "TANGENT": 2,
            "TEXCOORD_0": 3,
            "TEXCOORD_1": 4
          },
          "indices": 8,
          "material": 3
        },
        {
          "attributes": {
            "POSITION": 0,
            "NORMAL": 1,
            "TANGENT": 2,
            "TEXCOORD_0": 3,
            "TEXCOORD_1": 4
          },
          "indices": 9,
          "material": 4
        },
        {
          "attributes": {
            "POSITION": 0,
            "NORMAL": 1,
            "TANGENT": 2,
            "TEXCOORD_0": 3,
            "TEXCOORD_1": 4
          },
          "indices": 10,
          "material": 5
        },
        {
          "attributes": {
            "POSITION": 0,
            "NORMAL": 1,
            "TANGENT": 2,
            "TEXCOORD_0": 3,
            "TEXCOORD_1": 4
          },
          "indices": 11,
          "material": 6
        },
        {
          "attributes": {
            "POSITION": 0,
            "NORMAL": 1,
            "TANGENT": 2,
            "TEXCOORD_0": 3,
            "TEXCOORD_1": 4
          },
          "indices": 12,
          "material": 7
        },
        {
          "attributes": {
            "POSITION": 0,
            "NORMAL": 1,
            "TANGENT": 2,
            "TEXCOORD_0": 3,
            "TEXCOORD_1": 4
          },
          "indices": 13,
          "material": 8
        }
      ],
      "name": "House_2x2_03"
    }
  ],
  "nodes": [
    {
      "mesh": 0,
      "name": "House_2x2_03"
    }
  ],
  "samplers": [
    {}
  ],
  "scene": 0,
  "scenes": [
    {
      "nodes": [
        0
      ],
      "name": "house_2x2_03"
    }
  ],
  "textures": [
    {
      "sampler": 0,
      "source": 0,
      "name": "540049250T_WoodTrim_02_CMain"
    },
    {
      "sampler": 0,
      "source": 1,
      "name": "413864656T_House_PlasterBricks_01_CMain"
    },
    {
      "sampler": 0,
      "source": 2,
      "name": "395544113T_Plaster_03_CMain"
    },
    {
      "sampler": 0,
      "source": 3,
      "name": "1874190472T_VillageGlass_01_CMain"
    },
    {
      "sampler": 0,
      "source": 4,
      "name": "413830831T_House_PlasterBricks_02_CMain"
    },
    {
      "sampler": 0,
      "source": 5,
      "name": "761451313T_TrimMetal_CMain"
    },
    {
      "sampler": 0,
      "source": 6,
      "name": "1039729349T_Stonewall_01_CMain"
    },
    {
      "sampler": 0,
      "source": 7,
      "name": "1542044607T_WoodPlanks_02_CMain"
    },
    {
      "sampler": 0,
      "source": 8,
      "name": "856012099T_RoofTiles_01_CMain"
    }
  ]
}