{
  "extensionsUsed": [
    "KHR_lights_punctual"
  ],
  "accessors": [
    {
      "bufferView": 0,
      "componentType": 5126,
      "count": 184,
      "type": "VEC3",
      "max": [
        0.36104980111122131,
        1.336344838142395,
        0.37547865509986877
      ],
      "min": [
        -0.36104980111122131,
        -5.1768680009445234E-08,
        -0.37547361850738525
      ]
    },
    {
      "bufferView": 1,
      "componentType": 5126,
      "count": 184,
      "type": "VEC3",
      "max": [
        0.99892979860305786,
        0.99835997819900513,
        1.0
      ],
      "min": [
        -0.99892979860305786,
        -0.99835985898971558,
        -0.99892717599868774
      ]
    },
    {
      "bufferView": 2,
      "componentType": 5126,
      "count": 184,
      "type": "VEC4",
      "max": [
        1.0,
        1.0,
        0.95235472917556763,
        1.0
      ],
      "min": [
        -1.0,
        -0.047285523265600204,
        -0.95235472917556763,
        1.0
      ]
    },
    {
      "bufferView": 3,
      "componentType": 5126,
      "count": 184,
      "type": "VEC2",
      "max": [
        0.8813897967338562,
        0.4772680401802063
      ],
      "min": [
        0.86883723735809326,
        0.26540029048919678
      ]
    },
    {
      "bufferView": 4,
      "componentType": 5121,
      "count": 612,
      "type": "SCALAR",
      "max": [
        183.0
      ],
      "min": [
        0.0
      ]
    }
  ],
  "asset": {
    "version": "2.0"
  },
  "buffers": [
    {
      "uri": "speaker_001.bin",
      "byteLength": 9444
    }
  ],
  "bufferViews": [
    {
      "buffer": 0,
      "byteLength": 2208
    },
    {
      "buffer": 0,
      "byteOffset": 2208,
      "byteLength": 2208
    },
    {
      "buffer": 0,
      "byteOffset": 4416,
      "byteLength": 2944
    },
    {
      "buffer": 0,
      "byteOffset": 7360,
      "byteLength": 1472
    },
    {
      "buffer": 0,
      "byteOffset": 8832,
      "byteLength": 612
    }
  ],
  "images": [
    {
      "uri": "1124351310TextureMain.png",
      "name": "Texture"
    }
  ],
  "materials": [
    {
      "pbrMetallicRoughness": {
        "baseColorTexture": {
          "index": 0
        },
        "metallicFactor": 0.0,
        "roughnessFactor": 0.5
      },
      "name": "Main_Materials"
    }
  ],
  "meshes": [
    {
      "primitives": [
        {
          "attributes": {
            "POSITION": 0,
            "NORMAL": 1,
            "TANGENT": 2,
            "TEXCOORD_0": 3
          },
          "indices": 4,
          "material": 0
        }
      ],
      "name": "speaker_001"
    }
  ],
  "nodes": [
    {
      "mesh": 0,
      "name": "speaker_001"
    }
  ],
  "samplers": [
    {}
  ],
  "scene": 0,
  "scenes": [
    {
      "nodes": [
        0
      ],
      "name": "speaker_001"
    }
  ],
  "textures": [
    {
      "sampler": 0,
      "source": 0,
      "name": "1124351310TextureMain"
    }
  ]
}