{
  "extensionsUsed": [
    "KHR_lights_punctual"
  ],
  "accessors": [
    {
      "bufferView": 0,
      "componentType": 5126,
      "count": 1291,
      "type": "VEC3",
      "max": [
        1.6470043659210205,
        18.598817825317383,
        1.7311488389968872
      ],
      "min": [
        -1.6516772508621216,
        -8.5454564668907551E-07,
        -1.7767221927642822
      ]
    },
    {
      "bufferView": 1,
      "componentType": 5126,
      "count": 1291,
      "type": "VEC3",
      "max": [
        1.0,
        1.0,
        1.0
      ],
      "min": [
        -1.0,
        -1.0,
        -1.0
      ]
    },
    {
      "bufferView": 2,
      "componentType": 5126,
      "count": 1291,
      "type": "VEC4",
      "max": [
        1.0,
        1.0,
        1.0,
        1.0
      ],
      "min": [
        -1.0,
        -1.0,
        -1.0,
        -1.0
      ]
    },
    {
      "bufferView": 3,
      "componentType": 5126,
      "count": 1291,
      "type": "VEC2",
      "max": [
        0.88050448894500732,
        0.60548537969589233
      ],
      "min": [
        0.62316215038299561,
        0.065884828567504883
      ]
    },
    {
      "bufferView": 4,
      "componentType": 5126,
      "count": 1291,
      "type": "VEC2",
      "max": [
        0.0,
        1.0
      ],
      "min": [
        0.0,
        1.0
      ]
    },
    {
      "bufferView": 5,
      "componentType": 5121,
      "count": 60,
      "type": "SCALAR",
      "max": [
        27.0
      ],
      "min": [
        0.0
      ]
    },
    {
      "bufferView": 6,
      "componentType": 5123,
      "count": 3024,
      "type": "SCALAR",
      "max": [
        1290.0
      ],
      "min": [
        28.0
      ]
    }
  ],
  "asset": {
    "version": "2.0"
  },
  "buffers": [
    {
      "uri": "castle_tower_004.bin",
      "byteLength": 78404
    }
  ],
  "bufferViews": [
    {
      "buffer": 0,
      "byteLength": 15492
    },
    {
      "buffer": 0,
      "byteOffset": 15492,
      "byteLength": 15492
    },
    {
      "buffer": 0,
      "byteOffset": 30984,
      "byteLength": 20656
    },
    {
      "buffer": 0,
      "byteOffset": 51640,
      "byteLength": 10328
    },
    {
      "buffer": 0,
      "byteOffset": 61968,
      "byteLength": 10328
    },
    {
      "buffer": 0,
      "byteOffset": 72296,
      "byteLength": 60
    },
    {
      "buffer": 0,
      "byteOffset": 72356,
      "byteLength": 6048
    }
  ],
  "images": [
    {
      "uri": "1124351310TextureMain.png",
      "name": "Texture"
    }
  ],
  "materials": [
    {
      "pbrMetallicRoughness": {
        "metallicFactor": 0.0,
        "roughnessFactor": 0.5
      },
      "name": "emission"
    },
    {
      "pbrMetallicRoughness": {
        "baseColorTexture": {
          "index": 0
        },
        "metallicFactor": 0.0,
        "roughnessFactor": 0.5
      },
      "name": "Main_Materials"
    }
  ],
  "meshes": [
    {
      "primitives": [
        {
          "attributes": {
            "POSITION": 0,
            "NORMAL": 1,
            "TANGENT": 2,
            "TEXCOORD_0": 3,
            "TEXCOORD_1": 4
          },
          "indices": 5,
          "material": 0
        },
        {
          "attributes": {
            "POSITION": 0,
            "NORMAL": 1,
            "TANGENT": 2,
            "TEXCOORD_0": 3,
            "TEXCOORD_1": 4
          },
          "indices": 6,
          "material": 1
        }
      ],
      "name": "castle_tower_004"
    }
  ],
  "nodes": [
    {
      "mesh": 0,
      "name": "castle_tower_004"
    }
  ],
  "samplers": [
    {}
  ],
  "scene": 0,
  "scenes": [
    {
      "nodes": [
        0
      ],
      "name": "castle_tower_004"
    }
  ],
  "textures": [
    {
      "sampler": 0,
      "source": 0,
      "name": "1124351310TextureMain"
    }
  ]
}