{
  "extensionsUsed": [
    "KHR_lights_punctual"
  ],
  "accessors": [
    {
      "bufferView": 0,
      "componentType": 5126,
      "count": 3677,
      "type": "VEC3",
      "max": [
        2.1352171897888184,
        4.1183633804321289,
        1.9434255361557007
      ],
      "min": [
        -2.1352124214172363,
        -2.3796035009127081E-07,
        -1.9434261322021484
      ]
    },
    {
      "bufferView": 1,
      "componentType": 5126,
      "count": 3677,
      "type": "VEC3",
      "max": [
        1.0,
        1.0,
        1.0
      ],
      "min": [
        -1.0,
        -1.0,
        -1.0
      ]
    },
    {
      "bufferView": 2,
      "componentType": 5126,
      "count": 3677,
      "type": "VEC4",
      "max": [
        1.0,
        1.0,
        1.0,
        1.0
      ],
      "min": [
        -1.0,
        -1.0,
        -1.0,
        -1.0
      ]
    },
    {
      "bufferView": 3,
      "componentType": 5126,
      "count": 3677,
      "type": "VEC2",
      "max": [
        0.93388289213180542,
        0.76401263475418091
      ],
      "min": [
        0.47346127033233643,
        0.11556905508041382
      ]
    },
    {
      "bufferView": 4,
      "componentType": 5123,
      "count": 9216,
      "type": "SCALAR",
      "max": [
        3432.0
      ],
      "min": [
        0.0
      ]
    },
    {
      "bufferView": 5,
      "componentType": 5123,
      "count": 690,
      "type": "SCALAR",
      "max": [
        3676.0
      ],
      "min": [
        3433.0
      ]
    }
  ],
  "asset": {
    "version": "2.0"
  },
  "buffers": [
    {
      "uri": "stall_004.bin",
      "byteLength": 196308
    }
  ],
  "bufferViews": [
    {
      "buffer": 0,
      "byteLength": 44124
    },
    {
      "buffer": 0,
      "byteOffset": 44124,
      "byteLength": 44124
    },
    {
      "buffer": 0,
      "byteOffset": 88248,
      "byteLength": 58832
    },
    {
      "buffer": 0,
      "byteOffset": 147080,
      "byteLength": 29416
    },
    {
      "buffer": 0,
      "byteOffset": 176496,
      "byteLength": 18432
    },
    {
      "buffer": 0,
      "byteOffset": 194928,
      "byteLength": 1380
    }
  ],
  "images": [
    {
      "uri": "1124351310TextureMain.png",
      "name": "Texture"
    }
  ],
  "materials": [
    {
      "pbrMetallicRoughness": {
        "baseColorTexture": {
          "index": 0
        },
        "metallicFactor": 0.0,
        "roughnessFactor": 0.5
      },
      "name": "Main_Materials"
    },
    {
      "pbrMetallicRoughness": {
        "metallicFactor": 0.0,
        "roughnessFactor": 0.5
      },
      "name": "emission"
    }
  ],
  "meshes": [
    {
      "primitives": [
        {
          "attributes": {
            "POSITION": 0,
            "NORMAL": 1,
            "TANGENT": 2,
            "TEXCOORD_0": 3
          },
          "indices": 4,
          "material": 0
        },
        {
          "attributes": {
            "POSITION": 0,
            "NORMAL": 1,
            "TANGENT": 2,
            "TEXCOORD_0": 3
          },
          "indices": 5,
          "material": 1
        }
      ],
      "name": "stall_004"
    }
  ],
  "nodes": [
    {
      "mesh": 0,
      "name": "stall_004"
    }
  ],
  "samplers": [
    {}
  ],
  "scene": 0,
  "scenes": [
    {
      "nodes": [
        0
      ],
      "name": "stall_004"
    }
  ],
  "textures": [
    {
      "sampler": 0,
      "source": 0,
      "name": "1124351310TextureMain"
    }
  ]
}