{
  "extensionsUsed": [
    "KHR_lights_punctual"
  ],
  "accessors": [
    {
      "bufferView": 0,
      "componentType": 5126,
      "count": 6239,
      "type": "VEC3",
      "max": [
        3.1514134407043457,
        8.7118110656738281,
        13.598516464233398
      ],
      "min": [
        -3.1514208316802979,
        -0.077476643025875092,
        -13.598514556884766
      ]
    },
    {
      "bufferView": 1,
      "componentType": 5126,
      "count": 6239,
      "type": "VEC3",
      "max": [
        0.99989235401153564,
        0.9989161491394043,
        0.9987032413482666
      ],
      "min": [
        -0.99997568130493164,
        -0.99870455265045166,
        -0.997563362121582
      ]
    },
    {
      "bufferView": 2,
      "componentType": 5126,
      "count": 6239,
      "type": "VEC4",
      "max": [
        0.99964058399200439,
        1.0,
        1.0,
        1.0
      ],
      "min": [
        -1.0,
        -1.0,
        -1.0,
        -1.0
      ]
    },
    {
      "bufferView": 3,
      "componentType": 5126,
      "count": 6239,
      "type": "VEC2",
      "max": [
        0.88975578546524048,
        0.98410719633102417
      ],
      "min": [
        0.008762359619140625,
        0.056581258773803711
      ]
    },
    {
      "bufferView": 4,
      "componentType": 5123,
      "count": 14823,
      "type": "SCALAR",
      "max": [
        6238.0
      ],
      "min": [
        0.0
      ]
    }
  ],
  "asset": {
    "version": "2.0"
  },
  "buffers": [
    {
      "uri": "dinosaur_005.bin",
      "byteLength": 329118
    }
  ],
  "bufferViews": [
    {
      "buffer": 0,
      "byteLength": 74868
    },
    {
      "buffer": 0,
      "byteOffset": 74868,
      "byteLength": 74868
    },
    {
      "buffer": 0,
      "byteOffset": 149736,
      "byteLength": 99824
    },
    {
      "buffer": 0,
      "byteOffset": 249560,
      "byteLength": 49912
    },
    {
      "buffer": 0,
      "byteOffset": 299472,
      "byteLength": 29646
    }
  ],
  "images": [
    {
      "uri": "1124351310TextureMain.png",
      "name": "Texture"
    }
  ],
  "materials": [
    {
      "pbrMetallicRoughness": {
        "baseColorTexture": {
          "index": 0
        },
        "metallicFactor": 0.0,
        "roughnessFactor": 0.5
      },
      "name": "Main_Materials"
    }
  ],
  "meshes": [
    {
      "primitives": [
        {
          "attributes": {
            "POSITION": 0,
            "NORMAL": 1,
            "TANGENT": 2,
            "TEXCOORD_0": 3
          },
          "indices": 4,
          "material": 0
        }
      ],
      "name": "dinosaur_005"
    }
  ],
  "nodes": [
    {
      "mesh": 0,
      "name": "dinosaur_005"
    }
  ],
  "samplers": [
    {}
  ],
  "scene": 0,
  "scenes": [
    {
      "nodes": [
        0
      ],
      "name": "dinosaur_005"
    }
  ],
  "textures": [
    {
      "sampler": 0,
      "source": 0,
      "name": "1124351310TextureMain"
    }
  ]
}