{
  "extensionsUsed": [
    "KHR_lights_punctual"
  ],
  "accessors": [
    {
      "bufferView": 0,
      "componentType": 5126,
      "count": 2497,
      "type": "VEC3",
      "max": [
        3.4779186248779297,
        7.0182938575744629,
        5.4483737945556641
      ],
      "min": [
        -3.477921724319458,
        -0.027613742277026176,
        -5.4483733177185059
      ]
    },
    {
      "bufferView": 1,
      "componentType": 5126,
      "count": 2497,
      "type": "VEC3",
      "max": [
        1.0,
        0.99987781047821045,
        0.99999701976776123
      ],
      "min": [
        -1.0,
        -1.0,
        -0.99999666213989258
      ]
    },
    {
      "bufferView": 2,
      "componentType": 5126,
      "count": 2497,
      "type": "VEC4",
      "max": [
        1.0,
        0.99998939037323,
        0.9999082088470459,
        1.0
      ],
      "min": [
        -1.0,
        -1.0,
        -1.0,
        -1.0
      ]
    },
    {
      "bufferView": 3,
      "componentType": 5126,
      "count": 2497,
      "type": "VEC2",
      "max": [
        0.88122051954269409,
        0.70023190975189209
      ],
      "min": [
        0.11877808719873428,
        0.068773746490478516
      ]
    },
    {
      "bufferView": 4,
      "componentType": 5123,
      "count": 8526,
      "type": "SCALAR",
      "max": [
        2496.0
      ],
      "min": [
        0.0
      ]
    }
  ],
  "asset": {
    "version": "2.0"
  },
  "buffers": [
    {
      "uri": "attraction_15_001.bin",
      "byteLength": 136908
    }
  ],
  "bufferViews": [
    {
      "buffer": 0,
      "byteLength": 29964
    },
    {
      "buffer": 0,
      "byteOffset": 29964,
      "byteLength": 29964
    },
    {
      "buffer": 0,
      "byteOffset": 59928,
      "byteLength": 39952
    },
    {
      "buffer": 0,
      "byteOffset": 99880,
      "byteLength": 19976
    },
    {
      "buffer": 0,
      "byteOffset": 119856,
      "byteLength": 17052
    }
  ],
  "images": [
    {
      "uri": "1124351310TextureMain.png",
      "name": "Texture"
    }
  ],
  "materials": [
    {
      "pbrMetallicRoughness": {
        "baseColorTexture": {
          "index": 0
        },
        "metallicFactor": 0.0,
        "roughnessFactor": 0.5
      },
      "name": "Main_Materials"
    }
  ],
  "meshes": [
    {
      "primitives": [
        {
          "attributes": {
            "POSITION": 0,
            "NORMAL": 1,
            "TANGENT": 2,
            "TEXCOORD_0": 3
          },
          "indices": 4,
          "material": 0
        }
      ],
      "name": "attraction_15_001"
    }
  ],
  "nodes": [
    {
      "mesh": 0,
      "name": "attraction_15_001"
    }
  ],
  "samplers": [
    {}
  ],
  "scene": 0,
  "scenes": [
    {
      "nodes": [
        0
      ],
      "name": "attraction_15_001"
    }
  ],
  "textures": [
    {
      "sampler": 0,
      "source": 0,
      "name": "1124351310TextureMain"
    }
  ]
}