{
  "extensionsUsed": [
    "KHR_lights_punctual"
  ],
  "accessors": [
    {
      "bufferView": 0,
      "componentType": 5126,
      "count": 1320,
      "type": "VEC3",
      "max": [
        1.4536815881729126,
        6.4541587829589844,
        8.0546054840087891
      ],
      "min": [
        -1.8829711675643921,
        -0.13749544322490692,
        -8.070526123046875
      ]
    },
    {
      "bufferView": 1,
      "componentType": 5126,
      "count": 1320,
      "type": "VEC3",
      "max": [
        0.99950075149536133,
        0.99237179756164551,
        0.99999606609344482
      ],
      "min": [
        -0.99917620420455933,
        -0.99905675649642944,
        -0.98955231904983521
      ]
    },
    {
      "bufferView": 2,
      "componentType": 5126,
      "count": 1320,
      "type": "VEC4",
      "max": [
        0.95795679092407227,
        0.954164981842041,
        0.99958163499832153,
        1.0
      ],
      "min": [
        -1.0,
        -0.9999854564666748,
        -0.99989473819732666,
        1.0
      ]
    },
    {
      "bufferView": 3,
      "componentType": 5126,
      "count": 1320,
      "type": "VEC2",
      "max": [
        0.88311564922332764,
        0.48284393548965454
      ],
      "min": [
        0.62086081504821777,
        0.079816699028015137
      ]
    },
    {
      "bufferView": 4,
      "componentType": 5123,
      "count": 3318,
      "type": "SCALAR",
      "max": [
        1319.0
      ],
      "min": [
        0.0
      ]
    }
  ],
  "asset": {
    "version": "2.0"
  },
  "buffers": [
    {
      "uri": "dinosaur_003.bin",
      "byteLength": 69996
    }
  ],
  "bufferViews": [
    {
      "buffer": 0,
      "byteLength": 15840
    },
    {
      "buffer": 0,
      "byteOffset": 15840,
      "byteLength": 15840
    },
    {
      "buffer": 0,
      "byteOffset": 31680,
      "byteLength": 21120
    },
    {
      "buffer": 0,
      "byteOffset": 52800,
      "byteLength": 10560
    },
    {
      "buffer": 0,
      "byteOffset": 63360,
      "byteLength": 6636
    }
  ],
  "images": [
    {
      "uri": "1124351310TextureMain.png",
      "name": "Texture"
    }
  ],
  "materials": [
    {
      "pbrMetallicRoughness": {
        "baseColorTexture": {
          "index": 0
        },
        "metallicFactor": 0.0,
        "roughnessFactor": 0.5
      },
      "name": "Main_Materials"
    }
  ],
  "meshes": [
    {
      "primitives": [
        {
          "attributes": {
            "POSITION": 0,
            "NORMAL": 1,
            "TANGENT": 2,
            "TEXCOORD_0": 3
          },
          "indices": 4,
          "material": 0
        }
      ],
      "name": "dinosaur_003"
    }
  ],
  "nodes": [
    {
      "mesh": 0,
      "name": "dinosaur_003"
    }
  ],
  "samplers": [
    {}
  ],
  "scene": 0,
  "scenes": [
    {
      "nodes": [
        0
      ],
      "name": "dinosaur_003"
    }
  ],
  "textures": [
    {
      "sampler": 0,
      "source": 0,
      "name": "1124351310TextureMain"
    }
  ]
}