{
  "extensionsUsed": [
    "KHR_lights_punctual"
  ],
  "accessors": [
    {
      "bufferView": 0,
      "componentType": 5126,
      "count": 10401,
      "type": "VEC3",
      "max": [
        0.010185864754021168,
        0.00854249857366085,
        0.0403294637799263
      ],
      "min": [
        -0.010185863822698593,
        -0.0079306764528155327,
        0.023991033434867859
      ]
    },
    {
      "bufferView": 1,
      "componentType": 5126,
      "count": 10401,
      "type": "VEC3",
      "max": [
        0.99999988079071045,
        1.0,
        1.0
      ],
      "min": [
        -0.99999988079071045,
        -1.0,
        -1.0
      ]
    },
    {
      "bufferView": 2,
      "componentType": 5126,
      "count": 10401,
      "type": "VEC4",
      "max": [
        1.0,
        0.99999916553497314,
        1.0,
        1.0
      ],
      "min": [
        -1.0,
        -0.99970847368240356,
        -0.999882698059082,
        -1.0
      ]
    },
    {
      "bufferView": 3,
      "componentType": 5126,
      "count": 10401,
      "type": "VEC2",
      "max": [
        0.75000017881393433,
        0.62499994039535522
      ],
      "min": [
        0.25,
        0.12499964237213135
      ]
    },
    {
      "bufferView": 4,
      "componentType": 5123,
      "count": 15360,
      "type": "SCALAR",
      "max": [
        2797.0
      ],
      "min": [
        0.0
      ]
    },
    {
      "bufferView": 5,
      "componentType": 5123,
      "count": 6144,
      "type": "SCALAR",
      "max": [
        4045.0
      ],
      "min": [
        279.0
      ]
    },
    {
      "bufferView": 6,
      "componentType": 5123,
      "count": 1536,
      "type": "SCALAR",
      "max": [
        4351.0
      ],
      "min": [
        4046.0
      ]
    },
    {
      "bufferView": 7,
      "componentType": 5123,
      "count": 30720,
      "type": "SCALAR",
      "max": [
        10400.0
      ],
      "min": [
        4352.0
      ]
    },
    {
      "bufferView": 8,
      "componentType": 5126,
      "count": 4,
      "type": "VEC3",
      "max": [
        550.5,
        550.5,
        0.0
      ],
      "min": [
        -550.5,
        -550.5,
        0.0
      ]
    },
    {
      "bufferView": 9,
      "componentType": 5126,
      "count": 4,
      "type": "VEC3",
      "max": [
        0.0,
        0.0,
        -1.0
      ],
      "min": [
        0.0,
        0.0,
        -1.0
      ]
    },
    {
      "bufferView": 10,
      "componentType": 5126,
      "count": 4,
      "type": "VEC2",
      "max": [
        1.0,
        1.0
      ],
      "min": [
        0.0,
        0.0
      ]
    },
    {
      "bufferView": 11,
      "componentType": 5121,
      "count": 6,
      "type": "SCALAR",
      "max": [
        3.0
      ],
      "min": [
        0.0
      ]
    },
    {
      "bufferView": 12,
      "componentType": 5126,
      "count": 4,
      "type": "VEC3",
      "max": [
        550.5,
        550.5,
        0.0
      ],
      "min": [
        -550.5,
        -550.5,
        0.0
      ]
    },
    {
      "bufferView": 13,
      "componentType": 5126,
      "count": 4,
      "type": "VEC3",
      "max": [
        0.0,
        0.0,
        -1.0
      ],
      "min": [
        0.0,
        0.0,
        -1.0
      ]
    },
    {
      "bufferView": 14,
      "componentType": 5126,
      "count": 4,
      "type": "VEC2",
      "max": [
        1.0,
        1.0
      ],
      "min": [
        0.0,
        0.0
      ]
    },
    {
      "bufferView": 15,
      "componentType": 5121,
      "count": 6,
      "type": "SCALAR",
      "max": [
        3.0
      ],
      "min": [
        0.0
      ]
    },
    {
      "bufferView": 16,
      "componentType": 5126,
      "count": 4,
      "type": "VEC3",
      "max": [
        550.5,
        550.5,
        0.0
      ],
      "min": [
        -550.5,
        -550.5,
        0.0
      ]
    },
    {
      "bufferView": 17,
      "componentType": 5126,
      "count": 4,
      "type": "VEC3",
      "max": [
        0.0,
        0.0,
        -1.0
      ],
      "min": [
        0.0,
        0.0,
        -1.0
      ]
    },
    {
      "bufferView": 18,
      "componentType": 5126,
      "count": 4,
      "type": "VEC2",
      "max": [
        1.0,
        1.0
      ],
      "min": [
        0.0,
        0.0
      ]
    },
    {
      "bufferView": 19,
      "componentType": 5121,
      "count": 6,
      "type": "SCALAR",
      "max": [
        3.0
      ],
      "min": [
        0.0
      ]
    }
  ],
  "asset": {
    "version": "2.0"
  },
  "buffers": [
    {
      "uri": "robot_head.bin",
      "byteLength": 607170
    }
  ],
  "bufferViews": [
    {
      "buffer": 0,
      "byteLength": 124812
    },
    {
      "buffer": 0,
      "byteOffset": 124812,
      "byteLength": 124812
    },
    {
      "buffer": 0,
      "byteOffset": 249624,
      "byteLength": 166416
    },
    {
      "buffer": 0,
      "byteOffset": 416040,
      "byteLength": 83208
    },
    {
      "buffer": 0,
      "byteOffset": 499248,
      "byteLength": 30720
    },
    {
      "buffer": 0,
      "byteOffset": 529968,
      "byteLength": 12288
    },
    {
      "buffer": 0,
      "byteOffset": 542256,
      "byteLength": 3072
    },
    {
      "buffer": 0,
      "byteOffset": 545328,
      "byteLength": 61440
    },
    {
      "buffer": 0,
      "byteOffset": 606768,
      "byteLength": 48
    },
    {
      "buffer": 0,
      "byteOffset": 606816,
      "byteLength": 48
    },
    {
      "buffer": 0,
      "byteOffset": 606864,
      "byteLength": 32
    },
    {
      "buffer": 0,
      "byteOffset": 606896,
      "byteLength": 6
    },
    {
      "buffer": 0,
      "byteOffset": 606902,
      "byteLength": 48
    },
    {
      "buffer": 0,
      "byteOffset": 606950,
      "byteLength": 48
    },
    {
      "buffer": 0,
      "byteOffset": 606998,
      "byteLength": 32
    },
    {
      "buffer": 0,
      "byteOffset": 607030,
      "byteLength": 6
    },
    {
      "buffer": 0,
      "byteOffset": 607036,
      "byteLength": 48
    },
    {
      "buffer": 0,
      "byteOffset": 607084,
      "byteLength": 48
    },
    {
      "buffer": 0,
      "byteOffset": 607132,
      "byteLength": 32
    },
    {
      "buffer": 0,
      "byteOffset": 607164,
      "byteLength": 6
    }
  ],
  "images": [
    {
      "uri": "371857150Left_EyeMain.png",
      "name": "Left_Eye"
    },
    {
      "uri": "371857150Right_EyeMain.png",
      "name": "Right_Eye"
    },
    {
      "uri": "371857150MouthHappyMain.png",
      "name": "MouthHappy"
    }
  ],
  "materials": [
    {
      "pbrMetallicRoughness": {
        "baseColorFactor": [
          0.9063317,
          0.9063317,
          0.9063317,
          1.0
        ],
        "metallicFactor": 0.0,
        "roughnessFactor": 0.10000002384185791
      },
      "name": "Putih"
    },
    {
      "pbrMetallicRoughness": {
        "baseColorFactor": [
          0.0,
          0.0,
          0.0,
          1.0
        ],
        "metallicFactor": 0.0
      },
      "name": "Material.006"
    },
    {
      "pbrMetallicRoughness": {
        "baseColorFactor": [
          0.9063317,
          0.9063317,
          0.9063317,
          1.0
        ],
        "metallicFactor": 0.0,
        "roughnessFactor": 0.40000003576278687
      },
      "name": "Material.002"
    },
    {
      "pbrMetallicRoughness": {
        "baseColorTexture": {
          "index": 0
        },
        "metallicFactor": 0.0
      },
      "alphaMode": "BLEND",
      "doubleSided": true,
      "name": "Hidden/Cognitive/Canvas Export Shader"
    },
    {
      "pbrMetallicRoughness": {
        "baseColorTexture": {
          "index": 1
        },
        "metallicFactor": 0.0
      },
      "alphaMode": "BLEND",
      "doubleSided": true,
      "name": "Hidden/Cognitive/Canvas Export Shader"
    },
    {
      "pbrMetallicRoughness": {
        "baseColorTexture": {
          "index": 2
        },
        "metallicFactor": 0.0
      },
      "alphaMode": "BLEND",
      "doubleSided": true,
      "name": "Hidden/Cognitive/Canvas Export Shader"
    }
  ],
  "meshes": [
    {
      "primitives": [
        {
          "attributes": {
            "POSITION": 0,
            "NORMAL": 1,
            "TANGENT": 2,
            "TEXCOORD_0": 3
          },
          "indices": 4,
          "material": 0
        },
        {
          "attributes": {
            "POSITION": 0,
            "NORMAL": 1,
            "TANGENT": 2,
            "TEXCOORD_0": 3
          },
          "indices": 5,
          "material": 1
        },
        {
          "attributes": {
            "POSITION": 0,
            "NORMAL": 1,
            "TANGENT": 2,
            "TEXCOORD_0": 3
          },
          "indices": 6,
          "material": 1
        },
        {
          "attributes": {
            "POSITION": 0,
            "NORMAL": 1,
            "TANGENT": 2,
            "TEXCOORD_0": 3
          },
          "indices": 7,
          "material": 2
        }
      ],
      "name": "Backup body.001"
    },
    {
      "primitives": [
        {
          "attributes": {
            "POSITION": 8,
            "NORMAL": 9,
            "TEXCOORD_0": 10
          },
          "indices": 11,
          "material": 3
        }
      ],
      "name": "Left Eye"
    },
    {
      "primitives": [
        {
          "attributes": {
            "POSITION": 12,
            "NORMAL": 13,
            "TEXCOORD_0": 14
          },
          "indices": 15,
          "material": 4
        }
      ],
      "name": "Right Eye"
    },
    {
      "primitives": [
        {
          "attributes": {
            "POSITION": 16,
            "NORMAL": 17,
            "TEXCOORD_0": 18
          },
          "indices": 19,
          "material": 5
        }
      ],
      "name": "MouthHappy"
    }
  ],
  "nodes": [
    {
      "children": [
        1
      ],
      "name": "Robot Head"
    },
    {
      "children": [
        2,
        3
      ],
      "name": "Backup body.001"
    },
    {
      "mesh": 0,
      "rotation": [
        -0.7071068,
        0.0,
        0.0,
        0.7071067
      ],
      "scale": [
        30.0,
        30.0,
        30.0
      ],
      "translation": [
        0.0,
        -0.933,
        0.0
      ],
      "name": "Backup body.001"
    },
    {
      "children": [
        4,
        7,
        10
      ],
      "name": "Expression"
    },
    {
      "children": [
        5,
        6
      ],
      "rotation": [
        -0.1234611,
        -0.137463048,
        -0.00681868475,
        0.98275876
      ],
      "scale": [
        0.0014999999,
        0.0015,
        0.0014999999
      ],
      "translation": [
        -0.1078,
        0.0581,
        0.213100448
      ],
      "name": "Left Eye"
    },
    {
      "name": "RawImage"
    },
    {
      "mesh": 1,
      "translation": [
        0.0006357829,
        169333.344,
        0.005086263
      ],
      "name": "Left Eye"
    },
    {
      "children": [
        8,
        9
      ],
      "rotation": [
        -0.123464562,
        0.137464151,
        0.0068177944,
        0.982758164
      ],
      "scale": [
        0.0015,
        0.00150000013,
        0.0014999999
      ],
      "translation": [
        0.1078,
        0.0581,
        0.213100478
      ],
      "name": "Right Eye"
    },
    {
      "name": "RawImage"
    },
    {
      "mesh": 2,
      "translation": [
        -0.00127156579,
        169333.313,
        -0.005086263
      ],
      "name": "Right Eye"
    },
    {
      "children": [
        11
      ],
      "name": "HappyFace"
    },
    {
      "children": [
        12,
        13
      ],
      "rotation": [
        0.00379449828,
        0.0,
        -1.28056843E-09,
        0.9999928
      ],
      "scale": [
        0.002,
        0.00200000056,
        0.0015
      ],
      "translation": [
        0.0,
        0.0167,
        0.232900649
      ],
      "name": "MouthHappy"
    },
    {
      "name": "RawImage"
    },
    {
      "mesh": 3,
      "translation": [
        0.0,
        126999.961,
        7.947286E-05
      ],
      "name": "MouthHappy"
    }
  ],
  "samplers": [
    {}
  ],
  "scene": 0,
  "scenes": [
    {
      "nodes": [
        0
      ],
      "name": "robot_head"
    }
  ],
  "textures": [
    {
      "sampler": 0,
      "source": 0,
      "name": "371857150Left_EyeMain"
    },
    {
      "sampler": 0,
      "source": 1,
      "name": "371857150Right_EyeMain"
    },
    {
      "sampler": 0,
      "source": 2,
      "name": "371857150MouthHappyMain"
    }
  ]
}