{
  "extensionsUsed": [
    "KHR_lights_punctual"
  ],
  "accessors": [
    {
      "bufferView": 0,
      "componentType": 5126,
      "count": 2149,
      "type": "VEC3",
      "max": [
        16.488096237182617,
        7.4034042358398438,
        15.27326488494873
      ],
      "min": [
        -16.080808639526367,
        -0.0056032603606581688,
        -16.842363357543945
      ]
    },
    {
      "bufferView": 1,
      "componentType": 5126,
      "count": 2149,
      "type": "VEC3",
      "max": [
        1.0,
        1.0,
        1.0
      ],
      "min": [
        -1.0,
        -1.0,
        -1.0
      ]
    },
    {
      "bufferView": 2,
      "componentType": 5126,
      "count": 2149,
      "type": "VEC4",
      "max": [
        1.0,
        1.0,
        1.0,
        1.0
      ],
      "min": [
        -1.0,
        -1.0,
        -1.0,
        -1.0
      ]
    },
    {
      "bufferView": 3,
      "componentType": 5126,
      "count": 2149,
      "type": "VEC2",
      "max": [
        0.89201545715332031,
        0.74576783180236816
      ],
      "min": [
        0.26792648434638977,
        0.064555823802948
      ]
    },
    {
      "bufferView": 4,
      "componentType": 5126,
      "count": 2149,
      "type": "VEC2",
      "max": [
        0.880250096321106,
        1.0
      ],
      "min": [
        0.0,
        0.48151105642318726
      ]
    },
    {
      "bufferView": 5,
      "componentType": 5123,
      "count": 4326,
      "type": "SCALAR",
      "max": [
        2148.0
      ],
      "min": [
        0.0
      ]
    }
  ],
  "asset": {
    "version": "2.0"
  },
  "buffers": [
    {
      "uri": "castle_004.bin",
      "byteLength": 128996
    }
  ],
  "bufferViews": [
    {
      "buffer": 0,
      "byteLength": 25788
    },
    {
      "buffer": 0,
      "byteOffset": 25788,
      "byteLength": 25788
    },
    {
      "buffer": 0,
      "byteOffset": 51576,
      "byteLength": 34384
    },
    {
      "buffer": 0,
      "byteOffset": 85960,
      "byteLength": 17192
    },
    {
      "buffer": 0,
      "byteOffset": 103152,
      "byteLength": 17192
    },
    {
      "buffer": 0,
      "byteOffset": 120344,
      "byteLength": 8652
    }
  ],
  "images": [
    {
      "uri": "1124351310TextureMain.png",
      "name": "Texture"
    }
  ],
  "materials": [
    {
      "pbrMetallicRoughness": {
        "baseColorTexture": {
          "index": 0
        },
        "metallicFactor": 0.0,
        "roughnessFactor": 0.5
      },
      "name": "Main_Materials"
    }
  ],
  "meshes": [
    {
      "primitives": [
        {
          "attributes": {
            "POSITION": 0,
            "NORMAL": 1,
            "TANGENT": 2,
            "TEXCOORD_0": 3,
            "TEXCOORD_1": 4
          },
          "indices": 5,
          "material": 0
        }
      ],
      "name": "castle_004"
    }
  ],
  "nodes": [
    {
      "mesh": 0,
      "name": "castle_004"
    }
  ],
  "samplers": [
    {}
  ],
  "scene": 0,
  "scenes": [
    {
      "nodes": [
        0
      ],
      "name": "castle_004"
    }
  ],
  "textures": [
    {
      "sampler": 0,
      "source": 0,
      "name": "1124351310TextureMain"
    }
  ]
}