{
  "extensionsUsed": [
    "KHR_lights_punctual"
  ],
  "accessors": [
    {
      "bufferView": 0,
      "componentType": 5126,
      "count": 1145,
      "type": "VEC3",
      "max": [
        1.4362930059432983,
        1.034833550453186,
        1.4360549449920654
      ],
      "min": [
        -1.4358639717102051,
        -0.28570097684860229,
        -1.43608820438385
      ]
    },
    {
      "bufferView": 1,
      "componentType": 5126,
      "count": 1145,
      "type": "VEC3",
      "max": [
        1.0,
        1.0,
        1.0
      ],
      "min": [
        -1.0,
        -1.0,
        -1.0
      ]
    },
    {
      "bufferView": 2,
      "componentType": 5126,
      "count": 1145,
      "type": "VEC4",
      "max": [
        0.99999392032623291,
        1.0,
        1.0,
        1.0
      ],
      "min": [
        -1.0,
        -1.0,
        -0.9999929666519165,
        -1.0
      ]
    },
    {
      "bufferView": 3,
      "componentType": 5126,
      "count": 1145,
      "type": "VEC2",
      "max": [
        0.876189112663269,
        0.42988067865371704
      ],
      "min": [
        0.26951348781585693,
        0.022290349006652832
      ]
    },
    {
      "bufferView": 4,
      "componentType": 5123,
      "count": 3525,
      "type": "SCALAR",
      "max": [
        1097.0
      ],
      "min": [
        0.0
      ]
    },
    {
      "bufferView": 5,
      "componentType": 5123,
      "count": 84,
      "type": "SCALAR",
      "max": [
        1144.0
      ],
      "min": [
        1098.0
      ]
    }
  ],
  "asset": {
    "version": "2.0"
  },
  "buffers": [
    {
      "uri": "attraction_5_007.bin",
      "byteLength": 62178
    }
  ],
  "bufferViews": [
    {
      "buffer": 0,
      "byteLength": 13740
    },
    {
      "buffer": 0,
      "byteOffset": 13740,
      "byteLength": 13740
    },
    {
      "buffer": 0,
      "byteOffset": 27480,
      "byteLength": 18320
    },
    {
      "buffer": 0,
      "byteOffset": 45800,
      "byteLength": 9160
    },
    {
      "buffer": 0,
      "byteOffset": 54960,
      "byteLength": 7050
    },
    {
      "buffer": 0,
      "byteOffset": 62010,
      "byteLength": 168
    }
  ],
  "images": [
    {
      "uri": "1124351310TextureMain.png",
      "name": "Texture"
    }
  ],
  "materials": [
    {
      "pbrMetallicRoughness": {
        "baseColorTexture": {
          "index": 0
        },
        "metallicFactor": 0.0,
        "roughnessFactor": 0.5
      },
      "name": "Main_Materials"
    },
    {
      "pbrMetallicRoughness": {
        "metallicFactor": 0.0,
        "roughnessFactor": 0.5
      },
      "name": "emission"
    }
  ],
  "meshes": [
    {
      "primitives": [
        {
          "attributes": {
            "POSITION": 0,
            "NORMAL": 1,
            "TANGENT": 2,
            "TEXCOORD_0": 3
          },
          "indices": 4,
          "material": 0
        },
        {
          "attributes": {
            "POSITION": 0,
            "NORMAL": 1,
            "TANGENT": 2,
            "TEXCOORD_0": 3
          },
          "indices": 5,
          "material": 1
        }
      ],
      "name": "attraction_5_007"
    }
  ],
  "nodes": [
    {
      "mesh": 0,
      "name": "attraction_5_007"
    }
  ],
  "samplers": [
    {}
  ],
  "scene": 0,
  "scenes": [
    {
      "nodes": [
        0
      ],
      "name": "attraction_5_007"
    }
  ],
  "textures": [
    {
      "sampler": 0,
      "source": 0,
      "name": "1124351310TextureMain"
    }
  ]
}