{
  "extensionsUsed": [
    "KHR_lights_punctual"
  ],
  "accessors": [
    {
      "bufferView": 0,
      "componentType": 5126,
      "count": 6206,
      "type": "VEC3",
      "max": [
        1.7036162614822388,
        3.93861985206604,
        1.0088115930557251
      ],
      "min": [
        -1.703636646270752,
        -4.1674894646348548E-07,
        -0.97635799646377563
      ]
    },
    {
      "bufferView": 1,
      "componentType": 5126,
      "count": 6206,
      "type": "VEC3",
      "max": [
        1.0,
        1.0,
        1.0
      ],
      "min": [
        -1.0,
        -1.0,
        -1.0
      ]
    },
    {
      "bufferView": 2,
      "componentType": 5126,
      "count": 6206,
      "type": "VEC4",
      "max": [
        1.0,
        1.0,
        1.0,
        1.0
      ],
      "min": [
        -1.0,
        -1.0,
        -1.0,
        -1.0
      ]
    },
    {
      "bufferView": 3,
      "componentType": 5126,
      "count": 6206,
      "type": "VEC2",
      "max": [
        0.888130784034729,
        0.42685508728027344
      ],
      "min": [
        0.056991659104824066,
        0.018049359321594238
      ]
    },
    {
      "bufferView": 4,
      "componentType": 5123,
      "count": 8289,
      "type": "SCALAR",
      "max": [
        3258.0
      ],
      "min": [
        0.0
      ]
    },
    {
      "bufferView": 5,
      "componentType": 5123,
      "count": 7260,
      "type": "SCALAR",
      "max": [
        6205.0
      ],
      "min": [
        3259.0
      ]
    }
  ],
  "asset": {
    "version": "2.0"
  },
  "buffers": [
    {
      "uri": "stall_002.bin",
      "byteLength": 328986
    }
  ],
  "bufferViews": [
    {
      "buffer": 0,
      "byteLength": 74472
    },
    {
      "buffer": 0,
      "byteOffset": 74472,
      "byteLength": 74472
    },
    {
      "buffer": 0,
      "byteOffset": 148944,
      "byteLength": 99296
    },
    {
      "buffer": 0,
      "byteOffset": 248240,
      "byteLength": 49648
    },
    {
      "buffer": 0,
      "byteOffset": 297888,
      "byteLength": 16578
    },
    {
      "buffer": 0,
      "byteOffset": 314466,
      "byteLength": 14520
    }
  ],
  "images": [
    {
      "uri": "1124351310TextureMain.png",
      "name": "Texture"
    }
  ],
  "materials": [
    {
      "pbrMetallicRoughness": {
        "baseColorTexture": {
          "index": 0
        },
        "metallicFactor": 0.0,
        "roughnessFactor": 0.5
      },
      "name": "Main_Materials"
    },
    {
      "pbrMetallicRoughness": {
        "metallicFactor": 0.0,
        "roughnessFactor": 0.5
      },
      "name": "emission"
    }
  ],
  "meshes": [
    {
      "primitives": [
        {
          "attributes": {
            "POSITION": 0,
            "NORMAL": 1,
            "TANGENT": 2,
            "TEXCOORD_0": 3
          },
          "indices": 4,
          "material": 0
        },
        {
          "attributes": {
            "POSITION": 0,
            "NORMAL": 1,
            "TANGENT": 2,
            "TEXCOORD_0": 3
          },
          "indices": 5,
          "material": 1
        }
      ],
      "name": "stall_002"
    }
  ],
  "nodes": [
    {
      "mesh": 0,
      "name": "stall_002"
    }
  ],
  "samplers": [
    {}
  ],
  "scene": 0,
  "scenes": [
    {
      "nodes": [
        0
      ],
      "name": "stall_002"
    }
  ],
  "textures": [
    {
      "sampler": 0,
      "source": 0,
      "name": "1124351310TextureMain"
    }
  ]
}