{
  "extensionsUsed": [
    "KHR_lights_punctual"
  ],
  "accessors": [
    {
      "bufferView": 0,
      "componentType": 5126,
      "count": 1951,
      "type": "VEC3",
      "max": [
        2.2661230564117432,
        7.0325970649719238,
        7.8309483528137207
      ],
      "min": [
        -2.2661046981811523,
        -0.028212720528244972,
        -7.8309464454650879
      ]
    },
    {
      "bufferView": 1,
      "componentType": 5126,
      "count": 1951,
      "type": "VEC3",
      "max": [
        0.99994909763336182,
        0.99962568283081055,
        0.99440282583236694
      ],
      "min": [
        -0.99950754642486572,
        -0.99978095293045044,
        -0.99973660707473755
      ]
    },
    {
      "bufferView": 2,
      "componentType": 5126,
      "count": 1951,
      "type": "VEC4",
      "max": [
        0.99984443187713623,
        0.99979788064956665,
        0.99996447563171387,
        1.0
      ],
      "min": [
        -1.0,
        -0.999998927116394,
        -0.99999558925628662,
        -1.0
      ]
    },
    {
      "bufferView": 3,
      "componentType": 5126,
      "count": 1951,
      "type": "VEC2",
      "max": [
        0.890927255153656,
        0.66540694236755371
      ],
      "min": [
        0.82173138856887817,
        0.11543166637420654
      ]
    },
    {
      "bufferView": 4,
      "componentType": 5123,
      "count": 7368,
      "type": "SCALAR",
      "max": [
        1950.0
      ],
      "min": [
        0.0
      ]
    }
  ],
  "asset": {
    "version": "2.0"
  },
  "buffers": [
    {
      "uri": "dinosaur_004.bin",
      "byteLength": 108384
    }
  ],
  "bufferViews": [
    {
      "buffer": 0,
      "byteLength": 23412
    },
    {
      "buffer": 0,
      "byteOffset": 23412,
      "byteLength": 23412
    },
    {
      "buffer": 0,
      "byteOffset": 46824,
      "byteLength": 31216
    },
    {
      "buffer": 0,
      "byteOffset": 78040,
      "byteLength": 15608
    },
    {
      "buffer": 0,
      "byteOffset": 93648,
      "byteLength": 14736
    }
  ],
  "images": [
    {
      "uri": "1124351310TextureMain.png",
      "name": "Texture"
    }
  ],
  "materials": [
    {
      "pbrMetallicRoughness": {
        "baseColorTexture": {
          "index": 0
        },
        "metallicFactor": 0.0,
        "roughnessFactor": 0.5
      },
      "name": "Main_Materials"
    }
  ],
  "meshes": [
    {
      "primitives": [
        {
          "attributes": {
            "POSITION": 0,
            "NORMAL": 1,
            "TANGENT": 2,
            "TEXCOORD_0": 3
          },
          "indices": 4,
          "material": 0
        }
      ],
      "name": "dinosaur_004"
    }
  ],
  "nodes": [
    {
      "mesh": 0,
      "name": "dinosaur_004"
    }
  ],
  "samplers": [
    {}
  ],
  "scene": 0,
  "scenes": [
    {
      "nodes": [
        0
      ],
      "name": "dinosaur_004"
    }
  ],
  "textures": [
    {
      "sampler": 0,
      "source": 0,
      "name": "1124351310TextureMain"
    }
  ]
}