{
  "extensionsUsed": [
    "KHR_lights_punctual"
  ],
  "accessors": [
    {
      "bufferView": 0,
      "componentType": 5126,
      "count": 760,
      "type": "VEC3",
      "max": [
        10.288617134094238,
        26.772268295288086,
        26.772262573242188
      ],
      "min": [
        1.6897260479709075E-07,
        -26.772274017333984,
        -26.772262573242188
      ]
    },
    {
      "bufferView": 1,
      "componentType": 5126,
      "count": 760,
      "type": "VEC3",
      "max": [
        1.0,
        0.9995759129524231,
        0.9995759129524231
      ],
      "min": [
        -1.0,
        -0.9995759129524231,
        -0.9995759129524231
      ]
    },
    {
      "bufferView": 2,
      "componentType": 5126,
      "count": 760,
      "type": "VEC4",
      "max": [
        1.0,
        0.9995759129524231,
        0.9995759129524231,
        1.0
      ],
      "min": [
        -1.0,
        -0.9995759129524231,
        -0.9995759129524231,
        -1.0
      ]
    },
    {
      "bufferView": 3,
      "componentType": 5126,
      "count": 760,
      "type": "VEC2",
      "max": [
        2.0,
        0.99190878868103027
      ],
      "min": [
        -1.0,
        0.0080912113189697266
      ]
    },
    {
      "bufferView": 4,
      "componentType": 5121,
      "count": 24,
      "type": "SCALAR",
      "max": [
        15.0
      ],
      "min": [
        0.0
      ]
    },
    {
      "bufferView": 5,
      "componentType": 5123,
      "count": 1080,
      "type": "SCALAR",
      "max": [
        735.0
      ],
      "min": [
        16.0
      ]
    },
    {
      "bufferView": 6,
      "componentType": 5123,
      "count": 36,
      "type": "SCALAR",
      "max": [
        759.0
      ],
      "min": [
        736.0
      ]
    }
  ],
  "asset": {
    "version": "2.0"
  },
  "buffers": [
    {
      "uri": "windmillblades.bin",
      "byteLength": 38736
    }
  ],
  "bufferViews": [
    {
      "buffer": 0,
      "byteLength": 9120
    },
    {
      "buffer": 0,
      "byteOffset": 9120,
      "byteLength": 9120
    },
    {
      "buffer": 0,
      "byteOffset": 18240,
      "byteLength": 12160
    },
    {
      "buffer": 0,
      "byteOffset": 30400,
      "byteLength": 6080
    },
    {
      "buffer": 0,
      "byteOffset": 36480,
      "byteLength": 24
    },
    {
      "buffer": 0,
      "byteOffset": 36504,
      "byteLength": 2160
    },
    {
      "buffer": 0,
      "byteOffset": 38664,
      "byteLength": 72
    }
  ],
  "images": [
    {
      "uri": "498533385T_Hay_Cards_CMain.png",
      "name": "T_Hay_Cards_C"
    },
    {
      "uri": "540049250T_WoodTrim_02_CMain.png",
      "name": "T_WoodTrim_02_C"
    },
    {
      "uri": "761451313T_TrimMetal_CMain.png",
      "name": "T_TrimMetal_C"
    }
  ],
  "materials": [
    {
      "pbrMetallicRoughness": {
        "baseColorTexture": {
          "index": 0
        },
        "metallicFactor": 0.0
      },
      "alphaMode": "MASK",
      "name": "M_WindmillCloth"
    },
    {
      "pbrMetallicRoughness": {
        "baseColorTexture": {
          "index": 1
        },
        "metallicFactor": 0.0
      },
      "name": "M_WoodTrim"
    },
    {
      "pbrMetallicRoughness": {
        "baseColorTexture": {
          "index": 2
        },
        "metallicFactor": 0.0
      },
      "name": "M_MetalTrim"
    }
  ],
  "meshes": [
    {
      "primitives": [
        {
          "attributes": {
            "POSITION": 0,
            "NORMAL": 1,
            "TANGENT": 2,
            "TEXCOORD_0": 3
          },
          "indices": 4,
          "material": 0
        },
        {
          "attributes": {
            "POSITION": 0,
            "NORMAL": 1,
            "TANGENT": 2,
            "TEXCOORD_0": 3
          },
          "indices": 5,
          "material": 1
        },
        {
          "attributes": {
            "POSITION": 0,
            "NORMAL": 1,
            "TANGENT": 2,
            "TEXCOORD_0": 3
          },
          "indices": 6,
          "material": 2
        }
      ],
      "name": "SM_Windmill_Sail (1)"
    }
  ],
  "nodes": [
    {
      "children": [
        1
      ],
      "name": "WindmillBlades"
    },
    {
      "mesh": 0,
      "translation": [
        0.58,
        -2.98413086,
        0.0
      ],
      "name": "SM_Windmill_Sail (1)"
    }
  ],
  "samplers": [
    {}
  ],
  "scene": 0,
  "scenes": [
    {
      "nodes": [
        0
      ],
      "name": "windmillblades"
    }
  ],
  "textures": [
    {
      "sampler": 0,
      "source": 0,
      "name": "498533385T_Hay_Cards_CMain"
    },
    {
      "sampler": 0,
      "source": 1,
      "name": "540049250T_WoodTrim_02_CMain"
    },
    {
      "sampler": 0,
      "source": 2,
      "name": "761451313T_TrimMetal_CMain"
    }
  ]
}