{
  "extensionsUsed": [
    "KHR_lights_punctual"
  ],
  "accessors": [
    {
      "bufferView": 0,
      "componentType": 5126,
      "count": 1343,
      "type": "VEC3",
      "max": [
        6.0223650932312012,
        1.3515211343765259,
        6.0223736763000488
      ],
      "min": [
        -6.0223636627197266,
        -9.8116913704870967E-07,
        -6.0223631858825684
      ]
    },
    {
      "bufferView": 1,
      "componentType": 5126,
      "count": 1343,
      "type": "VEC3",
      "max": [
        1.0,
        1.0,
        1.0
      ],
      "min": [
        -1.0,
        -0.99858486652374268,
        -1.0
      ]
    },
    {
      "bufferView": 2,
      "componentType": 5126,
      "count": 1343,
      "type": "VEC4",
      "max": [
        1.0,
        1.0,
        1.0,
        1.0
      ],
      "min": [
        -1.0,
        -1.0,
        -1.0,
        -1.0
      ]
    },
    {
      "bufferView": 3,
      "componentType": 5126,
      "count": 1343,
      "type": "VEC2",
      "max": [
        0.8797261118888855,
        0.42933714389801025
      ],
      "min": [
        0.021313190460205078,
        0.21455377340316772
      ]
    },
    {
      "bufferView": 4,
      "componentType": 5123,
      "count": 3456,
      "type": "SCALAR",
      "max": [
        1342.0
      ],
      "min": [
        0.0
      ]
    }
  ],
  "asset": {
    "version": "2.0"
  },
  "buffers": [
    {
      "uri": "attraction_5_001.bin",
      "byteLength": 71376
    }
  ],
  "bufferViews": [
    {
      "buffer": 0,
      "byteLength": 16116
    },
    {
      "buffer": 0,
      "byteOffset": 16116,
      "byteLength": 16116
    },
    {
      "buffer": 0,
      "byteOffset": 32232,
      "byteLength": 21488
    },
    {
      "buffer": 0,
      "byteOffset": 53720,
      "byteLength": 10744
    },
    {
      "buffer": 0,
      "byteOffset": 64464,
      "byteLength": 6912
    }
  ],
  "images": [
    {
      "uri": "1124351310TextureMain.png",
      "name": "Texture"
    }
  ],
  "materials": [
    {
      "pbrMetallicRoughness": {
        "baseColorTexture": {
          "index": 0
        },
        "metallicFactor": 0.0,
        "roughnessFactor": 0.5
      },
      "name": "Main_Materials"
    }
  ],
  "meshes": [
    {
      "primitives": [
        {
          "attributes": {
            "POSITION": 0,
            "NORMAL": 1,
            "TANGENT": 2,
            "TEXCOORD_0": 3
          },
          "indices": 4,
          "material": 0
        }
      ],
      "name": "attraction_5_001"
    }
  ],
  "nodes": [
    {
      "mesh": 0,
      "name": "attraction_5_001"
    }
  ],
  "samplers": [
    {}
  ],
  "scene": 0,
  "scenes": [
    {
      "nodes": [
        0
      ],
      "name": "attraction_5_001"
    }
  ],
  "textures": [
    {
      "sampler": 0,
      "source": 0,
      "name": "1124351310TextureMain"
    }
  ]
}