{
  "extensionsUsed": [
    "KHR_lights_punctual"
  ],
  "accessors": [
    {
      "bufferView": 0,
      "componentType": 5126,
      "count": 1957,
      "type": "VEC3",
      "max": [
        5.729374885559082,
        3.4445726871490479,
        4.6942381858825684
      ],
      "min": [
        -5.7293357849121094,
        -7.0638971010339446E-06,
        -4.6942477226257324
      ]
    },
    {
      "bufferView": 1,
      "componentType": 5126,
      "count": 1957,
      "type": "VEC3",
      "max": [
        1.0,
        1.0,
        1.0
      ],
      "min": [
        -1.0,
        -0.99900001287460327,
        -1.0
      ]
    },
    {
      "bufferView": 2,
      "componentType": 5126,
      "count": 1957,
      "type": "VEC4",
      "max": [
        1.0,
        0.99999630451202393,
        1.0,
        1.0
      ],
      "min": [
        -1.0,
        -1.0,
        -0.99999713897705078,
        1.0
      ]
    },
    {
      "bufferView": 3,
      "componentType": 5126,
      "count": 1957,
      "type": "VEC2",
      "max": [
        0.87633532285690308,
        0.66259878873825073
      ],
      "min": [
        0.37698951363563538,
        0.18392294645309448
      ]
    },
    {
      "bufferView": 4,
      "componentType": 5123,
      "count": 6456,
      "type": "SCALAR",
      "max": [
        1956.0
      ],
      "min": [
        0.0
      ]
    }
  ],
  "asset": {
    "version": "2.0"
  },
  "buffers": [
    {
      "uri": "fountain_001.bin",
      "byteLength": 106848
    }
  ],
  "bufferViews": [
    {
      "buffer": 0,
      "byteLength": 23484
    },
    {
      "buffer": 0,
      "byteOffset": 23484,
      "byteLength": 23484
    },
    {
      "buffer": 0,
      "byteOffset": 46968,
      "byteLength": 31312
    },
    {
      "buffer": 0,
      "byteOffset": 78280,
      "byteLength": 15656
    },
    {
      "buffer": 0,
      "byteOffset": 93936,
      "byteLength": 12912
    }
  ],
  "images": [
    {
      "uri": "1124351310TextureMain.png",
      "name": "Texture"
    }
  ],
  "materials": [
    {
      "pbrMetallicRoughness": {
        "baseColorTexture": {
          "index": 0
        },
        "metallicFactor": 0.0,
        "roughnessFactor": 0.5
      },
      "name": "Main_Materials"
    }
  ],
  "meshes": [
    {
      "primitives": [
        {
          "attributes": {
            "POSITION": 0,
            "NORMAL": 1,
            "TANGENT": 2,
            "TEXCOORD_0": 3
          },
          "indices": 4,
          "material": 0
        }
      ],
      "name": "fountain_001"
    }
  ],
  "nodes": [
    {
      "mesh": 0,
      "name": "fountain_001"
    }
  ],
  "samplers": [
    {}
  ],
  "scene": 0,
  "scenes": [
    {
      "nodes": [
        0
      ],
      "name": "fountain_001"
    }
  ],
  "textures": [
    {
      "sampler": 0,
      "source": 0,
      "name": "1124351310TextureMain"
    }
  ]
}