{
  "extensionsUsed": [
    "KHR_lights_punctual"
  ],
  "accessors": [
    {
      "bufferView": 0,
      "componentType": 5126,
      "count": 337,
      "type": "VEC3",
      "max": [
        1.5596435070037842,
        3.3436877727508545,
        1.3728736639022827
      ],
      "min": [
        -1.5596386194229126,
        -9.1719812189694494E-07,
        -1.3728748559951782
      ]
    },
    {
      "bufferView": 1,
      "componentType": 5126,
      "count": 337,
      "type": "VEC3",
      "max": [
        1.0,
        1.0,
        1.0
      ],
      "min": [
        -1.0,
        -1.0,
        -1.0
      ]
    },
    {
      "bufferView": 2,
      "componentType": 5126,
      "count": 337,
      "type": "VEC4",
      "max": [
        0.7621198296546936,
        1.0,
        1.0,
        1.0
      ],
      "min": [
        -1.0,
        -1.0,
        -1.0,
        1.0
      ]
    },
    {
      "bufferView": 3,
      "componentType": 5126,
      "count": 337,
      "type": "VEC2",
      "max": [
        0.87920820713043213,
        0.31924402713775635
      ],
      "min": [
        0.3699529767036438,
        0.1230437159538269
      ]
    },
    {
      "bufferView": 4,
      "componentType": 5123,
      "count": 984,
      "type": "SCALAR",
      "max": [
        336.0
      ],
      "min": [
        0.0
      ]
    }
  ],
  "asset": {
    "version": "2.0"
  },
  "buffers": [
    {
      "uri": "ticket_stall_006.bin",
      "byteLength": 18144
    }
  ],
  "bufferViews": [
    {
      "buffer": 0,
      "byteLength": 4044
    },
    {
      "buffer": 0,
      "byteOffset": 4044,
      "byteLength": 4044
    },
    {
      "buffer": 0,
      "byteOffset": 8088,
      "byteLength": 5392
    },
    {
      "buffer": 0,
      "byteOffset": 13480,
      "byteLength": 2696
    },
    {
      "buffer": 0,
      "byteOffset": 16176,
      "byteLength": 1968
    }
  ],
  "images": [
    {
      "uri": "1124351310TextureMain.png",
      "name": "Texture"
    }
  ],
  "materials": [
    {
      "pbrMetallicRoughness": {
        "baseColorTexture": {
          "index": 0
        },
        "metallicFactor": 0.0,
        "roughnessFactor": 0.5
      },
      "name": "Main_Materials"
    }
  ],
  "meshes": [
    {
      "primitives": [
        {
          "attributes": {
            "POSITION": 0,
            "NORMAL": 1,
            "TANGENT": 2,
            "TEXCOORD_0": 3
          },
          "indices": 4,
          "material": 0
        }
      ],
      "name": "ticket_stall_006"
    }
  ],
  "nodes": [
    {
      "mesh": 0,
      "name": "ticket_stall_006"
    }
  ],
  "samplers": [
    {}
  ],
  "scene": 0,
  "scenes": [
    {
      "nodes": [
        0
      ],
      "name": "ticket_stall_006"
    }
  ],
  "textures": [
    {
      "sampler": 0,
      "source": 0,
      "name": "1124351310TextureMain"
    }
  ]
}