{
  "extensionsUsed": [
    "KHR_lights_punctual"
  ],
  "accessors": [
    {
      "bufferView": 0,
      "componentType": 5126,
      "count": 2867,
      "type": "VEC3",
      "max": [
        3.553530216217041,
        12.965141296386719,
        1.7378084659576416
      ],
      "min": [
        -3.5538549423217773,
        -2.6608810799189087E-07,
        -1.4459424018859863
      ]
    },
    {
      "bufferView": 1,
      "componentType": 5126,
      "count": 2867,
      "type": "VEC3",
      "max": [
        1.0,
        1.0,
        1.0
      ],
      "min": [
        -1.0,
        -1.0,
        -1.0
      ]
    },
    {
      "bufferView": 2,
      "componentType": 5126,
      "count": 2867,
      "type": "VEC4",
      "max": [
        1.0,
        1.0,
        1.0,
        1.0
      ],
      "min": [
        -1.0,
        -1.0,
        -1.0,
        -1.0
      ]
    },
    {
      "bufferView": 3,
      "componentType": 5126,
      "count": 2867,
      "type": "VEC2",
      "max": [
        0.88148319721221924,
        0.38675475120544434
      ],
      "min": [
        0.26489487290382385,
        0.065802156925201416
      ]
    },
    {
      "bufferView": 4,
      "componentType": 5126,
      "count": 2867,
      "type": "VEC2",
      "max": [
        0.0,
        1.0
      ],
      "min": [
        0.0,
        1.0
      ]
    },
    {
      "bufferView": 5,
      "componentType": 5123,
      "count": 7092,
      "type": "SCALAR",
      "max": [
        2862.0
      ],
      "min": [
        0.0
      ]
    },
    {
      "bufferView": 6,
      "componentType": 5123,
      "count": 6,
      "type": "SCALAR",
      "max": [
        2866.0
      ],
      "min": [
        2863.0
      ]
    }
  ],
  "asset": {
    "version": "2.0"
  },
  "buffers": [
    {
      "uri": "castle_tower_011.bin",
      "byteLength": 174748
    }
  ],
  "bufferViews": [
    {
      "buffer": 0,
      "byteLength": 34404
    },
    {
      "buffer": 0,
      "byteOffset": 34404,
      "byteLength": 34404
    },
    {
      "buffer": 0,
      "byteOffset": 68808,
      "byteLength": 45872
    },
    {
      "buffer": 0,
      "byteOffset": 114680,
      "byteLength": 22936
    },
    {
      "buffer": 0,
      "byteOffset": 137616,
      "byteLength": 22936
    },
    {
      "buffer": 0,
      "byteOffset": 160552,
      "byteLength": 14184
    },
    {
      "buffer": 0,
      "byteOffset": 174736,
      "byteLength": 12
    }
  ],
  "images": [
    {
      "uri": "1124351310TextureMain.png",
      "name": "Texture"
    }
  ],
  "materials": [
    {
      "pbrMetallicRoughness": {
        "baseColorTexture": {
          "index": 0
        },
        "metallicFactor": 0.0,
        "roughnessFactor": 0.5
      },
      "name": "Main_Materials"
    },
    {
      "pbrMetallicRoughness": {
        "metallicFactor": 0.0,
        "roughnessFactor": 0.5
      },
      "name": "emission"
    }
  ],
  "meshes": [
    {
      "primitives": [
        {
          "attributes": {
            "POSITION": 0,
            "NORMAL": 1,
            "TANGENT": 2,
            "TEXCOORD_0": 3,
            "TEXCOORD_1": 4
          },
          "indices": 5,
          "material": 0
        },
        {
          "attributes": {
            "POSITION": 0,
            "NORMAL": 1,
            "TANGENT": 2,
            "TEXCOORD_0": 3,
            "TEXCOORD_1": 4
          },
          "indices": 6,
          "material": 1
        }
      ],
      "name": "castle_tower_011"
    }
  ],
  "nodes": [
    {
      "mesh": 0,
      "name": "castle_tower_011"
    }
  ],
  "samplers": [
    {}
  ],
  "scene": 0,
  "scenes": [
    {
      "nodes": [
        0
      ],
      "name": "castle_tower_011"
    }
  ],
  "textures": [
    {
      "sampler": 0,
      "source": 0,
      "name": "1124351310TextureMain"
    }
  ]
}