{
  "extensionsUsed": [
    "KHR_lights_punctual"
  ],
  "accessors": [
    {
      "bufferView": 0,
      "componentType": 5126,
      "count": 26530,
      "type": "VEC3",
      "max": [
        10.783812522888184,
        14.774243354797363,
        10.083810806274414
      ],
      "min": [
        -9.6838092803955078,
        -0.51999950408935547,
        -4.576390266418457
      ]
    },
    {
      "bufferView": 1,
      "componentType": 5126,
      "count": 26530,
      "type": "VEC3",
      "max": [
        1.0000002384185791,
        1.0,
        1.0000002384185791
      ],
      "min": [
        -1.0000002384185791,
        -1.0,
        -1.0000002384185791
      ]
    },
    {
      "bufferView": 2,
      "componentType": 5126,
      "count": 26530,
      "type": "VEC4",
      "max": [
        1.0000002384185791,
        1.0,
        1.0000002384185791,
        1.0
      ],
      "min": [
        -1.0000002384185791,
        -1.0,
        -1.0000002384185791,
        -1.0
      ]
    },
    {
      "bufferView": 3,
      "componentType": 5126,
      "count": 26530,
      "type": "VEC2",
      "max": [
        3.0009765625,
        2.60791015625
      ],
      "min": [
        -2.43212890625,
        -1.3678648471832275
      ]
    },
    {
      "bufferView": 4,
      "componentType": 5126,
      "count": 26530,
      "type": "VEC2",
      "max": [
        1.5187332630157471,
        1.9522103071212769
      ],
      "min": [
        -1.0648585557937622,
        -1.3678648471832275
      ]
    },
    {
      "bufferView": 5,
      "componentType": 5123,
      "count": 25392,
      "type": "SCALAR",
      "max": [
        15820.0
      ],
      "min": [
        0.0
      ]
    },
    {
      "bufferView": 6,
      "componentType": 5123,
      "count": 690,
      "type": "SCALAR",
      "max": [
        16120.0
      ],
      "min": [
        15821.0
      ]
    },
    {
      "bufferView": 7,
      "componentType": 5123,
      "count": 78,
      "type": "SCALAR",
      "max": [
        16148.0
      ],
      "min": [
        16121.0
      ]
    },
    {
      "bufferView": 8,
      "componentType": 5123,
      "count": 294,
      "type": "SCALAR",
      "max": [
        16280.0
      ],
      "min": [
        16149.0
      ]
    },
    {
      "bufferView": 9,
      "componentType": 5123,
      "count": 1776,
      "type": "SCALAR",
      "max": [
        17164.0
      ],
      "min": [
        16281.0
      ]
    },
    {
      "bufferView": 10,
      "componentType": 5123,
      "count": 3387,
      "type": "SCALAR",
      "max": [
        18940.0
      ],
      "min": [
        17165.0
      ]
    },
    {
      "bufferView": 11,
      "componentType": 5123,
      "count": 7281,
      "type": "SCALAR",
      "max": [
        22132.0
      ],
      "min": [
        18941.0
      ]
    },
    {
      "bufferView": 12,
      "componentType": 5123,
      "count": 7578,
      "type": "SCALAR",
      "max": [
        26501.0
      ],
      "min": [
        22133.0
      ]
    },
    {
      "bufferView": 13,
      "componentType": 5123,
      "count": 42,
      "type": "SCALAR",
      "max": [
        26529.0
      ],
      "min": [
        26502.0
      ]
    }
  ],
  "asset": {
    "version": "2.0"
  },
  "buffers": [
    {
      "uri": "house_2x2_01_merged_(1).bin",
      "byteLength": 1578716
    }
  ],
  "bufferViews": [
    {
      "buffer": 0,
      "byteLength": 318360
    },
    {
      "buffer": 0,
      "byteOffset": 318360,
      "byteLength": 318360
    },
    {
      "buffer": 0,
      "byteOffset": 636720,
      "byteLength": 424480
    },
    {
      "buffer": 0,
      "byteOffset": 1061200,
      "byteLength": 212240
    },
    {
      "buffer": 0,
      "byteOffset": 1273440,
      "byteLength": 212240
    },
    {
      "buffer": 0,
      "byteOffset": 1485680,
      "byteLength": 50784
    },
    {
      "buffer": 0,
      "byteOffset": 1536464,
      "byteLength": 1380
    },
    {
      "buffer": 0,
      "byteOffset": 1537844,
      "byteLength": 156
    },
    {
      "buffer": 0,
      "byteOffset": 1538000,
      "byteLength": 588
    },
    {
      "buffer": 0,
      "byteOffset": 1538588,
      "byteLength": 3552
    },
    {
      "buffer": 0,
      "byteOffset": 1542140,
      "byteLength": 6774
    },
    {
      "buffer": 0,
      "byteOffset": 1548914,
      "byteLength": 14562
    },
    {
      "buffer": 0,
      "byteOffset": 1563476,
      "byteLength": 15156
    },
    {
      "buffer": 0,
      "byteOffset": 1578632,
      "byteLength": 84
    }
  ],
  "images": [
    {
      "uri": "540049250T_WoodTrim_02_CMain.png",
      "name": "T_WoodTrim_02_C"
    },
    {
      "uri": "413864656T_House_PlasterBricks_01_CMain.png",
      "name": "T_House_PlasterBricks_01_C"
    },
    {
      "uri": "413830831T_House_PlasterBricks_02_CMain.png",
      "name": "T_House_PlasterBricks_02_C"
    },
    {
      "uri": "1039729349T_Stonewall_01_CMain.png",
      "name": "T_Stonewall_01_C"
    },
    {
      "uri": "1542044607T_WoodPlanks_02_CMain.png",
      "name": "T_WoodPlanks_02_C"
    },
    {
      "uri": "856012099T_RoofTiles_01_CMain.png",
      "name": "T_RoofTiles_01_C"
    },
    {
      "uri": "761451313T_TrimMetal_CMain.png",
      "name": "T_TrimMetal_C"
    },
    {
      "uri": "1874190472T_VillageGlass_01_CMain.png",
      "name": "T_VillageGlass_01_C"
    }
  ],
  "materials": [
    {
      "pbrMetallicRoughness": {
        "baseColorTexture": {
          "index": 0
        },
        "metallicFactor": 0.0
      },
      "name": "M_WoodTrim"
    },
    {
      "pbrMetallicRoughness": {
        "baseColorTexture": {
          "index": 1
        },
        "metallicFactor": 0.0
      },
      "name": "M_House_PlasterBricks_01"
    },
    {
      "pbrMetallicRoughness": {
        "baseColorTexture": {
          "index": 2
        },
        "metallicFactor": 0.0
      },
      "name": "M_House_PlasterBricks_02"
    },
    {
      "pbrMetallicRoughness": {
        "baseColorTexture": {
          "index": 3
        },
        "metallicFactor": 0.0
      },
      "name": "M_House_StoneWall_01"
    },
    {
      "pbrMetallicRoughness": {
        "baseColorTexture": {
          "index": 4
        },
        "metallicFactor": 0.0
      },
      "name": "M_Roof_Wood"
    },
    {
      "pbrMetallicRoughness": {
        "baseColorTexture": {
          "index": 5
        },
        "metallicFactor": 0.0
      },
      "name": "M_RoofTiles_Red"
    },
    {
      "pbrMetallicRoughness": {
        "baseColorTexture": {
          "index": 6
        },
        "metallicFactor": 0.0
      },
      "name": "M_MetalTrim"
    },
    {
      "pbrMetallicRoughness": {
        "baseColorTexture": {
          "index": 7
        },
        "metallicFactor": 0.0
      },
      "alphaMode": "MASK",
      "alphaCutoff": 0.0,
      "name": "M_Glass"
    }
  ],
  "meshes": [
    {
      "primitives": [
        {
          "attributes": {
            "POSITION": 0,
            "NORMAL": 1,
            "TANGENT": 2,
            "TEXCOORD_0": 3,
            "TEXCOORD_1": 4
          },
          "indices": 5,
          "material": 0
        },
        {
          "attributes": {
            "POSITION": 0,
            "NORMAL": 1,
            "TANGENT": 2,
            "TEXCOORD_0": 3,
            "TEXCOORD_1": 4
          },
          "indices": 6,
          "material": 1
        },
        {
          "attributes": {
            "POSITION": 0,
            "NORMAL": 1,
            "TANGENT": 2,
            "TEXCOORD_0": 3,
            "TEXCOORD_1": 4
          },
          "indices": 7,
          "material": 2
        },
        {
          "attributes": {
            "POSITION": 0,
            "NORMAL": 1,
            "TANGENT": 2,
            "TEXCOORD_0": 3,
            "TEXCOORD_1": 4
          },
          "indices": 8,
          "material": 1
        },
        {
          "attributes": {
            "POSITION": 0,
            "NORMAL": 1,
            "TANGENT": 2,
            "TEXCOORD_0": 3,
            "TEXCOORD_1": 4
          },
          "indices": 9,
          "material": 3
        },
        {
          "attributes": {
            "POSITION": 0,
            "NORMAL": 1,
            "TANGENT": 2,
            "TEXCOORD_0": 3,
            "TEXCOORD_1": 4
          },
          "indices": 10,
          "material": 4
        },
        {
          "attributes": {
            "POSITION": 0,
            "NORMAL": 1,
            "TANGENT": 2,
            "TEXCOORD_0": 3,
            "TEXCOORD_1": 4
          },
          "indices": 11,
          "material": 5
        },
        {
          "attributes": {
            "POSITION": 0,
            "NORMAL": 1,
            "TANGENT": 2,
            "TEXCOORD_0": 3,
            "TEXCOORD_1": 4
          },
          "indices": 12,
          "material": 6
        },
        {
          "attributes": {
            "POSITION": 0,
            "NORMAL": 1,
            "TANGENT": 2,
            "TEXCOORD_0": 3,
            "TEXCOORD_1": 4
          },
          "indices": 13,
          "material": 7
        }
      ],
      "name": "House_2x2_01_Merged (1)"
    }
  ],
  "nodes": [
    {
      "mesh": 0,
      "name": "House_2x2_01_Merged (1)"
    }
  ],
  "samplers": [
    {}
  ],
  "scene": 0,
  "scenes": [
    {
      "nodes": [
        0
      ],
      "name": "house_2x2_01_merged_(1)"
    }
  ],
  "textures": [
    {
      "sampler": 0,
      "source": 0,
      "name": "540049250T_WoodTrim_02_CMain"
    },
    {
      "sampler": 0,
      "source": 1,
      "name": "413864656T_House_PlasterBricks_01_CMain"
    },
    {
      "sampler": 0,
      "source": 2,
      "name": "413830831T_House_PlasterBricks_02_CMain"
    },
    {
      "sampler": 0,
      "source": 3,
      "name": "1039729349T_Stonewall_01_CMain"
    },
    {
      "sampler": 0,
      "source": 4,
      "name": "1542044607T_WoodPlanks_02_CMain"
    },
    {
      "sampler": 0,
      "source": 5,
      "name": "856012099T_RoofTiles_01_CMain"
    },
    {
      "sampler": 0,
      "source": 6,
      "name": "761451313T_TrimMetal_CMain"
    },
    {
      "sampler": 0,
      "source": 7,
      "name": "1874190472T_VillageGlass_01_CMain"
    }
  ]
}