{
  "extensionsUsed": [
    "KHR_lights_punctual"
  ],
  "accessors": [
    {
      "bufferView": 0,
      "componentType": 5126,
      "count": 1145,
      "type": "VEC3",
      "max": [
        1.4519680738449097,
        1.0348328351974487,
        1.4519680738449097
      ],
      "min": [
        -1.4519696235656738,
        -0.28570157289505005,
        -1.4519833326339722
      ]
    },
    {
      "bufferView": 1,
      "componentType": 5126,
      "count": 1145,
      "type": "VEC3",
      "max": [
        0.991438627243042,
        1.0,
        0.99982351064682007
      ],
      "min": [
        -0.9959796667098999,
        -1.0,
        -0.99920278787612915
      ]
    },
    {
      "bufferView": 2,
      "componentType": 5126,
      "count": 1145,
      "type": "VEC4",
      "max": [
        0.96598410606384277,
        1.0,
        0.99999856948852539,
        1.0
      ],
      "min": [
        -0.99999904632568359,
        -1.0,
        -0.99999058246612549,
        -1.0
      ]
    },
    {
      "bufferView": 3,
      "componentType": 5126,
      "count": 1145,
      "type": "VEC2",
      "max": [
        0.876189112663269,
        0.42988067865371704
      ],
      "min": [
        0.26891031861305237,
        0.022290349006652832
      ]
    },
    {
      "bufferView": 4,
      "componentType": 5123,
      "count": 3525,
      "type": "SCALAR",
      "max": [
        1097.0
      ],
      "min": [
        0.0
      ]
    },
    {
      "bufferView": 5,
      "componentType": 5123,
      "count": 84,
      "type": "SCALAR",
      "max": [
        1144.0
      ],
      "min": [
        1098.0
      ]
    }
  ],
  "asset": {
    "version": "2.0"
  },
  "buffers": [
    {
      "uri": "attraction_5_004.bin",
      "byteLength": 62178
    }
  ],
  "bufferViews": [
    {
      "buffer": 0,
      "byteLength": 13740
    },
    {
      "buffer": 0,
      "byteOffset": 13740,
      "byteLength": 13740
    },
    {
      "buffer": 0,
      "byteOffset": 27480,
      "byteLength": 18320
    },
    {
      "buffer": 0,
      "byteOffset": 45800,
      "byteLength": 9160
    },
    {
      "buffer": 0,
      "byteOffset": 54960,
      "byteLength": 7050
    },
    {
      "buffer": 0,
      "byteOffset": 62010,
      "byteLength": 168
    }
  ],
  "images": [
    {
      "uri": "1124351310TextureMain.png",
      "name": "Texture"
    }
  ],
  "materials": [
    {
      "pbrMetallicRoughness": {
        "baseColorTexture": {
          "index": 0
        },
        "metallicFactor": 0.0,
        "roughnessFactor": 0.5
      },
      "name": "Main_Materials"
    },
    {
      "pbrMetallicRoughness": {
        "metallicFactor": 0.0,
        "roughnessFactor": 0.5
      },
      "name": "emission"
    }
  ],
  "meshes": [
    {
      "primitives": [
        {
          "attributes": {
            "POSITION": 0,
            "NORMAL": 1,
            "TANGENT": 2,
            "TEXCOORD_0": 3
          },
          "indices": 4,
          "material": 0
        },
        {
          "attributes": {
            "POSITION": 0,
            "NORMAL": 1,
            "TANGENT": 2,
            "TEXCOORD_0": 3
          },
          "indices": 5,
          "material": 1
        }
      ],
      "name": "attraction_5_004"
    }
  ],
  "nodes": [
    {
      "mesh": 0,
      "name": "attraction_5_004"
    }
  ],
  "samplers": [
    {}
  ],
  "scene": 0,
  "scenes": [
    {
      "nodes": [
        0
      ],
      "name": "attraction_5_004"
    }
  ],
  "textures": [
    {
      "sampler": 0,
      "source": 0,
      "name": "1124351310TextureMain"
    }
  ]
}