{
  "extensionsUsed": [
    "KHR_lights_punctual"
  ],
  "accessors": [
    {
      "bufferView": 0,
      "componentType": 5126,
      "count": 230,
      "type": "VEC3",
      "max": [
        2.2060818672180176,
        3.308826208114624,
        1.1259105205535889
      ],
      "min": [
        -2.2060818672180176,
        -1.5046559553866246E-07,
        -1.1259092092514038
      ]
    },
    {
      "bufferView": 1,
      "componentType": 5126,
      "count": 230,
      "type": "VEC3",
      "max": [
        1.0,
        0.99996304512023926,
        1.0
      ],
      "min": [
        -1.0,
        -0.99996304512023926,
        -0.99995946884155273
      ]
    },
    {
      "bufferView": 2,
      "componentType": 5126,
      "count": 230,
      "type": "VEC4",
      "max": [
        0.7396160364151001,
        1.0,
        1.0,
        1.0
      ],
      "min": [
        -1.0,
        -1.0,
        -1.0,
        1.0
      ]
    },
    {
      "bufferView": 3,
      "componentType": 5126,
      "count": 230,
      "type": "VEC2",
      "max": [
        0.92962074279785156,
        0.27034455537796021
      ],
      "min": [
        0.27469336986541748,
        0.11425596475601196
      ]
    },
    {
      "bufferView": 4,
      "componentType": 5121,
      "count": 594,
      "type": "SCALAR",
      "max": [
        229.0
      ],
      "min": [
        0.0
      ]
    }
  ],
  "asset": {
    "version": "2.0"
  },
  "buffers": [
    {
      "uri": "ticket_stall_001.bin",
      "byteLength": 11634
    }
  ],
  "bufferViews": [
    {
      "buffer": 0,
      "byteLength": 2760
    },
    {
      "buffer": 0,
      "byteOffset": 2760,
      "byteLength": 2760
    },
    {
      "buffer": 0,
      "byteOffset": 5520,
      "byteLength": 3680
    },
    {
      "buffer": 0,
      "byteOffset": 9200,
      "byteLength": 1840
    },
    {
      "buffer": 0,
      "byteOffset": 11040,
      "byteLength": 594
    }
  ],
  "images": [
    {
      "uri": "1124351310TextureMain.png",
      "name": "Texture"
    }
  ],
  "materials": [
    {
      "pbrMetallicRoughness": {
        "baseColorTexture": {
          "index": 0
        },
        "metallicFactor": 0.0,
        "roughnessFactor": 0.5
      },
      "name": "Main_Materials"
    }
  ],
  "meshes": [
    {
      "primitives": [
        {
          "attributes": {
            "POSITION": 0,
            "NORMAL": 1,
            "TANGENT": 2,
            "TEXCOORD_0": 3
          },
          "indices": 4,
          "material": 0
        }
      ],
      "name": "ticket_stall_001"
    }
  ],
  "nodes": [
    {
      "mesh": 0,
      "name": "ticket_stall_001"
    }
  ],
  "samplers": [
    {}
  ],
  "scene": 0,
  "scenes": [
    {
      "nodes": [
        0
      ],
      "name": "ticket_stall_001"
    }
  ],
  "textures": [
    {
      "sampler": 0,
      "source": 0,
      "name": "1124351310TextureMain"
    }
  ]
}