{
  "extensionsUsed": [
    "KHR_lights_punctual"
  ],
  "accessors": [
    {
      "bufferView": 0,
      "componentType": 5126,
      "count": 10401,
      "type": "VEC3",
      "max": [
        0.010185864754021168,
        0.00854249857366085,
        0.0403294637799263
      ],
      "min": [
        -0.010185863822698593,
        -0.0079306764528155327,
        0.023991033434867859
      ]
    },
    {
      "bufferView": 1,
      "componentType": 5126,
      "count": 10401,
      "type": "VEC3",
      "max": [
        0.99999988079071045,
        1.0,
        1.0
      ],
      "min": [
        -0.99999988079071045,
        -1.0,
        -1.0
      ]
    },
    {
      "bufferView": 2,
      "componentType": 5126,
      "count": 10401,
      "type": "VEC4",
      "max": [
        1.0,
        0.99999916553497314,
        1.0,
        1.0
      ],
      "min": [
        -1.0,
        -0.99970847368240356,
        -0.999882698059082,
        -1.0
      ]
    },
    {
      "bufferView": 3,
      "componentType": 5126,
      "count": 10401,
      "type": "VEC2",
      "max": [
        0.75000017881393433,
        0.62499994039535522
      ],
      "min": [
        0.25,
        0.12499964237213135
      ]
    },
    {
      "bufferView": 4,
      "componentType": 5123,
      "count": 15360,
      "type": "SCALAR",
      "max": [
        2797.0
      ],
      "min": [
        0.0
      ]
    },
    {
      "bufferView": 5,
      "componentType": 5123,
      "count": 6144,
      "type": "SCALAR",
      "max": [
        4045.0
      ],
      "min": [
        279.0
      ]
    },
    {
      "bufferView": 6,
      "componentType": 5123,
      "count": 1536,
      "type": "SCALAR",
      "max": [
        4351.0
      ],
      "min": [
        4046.0
      ]
    },
    {
      "bufferView": 7,
      "componentType": 5123,
      "count": 30720,
      "type": "SCALAR",
      "max": [
        10400.0
      ],
      "min": [
        4352.0
      ]
    }
  ],
  "asset": {
    "version": "2.0"
  },
  "buffers": [
    {
      "uri": "backup_body.001.bin",
      "byteLength": 606768
    }
  ],
  "bufferViews": [
    {
      "buffer": 0,
      "byteLength": 124812
    },
    {
      "buffer": 0,
      "byteOffset": 124812,
      "byteLength": 124812
    },
    {
      "buffer": 0,
      "byteOffset": 249624,
      "byteLength": 166416
    },
    {
      "buffer": 0,
      "byteOffset": 416040,
      "byteLength": 83208
    },
    {
      "buffer": 0,
      "byteOffset": 499248,
      "byteLength": 30720
    },
    {
      "buffer": 0,
      "byteOffset": 529968,
      "byteLength": 12288
    },
    {
      "buffer": 0,
      "byteOffset": 542256,
      "byteLength": 3072
    },
    {
      "buffer": 0,
      "byteOffset": 545328,
      "byteLength": 61440
    }
  ],
  "materials": [
    {
      "pbrMetallicRoughness": {
        "baseColorFactor": [
          0.9063317,
          0.9063317,
          0.9063317,
          1.0
        ],
        "metallicFactor": 0.0,
        "roughnessFactor": 0.10000002384185791
      },
      "name": "Putih"
    },
    {
      "pbrMetallicRoughness": {
        "baseColorFactor": [
          0.0,
          0.0,
          0.0,
          1.0
        ],
        "metallicFactor": 0.0
      },
      "name": "Material.006"
    },
    {
      "pbrMetallicRoughness": {
        "baseColorFactor": [
          0.9063317,
          0.9063317,
          0.9063317,
          1.0
        ],
        "metallicFactor": 0.0,
        "roughnessFactor": 0.40000003576278687
      },
      "name": "Material.002"
    }
  ],
  "meshes": [
    {
      "primitives": [
        {
          "attributes": {
            "POSITION": 0,
            "NORMAL": 1,
            "TANGENT": 2,
            "TEXCOORD_0": 3
          },
          "indices": 4,
          "material": 0
        },
        {
          "attributes": {
            "POSITION": 0,
            "NORMAL": 1,
            "TANGENT": 2,
            "TEXCOORD_0": 3
          },
          "indices": 5,
          "material": 1
        },
        {
          "attributes": {
            "POSITION": 0,
            "NORMAL": 1,
            "TANGENT": 2,
            "TEXCOORD_0": 3
          },
          "indices": 6,
          "material": 1
        },
        {
          "attributes": {
            "POSITION": 0,
            "NORMAL": 1,
            "TANGENT": 2,
            "TEXCOORD_0": 3
          },
          "indices": 7,
          "material": 2
        }
      ],
      "name": "Backup body.001"
    }
  ],
  "nodes": [
    {
      "mesh": 0,
      "name": "Backup body.001"
    }
  ],
  "scene": 0,
  "scenes": [
    {
      "nodes": [
        0
      ],
      "name": "backup_body.001"
    }
  ]
}