{
  "extensionsUsed": [
    "KHR_lights_punctual"
  ],
  "accessors": [
    {
      "bufferView": 0,
      "componentType": 5126,
      "count": 2030,
      "type": "VEC3",
      "max": [
        2.1091527938842773,
        8.9548091888427734,
        2.1942710876464844
      ],
      "min": [
        -2.1090576648712158,
        -2.3815276506411465E-07,
        -2.1942591667175293
      ]
    },
    {
      "bufferView": 1,
      "componentType": 5126,
      "count": 2030,
      "type": "VEC3",
      "max": [
        0.99981170892715454,
        0.99981898069381714,
        0.99977129697799683
      ],
      "min": [
        -0.99981206655502319,
        -0.96526658535003662,
        -0.99977093935012817
      ]
    },
    {
      "bufferView": 2,
      "componentType": 5126,
      "count": 2030,
      "type": "VEC4",
      "max": [
        1.0,
        1.0,
        1.0,
        1.0
      ],
      "min": [
        -1.0,
        -1.0,
        -0.9949689507484436,
        1.0
      ]
    },
    {
      "bufferView": 3,
      "componentType": 5126,
      "count": 2030,
      "type": "VEC2",
      "max": [
        0.87987428903579712,
        0.27006310224533081
      ],
      "min": [
        0.81894880533218384,
        0.11295878887176514
      ]
    },
    {
      "bufferView": 4,
      "componentType": 5126,
      "count": 2030,
      "type": "VEC2",
      "max": [
        0.0,
        1.0
      ],
      "min": [
        0.0,
        1.0
      ]
    },
    {
      "bufferView": 5,
      "componentType": 5123,
      "count": 5592,
      "type": "SCALAR",
      "max": [
        2029.0
      ],
      "min": [
        0.0
      ]
    }
  ],
  "asset": {
    "version": "2.0"
  },
  "buffers": [
    {
      "uri": "castle_tower_006.bin",
      "byteLength": 124864
    }
  ],
  "bufferViews": [
    {
      "buffer": 0,
      "byteLength": 24360
    },
    {
      "buffer": 0,
      "byteOffset": 24360,
      "byteLength": 24360
    },
    {
      "buffer": 0,
      "byteOffset": 48720,
      "byteLength": 32480
    },
    {
      "buffer": 0,
      "byteOffset": 81200,
      "byteLength": 16240
    },
    {
      "buffer": 0,
      "byteOffset": 97440,
      "byteLength": 16240
    },
    {
      "buffer": 0,
      "byteOffset": 113680,
      "byteLength": 11184
    }
  ],
  "images": [
    {
      "uri": "1124351310TextureMain.png",
      "name": "Texture"
    }
  ],
  "materials": [
    {
      "pbrMetallicRoughness": {
        "baseColorTexture": {
          "index": 0
        },
        "metallicFactor": 0.0,
        "roughnessFactor": 0.5
      },
      "name": "Main_Materials"
    }
  ],
  "meshes": [
    {
      "primitives": [
        {
          "attributes": {
            "POSITION": 0,
            "NORMAL": 1,
            "TANGENT": 2,
            "TEXCOORD_0": 3,
            "TEXCOORD_1": 4
          },
          "indices": 5,
          "material": 0
        }
      ],
      "name": "castle_tower_006"
    }
  ],
  "nodes": [
    {
      "mesh": 0,
      "name": "castle_tower_006"
    }
  ],
  "samplers": [
    {}
  ],
  "scene": 0,
  "scenes": [
    {
      "nodes": [
        0
      ],
      "name": "castle_tower_006"
    }
  ],
  "textures": [
    {
      "sampler": 0,
      "source": 0,
      "name": "1124351310TextureMain"
    }
  ]
}