{
  "extensionsUsed": [
    "KHR_lights_punctual"
  ],
  "accessors": [
    {
      "bufferView": 0,
      "componentType": 5126,
      "count": 1307,
      "type": "VEC3",
      "max": [
        1.464328408241272,
        16.523588180541992,
        1.539126992225647
      ],
      "min": [
        -1.4684594869613647,
        -2.1710609132696845E-07,
        -1.5796520709991455
      ]
    },
    {
      "bufferView": 1,
      "componentType": 5126,
      "count": 1307,
      "type": "VEC3",
      "max": [
        0.99999868869781494,
        1.0,
        0.99999856948852539
      ],
      "min": [
        -0.99999868869781494,
        -1.0,
        -0.99999856948852539
      ]
    },
    {
      "bufferView": 2,
      "componentType": 5126,
      "count": 1307,
      "type": "VEC4",
      "max": [
        1.0,
        1.0,
        1.0,
        1.0
      ],
      "min": [
        -1.0,
        -1.0,
        -1.0,
        -1.0
      ]
    },
    {
      "bufferView": 3,
      "componentType": 5126,
      "count": 1307,
      "type": "VEC2",
      "max": [
        0.88050448894500732,
        0.60548537969589233
      ],
      "min": [
        0.27097919583320618,
        0.065884828567504883
      ]
    },
    {
      "bufferView": 4,
      "componentType": 5126,
      "count": 1307,
      "type": "VEC2",
      "max": [
        0.0,
        1.0
      ],
      "min": [
        0.0,
        1.0
      ]
    },
    {
      "bufferView": 5,
      "componentType": 5121,
      "count": 48,
      "type": "SCALAR",
      "max": [
        31.0
      ],
      "min": [
        0.0
      ]
    },
    {
      "bufferView": 6,
      "componentType": 5123,
      "count": 3132,
      "type": "SCALAR",
      "max": [
        1306.0
      ],
      "min": [
        32.0
      ]
    }
  ],
  "asset": {
    "version": "2.0"
  },
  "buffers": [
    {
      "uri": "castle_tower_009.bin",
      "byteLength": 79504
    }
  ],
  "bufferViews": [
    {
      "buffer": 0,
      "byteLength": 15684
    },
    {
      "buffer": 0,
      "byteOffset": 15684,
      "byteLength": 15684
    },
    {
      "buffer": 0,
      "byteOffset": 31368,
      "byteLength": 20912
    },
    {
      "buffer": 0,
      "byteOffset": 52280,
      "byteLength": 10456
    },
    {
      "buffer": 0,
      "byteOffset": 62736,
      "byteLength": 10456
    },
    {
      "buffer": 0,
      "byteOffset": 73192,
      "byteLength": 48
    },
    {
      "buffer": 0,
      "byteOffset": 73240,
      "byteLength": 6264
    }
  ],
  "images": [
    {
      "uri": "1124351310TextureMain.png",
      "name": "Texture"
    }
  ],
  "materials": [
    {
      "pbrMetallicRoughness": {
        "metallicFactor": 0.0,
        "roughnessFactor": 0.5
      },
      "name": "emission"
    },
    {
      "pbrMetallicRoughness": {
        "baseColorTexture": {
          "index": 0
        },
        "metallicFactor": 0.0,
        "roughnessFactor": 0.5
      },
      "name": "Main_Materials"
    }
  ],
  "meshes": [
    {
      "primitives": [
        {
          "attributes": {
            "POSITION": 0,
            "NORMAL": 1,
            "TANGENT": 2,
            "TEXCOORD_0": 3,
            "TEXCOORD_1": 4
          },
          "indices": 5,
          "material": 0
        },
        {
          "attributes": {
            "POSITION": 0,
            "NORMAL": 1,
            "TANGENT": 2,
            "TEXCOORD_0": 3,
            "TEXCOORD_1": 4
          },
          "indices": 6,
          "material": 1
        }
      ],
      "name": "castle_tower_009"
    }
  ],
  "nodes": [
    {
      "mesh": 0,
      "name": "castle_tower_009"
    }
  ],
  "samplers": [
    {}
  ],
  "scene": 0,
  "scenes": [
    {
      "nodes": [
        0
      ],
      "name": "castle_tower_009"
    }
  ],
  "textures": [
    {
      "sampler": 0,
      "source": 0,
      "name": "1124351310TextureMain"
    }
  ]
}