{
  "extensionsUsed": [
    "KHR_lights_punctual"
  ],
  "accessors": [
    {
      "bufferView": 0,
      "componentType": 5126,
      "count": 1131,
      "type": "VEC3",
      "max": [
        1.4520336389541626,
        1.0348330736160278,
        1.4519649744033813
      ],
      "min": [
        -1.4519274234771729,
        -0.28570133447647095,
        -1.4519937038421631
      ]
    },
    {
      "bufferView": 1,
      "componentType": 5126,
      "count": 1131,
      "type": "VEC3",
      "max": [
        0.99920254945755,
        1.0,
        0.99144661426544189
      ],
      "min": [
        -0.99982482194900513,
        -1.0,
        -0.99598038196563721
      ]
    },
    {
      "bufferView": 2,
      "componentType": 5126,
      "count": 1131,
      "type": "VEC4",
      "max": [
        0.99999833106994629,
        1.0,
        0.99999105930328369,
        1.0
      ],
      "min": [
        -1.0,
        -1.0,
        -0.94693964719772339,
        1.0
      ]
    },
    {
      "bufferView": 3,
      "componentType": 5126,
      "count": 1131,
      "type": "VEC2",
      "max": [
        0.876189112663269,
        0.74530941247940063
      ],
      "min": [
        0.029775738716125488,
        0.022290349006652832
      ]
    },
    {
      "bufferView": 4,
      "componentType": 5123,
      "count": 3525,
      "type": "SCALAR",
      "max": [
        1083.0
      ],
      "min": [
        0.0
      ]
    },
    {
      "bufferView": 5,
      "componentType": 5123,
      "count": 84,
      "type": "SCALAR",
      "max": [
        1130.0
      ],
      "min": [
        1084.0
      ]
    }
  ],
  "asset": {
    "version": "2.0"
  },
  "buffers": [
    {
      "uri": "attraction_5_003.bin",
      "byteLength": 61506
    }
  ],
  "bufferViews": [
    {
      "buffer": 0,
      "byteLength": 13572
    },
    {
      "buffer": 0,
      "byteOffset": 13572,
      "byteLength": 13572
    },
    {
      "buffer": 0,
      "byteOffset": 27144,
      "byteLength": 18096
    },
    {
      "buffer": 0,
      "byteOffset": 45240,
      "byteLength": 9048
    },
    {
      "buffer": 0,
      "byteOffset": 54288,
      "byteLength": 7050
    },
    {
      "buffer": 0,
      "byteOffset": 61338,
      "byteLength": 168
    }
  ],
  "images": [
    {
      "uri": "1124351310TextureMain.png",
      "name": "Texture"
    }
  ],
  "materials": [
    {
      "pbrMetallicRoughness": {
        "baseColorTexture": {
          "index": 0
        },
        "metallicFactor": 0.0,
        "roughnessFactor": 0.5
      },
      "name": "Main_Materials"
    },
    {
      "pbrMetallicRoughness": {
        "metallicFactor": 0.0,
        "roughnessFactor": 0.5
      },
      "name": "emission"
    }
  ],
  "meshes": [
    {
      "primitives": [
        {
          "attributes": {
            "POSITION": 0,
            "NORMAL": 1,
            "TANGENT": 2,
            "TEXCOORD_0": 3
          },
          "indices": 4,
          "material": 0
        },
        {
          "attributes": {
            "POSITION": 0,
            "NORMAL": 1,
            "TANGENT": 2,
            "TEXCOORD_0": 3
          },
          "indices": 5,
          "material": 1
        }
      ],
      "name": "attraction_5_003"
    }
  ],
  "nodes": [
    {
      "mesh": 0,
      "name": "attraction_5_003"
    }
  ],
  "samplers": [
    {}
  ],
  "scene": 0,
  "scenes": [
    {
      "nodes": [
        0
      ],
      "name": "attraction_5_003"
    }
  ],
  "textures": [
    {
      "sampler": 0,
      "source": 0,
      "name": "1124351310TextureMain"
    }
  ]
}