{
  "extensionsUsed": [
    "KHR_lights_punctual"
  ],
  "accessors": [
    {
      "bufferView": 0,
      "componentType": 5126,
      "count": 5612,
      "type": "VEC3",
      "max": [
        11.97516918182373,
        17.410213470458984,
        15.818124771118164
      ],
      "min": [
        -11.975147247314453,
        -0.13586072623729706,
        -15.818124771118164
      ]
    },
    {
      "bufferView": 1,
      "componentType": 5126,
      "count": 5612,
      "type": "VEC3",
      "max": [
        0.999954104423523,
        0.99982064962387085,
        0.99986362457275391
      ],
      "min": [
        -0.999954104423523,
        -1.0,
        -0.99986362457275391
      ]
    },
    {
      "bufferView": 2,
      "componentType": 5126,
      "count": 5612,
      "type": "VEC4",
      "max": [
        1.0,
        0.99914133548736572,
        1.0,
        1.0
      ],
      "min": [
        -1.0,
        -1.0,
        -1.0,
        -1.0
      ]
    },
    {
      "bufferView": 3,
      "componentType": 5126,
      "count": 5612,
      "type": "VEC2",
      "max": [
        0.87665849924087524,
        0.33215928077697754
      ],
      "min": [
        0.026253938674926758,
        0.176862895488739
      ]
    },
    {
      "bufferView": 4,
      "componentType": 5123,
      "count": 1584,
      "type": "SCALAR",
      "max": [
        619.0
      ],
      "min": [
        0.0
      ]
    },
    {
      "bufferView": 5,
      "componentType": 5123,
      "count": 6912,
      "type": "SCALAR",
      "max": [
        5611.0
      ],
      "min": [
        620.0
      ]
    },
    {
      "bufferView": 6,
      "componentType": 5126,
      "count": 812,
      "type": "VEC3",
      "max": [
        3.59493350982666,
        20.184169769287109,
        2.1542553901672363
      ],
      "min": [
        -3.5948944091796875,
        16.656909942626953,
        -2.1542494297027588
      ]
    },
    {
      "bufferView": 7,
      "componentType": 5126,
      "count": 812,
      "type": "VEC3",
      "max": [
        1.0,
        1.0,
        1.0
      ],
      "min": [
        -1.0,
        -1.0,
        -1.0
      ]
    },
    {
      "bufferView": 8,
      "componentType": 5126,
      "count": 812,
      "type": "VEC4",
      "max": [
        1.0,
        1.0,
        1.0,
        1.0
      ],
      "min": [
        -1.0,
        -1.0,
        -0.8902474045753479,
        -1.0
      ]
    },
    {
      "bufferView": 9,
      "componentType": 5126,
      "count": 812,
      "type": "VEC2",
      "max": [
        0.87780970335006714,
        0.42106819152832031
      ],
      "min": [
        0.071792379021644592,
        0.12698745727539063
      ]
    },
    {
      "bufferView": 10,
      "componentType": 5123,
      "count": 2244,
      "type": "SCALAR",
      "max": [
        803.0
      ],
      "min": [
        0.0
      ]
    },
    {
      "bufferView": 11,
      "componentType": 5123,
      "count": 12,
      "type": "SCALAR",
      "max": [
        811.0
      ],
      "min": [
        804.0
      ]
    },
    {
      "bufferView": 12,
      "componentType": 5126,
      "count": 1080,
      "type": "VEC3",
      "max": [
        1.9680025577545166,
        1.1705737113952637,
        1.2861813306808472
      ],
      "min": [
        -1.9679635763168335,
        -17.260669708251953,
        -1.28618586063385
      ]
    },
    {
      "bufferView": 13,
      "componentType": 5126,
      "count": 1080,
      "type": "VEC3",
      "max": [
        1.0,
        1.0,
        1.0
      ],
      "min": [
        -1.0,
        -1.0,
        -1.0
      ]
    },
    {
      "bufferView": 14,
      "componentType": 5126,
      "count": 1080,
      "type": "VEC4",
      "max": [
        1.0,
        1.0,
        1.0,
        1.0
      ],
      "min": [
        -1.0,
        -0.86312025785446167,
        -1.0,
        -1.0
      ]
    },
    {
      "bufferView": 15,
      "componentType": 5126,
      "count": 1080,
      "type": "VEC2",
      "max": [
        0.78341120481491089,
        0.32110202312469482
      ],
      "min": [
        0.028079867362976074,
        0.21398180723190308
      ]
    },
    {
      "bufferView": 16,
      "componentType": 5121,
      "count": 546,
      "type": "SCALAR",
      "max": [
        218.0
      ],
      "min": [
        0.0
      ]
    },
    {
      "bufferView": 17,
      "componentType": 5123,
      "count": 1440,
      "type": "SCALAR",
      "max": [
        1079.0
      ],
      "min": [
        219.0
      ]
    },
    {
      "bufferView": 18,
      "componentType": 5126,
      "count": 12509,
      "type": "VEC3",
      "max": [
        6.4629874229431152,
        1.2569584846496582,
        6.4629840850830078
      ],
      "min": [
        -6.46298885345459,
        -1.1525905132293701,
        -6.4629831314086914
      ]
    },
    {
      "bufferView": 19,
      "componentType": 5126,
      "count": 12509,
      "type": "VEC3",
      "max": [
        1.0,
        1.0,
        1.0
      ],
      "min": [
        -1.0,
        -1.0,
        -1.0
      ]
    },
    {
      "bufferView": 20,
      "componentType": 5126,
      "count": 12509,
      "type": "VEC4",
      "max": [
        1.0,
        1.0,
        1.0,
        1.0
      ],
      "min": [
        -1.0,
        -1.0,
        -1.0,
        -1.0
      ]
    },
    {
      "bufferView": 21,
      "componentType": 5126,
      "count": 12509,
      "type": "VEC2",
      "max": [
        0.8885076642036438,
        0.43385463953018188
      ],
      "min": [
        0.024063467979431152,
        0.12754654884338379
      ]
    },
    {
      "bufferView": 22,
      "componentType": 5123,
      "count": 31200,
      "type": "SCALAR",
      "max": [
        11742.0
      ],
      "min": [
        0.0
      ]
    },
    {
      "bufferView": 23,
      "componentType": 5123,
      "count": 1296,
      "type": "SCALAR",
      "max": [
        12508.0
      ],
      "min": [
        11743.0
      ]
    }
  ],
  "asset": {
    "version": "2.0"
  },
  "buffers": [
    {
      "uri": "attraction_9_001.bin",
      "byteLength": 1050546
    }
  ],
  "bufferViews": [
    {
      "buffer": 0,
      "byteLength": 67344
    },
    {
      "buffer": 0,
      "byteOffset": 67344,
      "byteLength": 67344
    },
    {
      "buffer": 0,
      "byteOffset": 134688,
      "byteLength": 89792
    },
    {
      "buffer": 0,
      "byteOffset": 224480,
      "byteLength": 44896
    },
    {
      "buffer": 0,
      "byteOffset": 269376,
      "byteLength": 3168
    },
    {
      "buffer": 0,
      "byteOffset": 272544,
      "byteLength": 13824
    },
    {
      "buffer": 0,
      "byteOffset": 286368,
      "byteLength": 9744
    },
    {
      "buffer": 0,
      "byteOffset": 296112,
      "byteLength": 9744
    },
    {
      "buffer": 0,
      "byteOffset": 305856,
      "byteLength": 12992
    },
    {
      "buffer": 0,
      "byteOffset": 318848,
      "byteLength": 6496
    },
    {
      "buffer": 0,
      "byteOffset": 325344,
      "byteLength": 4488
    },
    {
      "buffer": 0,
      "byteOffset": 329832,
      "byteLength": 24
    },
    {
      "buffer": 0,
      "byteOffset": 329856,
      "byteLength": 12960
    },
    {
      "buffer": 0,
      "byteOffset": 342816,
      "byteLength": 12960
    },
    {
      "buffer": 0,
      "byteOffset": 355776,
      "byteLength": 17280
    },
    {
      "buffer": 0,
      "byteOffset": 373056,
      "byteLength": 8640
    },
    {
      "buffer": 0,
      "byteOffset": 381696,
      "byteLength": 546
    },
    {
      "buffer": 0,
      "byteOffset": 382242,
      "byteLength": 2880
    },
    {
      "buffer": 0,
      "byteOffset": 385122,
      "byteLength": 150108
    },
    {
      "buffer": 0,
      "byteOffset": 535230,
      "byteLength": 150108
    },
    {
      "buffer": 0,
      "byteOffset": 685338,
      "byteLength": 200144
    },
    {
      "buffer": 0,
      "byteOffset": 885482,
      "byteLength": 100072
    },
    {
      "buffer": 0,
      "byteOffset": 985554,
      "byteLength": 62400
    },
    {
      "buffer": 0,
      "byteOffset": 1047954,
      "byteLength": 2592
    }
  ],
  "images": [
    {
      "uri": "1124351310TextureMain.png",
      "name": "Texture"
    }
  ],
  "materials": [
    {
      "pbrMetallicRoughness": {
        "baseColorTexture": {
          "index": 0
        },
        "metallicFactor": 0.0,
        "roughnessFactor": 0.5
      },
      "name": "Main_Materials"
    },
    {
      "pbrMetallicRoughness": {
        "metallicFactor": 0.0,
        "roughnessFactor": 0.5
      },
      "name": "emission"
    }
  ],
  "meshes": [
    {
      "primitives": [
        {
          "attributes": {
            "POSITION": 0,
            "NORMAL": 1,
            "TANGENT": 2,
            "TEXCOORD_0": 3
          },
          "indices": 4,
          "material": 0
        },
        {
          "attributes": {
            "POSITION": 0,
            "NORMAL": 1,
            "TANGENT": 2,
            "TEXCOORD_0": 3
          },
          "indices": 5,
          "material": 1
        }
      ],
      "name": "attraction_9_001"
    },
    {
      "primitives": [
        {
          "attributes": {
            "POSITION": 6,
            "NORMAL": 7,
            "TANGENT": 8,
            "TEXCOORD_0": 9
          },
          "indices": 10,
          "material": 0
        },
        {
          "attributes": {
            "POSITION": 6,
            "NORMAL": 7,
            "TANGENT": 8,
            "TEXCOORD_0": 9
          },
          "indices": 11,
          "material": 1
        }
      ],
      "name": "attraction_9_002"
    },
    {
      "primitives": [
        {
          "attributes": {
            "POSITION": 12,
            "NORMAL": 13,
            "TANGENT": 14,
            "TEXCOORD_0": 15
          },
          "indices": 16,
          "material": 0
        },
        {
          "attributes": {
            "POSITION": 12,
            "NORMAL": 13,
            "TANGENT": 14,
            "TEXCOORD_0": 15
          },
          "indices": 17,
          "material": 1
        }
      ],
      "name": "attraction_9_003"
    },
    {
      "primitives": [
        {
          "attributes": {
            "POSITION": 18,
            "NORMAL": 19,
            "TANGENT": 20,
            "TEXCOORD_0": 21
          },
          "indices": 22,
          "material": 0
        },
        {
          "attributes": {
            "POSITION": 18,
            "NORMAL": 19,
            "TANGENT": 20,
            "TEXCOORD_0": 21
          },
          "indices": 23,
          "material": 1
        }
      ],
      "name": "attraction_9_004"
    }
  ],
  "nodes": [
    {
      "children": [
        1
      ],
      "mesh": 0,
      "name": "attraction_9_001"
    },
    {
      "children": [
        2
      ],
      "mesh": 1,
      "rotation": [
        0.0,
        7.45057946E-07,
        0.0,
        1.0
      ],
      "name": "attraction_9_002"
    },
    {
      "children": [
        3
      ],
      "mesh": 2,
      "rotation": [
        -0.4864727,
        0.0,
        0.0,
        0.87369585
      ],
      "translation": [
        0.0,
        18.0,
        0.0
      ],
      "name": "attraction_9_003"
    },
    {
      "mesh": 3,
      "translation": [
        0.0,
        -15.79,
        0.0
      ],
      "name": "attraction_9_004"
    }
  ],
  "samplers": [
    {}
  ],
  "scene": 0,
  "scenes": [
    {
      "nodes": [
        0
      ],
      "name": "attraction_9_001"
    }
  ],
  "textures": [
    {
      "sampler": 0,
      "source": 0,
      "name": "1124351310TextureMain"
    }
  ]
}