{
  "extensionsUsed": [
    "KHR_lights_punctual"
  ],
  "accessors": [
    {
      "bufferView": 0,
      "componentType": 5126,
      "count": 1726,
      "type": "VEC3",
      "max": [
        3.4099605083465576,
        6.6488571166992188,
        3.9200420379638672
      ],
      "min": [
        -3.4099397659301758,
        -9.73327701103699E-07,
        -3.9200351238250732
      ]
    },
    {
      "bufferView": 1,
      "componentType": 5126,
      "count": 1726,
      "type": "VEC3",
      "max": [
        1.0,
        1.0,
        1.0
      ],
      "min": [
        -1.0,
        -1.0,
        -1.0
      ]
    },
    {
      "bufferView": 2,
      "componentType": 5126,
      "count": 1726,
      "type": "VEC4",
      "max": [
        1.0,
        0.99979609251022339,
        1.0,
        1.0
      ],
      "min": [
        -1.0,
        -0.98284363746643066,
        -0.98120087385177612,
        -1.0
      ]
    },
    {
      "bufferView": 3,
      "componentType": 5126,
      "count": 1726,
      "type": "VEC2",
      "max": [
        0.8823884129524231,
        0.70720589160919189
      ],
      "min": [
        0.021764874458312988,
        0.210033118724823
      ]
    },
    {
      "bufferView": 4,
      "componentType": 5123,
      "count": 3246,
      "type": "SCALAR",
      "max": [
        1309.0
      ],
      "min": [
        0.0
      ]
    },
    {
      "bufferView": 5,
      "componentType": 5123,
      "count": 768,
      "type": "SCALAR",
      "max": [
        1725.0
      ],
      "min": [
        1310.0
      ]
    }
  ],
  "asset": {
    "version": "2.0"
  },
  "buffers": [
    {
      "uri": "tent_003.bin",
      "byteLength": 90876
    }
  ],
  "bufferViews": [
    {
      "buffer": 0,
      "byteLength": 20712
    },
    {
      "buffer": 0,
      "byteOffset": 20712,
      "byteLength": 20712
    },
    {
      "buffer": 0,
      "byteOffset": 41424,
      "byteLength": 27616
    },
    {
      "buffer": 0,
      "byteOffset": 69040,
      "byteLength": 13808
    },
    {
      "buffer": 0,
      "byteOffset": 82848,
      "byteLength": 6492
    },
    {
      "buffer": 0,
      "byteOffset": 89340,
      "byteLength": 1536
    }
  ],
  "images": [
    {
      "uri": "1124351310TextureMain.png",
      "name": "Texture"
    }
  ],
  "materials": [
    {
      "pbrMetallicRoughness": {
        "baseColorTexture": {
          "index": 0
        },
        "metallicFactor": 0.0,
        "roughnessFactor": 0.5
      },
      "name": "Main_Materials"
    },
    {
      "pbrMetallicRoughness": {
        "metallicFactor": 0.0,
        "roughnessFactor": 0.5
      },
      "name": "emission"
    }
  ],
  "meshes": [
    {
      "primitives": [
        {
          "attributes": {
            "POSITION": 0,
            "NORMAL": 1,
            "TANGENT": 2,
            "TEXCOORD_0": 3
          },
          "indices": 4,
          "material": 0
        },
        {
          "attributes": {
            "POSITION": 0,
            "NORMAL": 1,
            "TANGENT": 2,
            "TEXCOORD_0": 3
          },
          "indices": 5,
          "material": 1
        }
      ],
      "name": "tent_003"
    }
  ],
  "nodes": [
    {
      "mesh": 0,
      "name": "tent_003"
    }
  ],
  "samplers": [
    {}
  ],
  "scene": 0,
  "scenes": [
    {
      "nodes": [
        0
      ],
      "name": "tent_003"
    }
  ],
  "textures": [
    {
      "sampler": 0,
      "source": 0,
      "name": "1124351310TextureMain"
    }
  ]
}