{
  "extensionsUsed": [
    "KHR_lights_punctual"
  ],
  "accessors": [
    {
      "bufferView": 0,
      "componentType": 5126,
      "count": 17040,
      "type": "VEC3",
      "max": [
        8.9816064834594727,
        12.57586669921875,
        3.910097599029541
      ],
      "min": [
        -8.6578187942504883,
        -1.37198805809021,
        -3.7481269836425781
      ]
    },
    {
      "bufferView": 1,
      "componentType": 5126,
      "count": 17040,
      "type": "VEC3",
      "max": [
        1.0000001192092896,
        1.0,
        1.0000001192092896
      ],
      "min": [
        -1.0000001192092896,
        -1.0,
        -1.0000001192092896
      ]
    },
    {
      "bufferView": 2,
      "componentType": 5126,
      "count": 17040,
      "type": "VEC4",
      "max": [
        1.0000001192092896,
        1.0,
        1.0000001192092896,
        1.0
      ],
      "min": [
        -1.0000001192092896,
        -1.0,
        -1.0000001192092896,
        -1.0
      ]
    },
    {
      "bufferView": 3,
      "componentType": 5126,
      "count": 17040,
      "type": "VEC2",
      "max": [
        2.60546875,
        1.9307709932327271
      ],
      "min": [
        -2.0234375,
        -1.0780081748962402
      ]
    },
    {
      "bufferView": 4,
      "componentType": 5126,
      "count": 17040,
      "type": "VEC2",
      "max": [
        1.1056076288223267,
        1.71533203125
      ],
      "min": [
        -0.10619461536407471,
        -0.00754547119140625
      ]
    },
    {
      "bufferView": 5,
      "componentType": 5123,
      "count": 1320,
      "type": "SCALAR",
      "max": [
        655.0
      ],
      "min": [
        0.0
      ]
    },
    {
      "bufferView": 6,
      "componentType": 5123,
      "count": 12552,
      "type": "SCALAR",
      "max": [
        8366.0
      ],
      "min": [
        656.0
      ]
    },
    {
      "bufferView": 7,
      "componentType": 5123,
      "count": 306,
      "type": "SCALAR",
      "max": [
        8474.0
      ],
      "min": [
        8367.0
      ]
    },
    {
      "bufferView": 8,
      "componentType": 5123,
      "count": 192,
      "type": "SCALAR",
      "max": [
        8546.0
      ],
      "min": [
        8475.0
      ]
    },
    {
      "bufferView": 9,
      "componentType": 5123,
      "count": 72,
      "type": "SCALAR",
      "max": [
        8594.0
      ],
      "min": [
        8547.0
      ]
    },
    {
      "bufferView": 10,
      "componentType": 5123,
      "count": 2112,
      "type": "SCALAR",
      "max": [
        9706.0
      ],
      "min": [
        8595.0
      ]
    },
    {
      "bufferView": 11,
      "componentType": 5123,
      "count": 7452,
      "type": "SCALAR",
      "max": [
        12666.0
      ],
      "min": [
        9707.0
      ]
    },
    {
      "bufferView": 12,
      "componentType": 5123,
      "count": 6048,
      "type": "SCALAR",
      "max": [
        15242.0
      ],
      "min": [
        12667.0
      ]
    },
    {
      "bufferView": 13,
      "componentType": 5123,
      "count": 3654,
      "type": "SCALAR",
      "max": [
        17023.0
      ],
      "min": [
        15243.0
      ]
    },
    {
      "bufferView": 14,
      "componentType": 5123,
      "count": 24,
      "type": "SCALAR",
      "max": [
        17039.0
      ],
      "min": [
        17024.0
      ]
    }
  ],
  "asset": {
    "version": "2.0"
  },
  "buffers": [
    {
      "uri": "house_3x1_02_merged_(2).bin",
      "byteLength": 1021704
    }
  ],
  "bufferViews": [
    {
      "buffer": 0,
      "byteLength": 204480
    },
    {
      "buffer": 0,
      "byteOffset": 204480,
      "byteLength": 204480
    },
    {
      "buffer": 0,
      "byteOffset": 408960,
      "byteLength": 272640
    },
    {
      "buffer": 0,
      "byteOffset": 681600,
      "byteLength": 136320
    },
    {
      "buffer": 0,
      "byteOffset": 817920,
      "byteLength": 136320
    },
    {
      "buffer": 0,
      "byteOffset": 954240,
      "byteLength": 2640
    },
    {
      "buffer": 0,
      "byteOffset": 956880,
      "byteLength": 25104
    },
    {
      "buffer": 0,
      "byteOffset": 981984,
      "byteLength": 612
    },
    {
      "buffer": 0,
      "byteOffset": 982596,
      "byteLength": 384
    },
    {
      "buffer": 0,
      "byteOffset": 982980,
      "byteLength": 144
    },
    {
      "buffer": 0,
      "byteOffset": 983124,
      "byteLength": 4224
    },
    {
      "buffer": 0,
      "byteOffset": 987348,
      "byteLength": 14904
    },
    {
      "buffer": 0,
      "byteOffset": 1002252,
      "byteLength": 12096
    },
    {
      "buffer": 0,
      "byteOffset": 1014348,
      "byteLength": 7308
    },
    {
      "buffer": 0,
      "byteOffset": 1021656,
      "byteLength": 48
    }
  ],
  "images": [
    {
      "uri": "1039729349T_Stonewall_01_CMain.png",
      "name": "T_Stonewall_01_C"
    },
    {
      "uri": "540049250T_WoodTrim_02_CMain.png",
      "name": "T_WoodTrim_02_C"
    },
    {
      "uri": "395544113T_Plaster_03_CMain.png",
      "name": "T_Plaster_03_C"
    },
    {
      "uri": "413864656T_House_PlasterBricks_01_CMain.png",
      "name": "T_House_PlasterBricks_01_C"
    },
    {
      "uri": "1542078432T_WoodPlanks_01_CMain.png",
      "name": "T_WoodPlanks_01_C"
    },
    {
      "uri": "1542044607T_WoodPlanks_02_CMain.png",
      "name": "T_WoodPlanks_02_C"
    },
    {
      "uri": "856012099T_RoofTiles_01_CMain.png",
      "name": "T_RoofTiles_01_C"
    },
    {
      "uri": "761451313T_TrimMetal_CMain.png",
      "name": "T_TrimMetal_C"
    },
    {
      "uri": "1874190472T_VillageGlass_01_CMain.png",
      "name": "T_VillageGlass_01_C"
    }
  ],
  "materials": [
    {
      "pbrMetallicRoughness": {
        "baseColorTexture": {
          "index": 0
        },
        "metallicFactor": 0.0
      },
      "name": "M_House_StoneWall_01"
    },
    {
      "pbrMetallicRoughness": {
        "baseColorTexture": {
          "index": 1
        },
        "metallicFactor": 0.0
      },
      "name": "M_WoodTrim"
    },
    {
      "pbrMetallicRoughness": {
        "baseColorTexture": {
          "index": 2
        },
        "metallicFactor": 0.0
      },
      "name": "M_Plaster"
    },
    {
      "pbrMetallicRoughness": {
        "baseColorTexture": {
          "index": 3
        },
        "metallicFactor": 0.0
      },
      "name": "M_House_PlasterBricks_01"
    },
    {
      "pbrMetallicRoughness": {
        "baseColorTexture": {
          "index": 4
        },
        "metallicFactor": 0.0
      },
      "name": "M_FloorTiles_01"
    },
    {
      "pbrMetallicRoughness": {
        "baseColorTexture": {
          "index": 5
        },
        "metallicFactor": 0.0
      },
      "name": "M_Roof_Wood"
    },
    {
      "pbrMetallicRoughness": {
        "baseColorTexture": {
          "index": 6
        },
        "metallicFactor": 0.0
      },
      "name": "M_RoofTiles_Red"
    },
    {
      "pbrMetallicRoughness": {
        "baseColorTexture": {
          "index": 6
        },
        "metallicFactor": 0.0
      },
      "name": "M_RoofTiles_Red_NoPOM"
    },
    {
      "pbrMetallicRoughness": {
        "baseColorTexture": {
          "index": 7
        },
        "metallicFactor": 0.0
      },
      "name": "M_MetalTrim"
    },
    {
      "pbrMetallicRoughness": {
        "baseColorTexture": {
          "index": 8
        },
        "metallicFactor": 0.0
      },
      "alphaMode": "MASK",
      "alphaCutoff": 0.0,
      "name": "M_Glass"
    }
  ],
  "meshes": [
    {
      "primitives": [
        {
          "attributes": {
            "POSITION": 0,
            "NORMAL": 1,
            "TANGENT": 2,
            "TEXCOORD_0": 3,
            "TEXCOORD_1": 4
          },
          "indices": 5,
          "material": 0
        },
        {
          "attributes": {
            "POSITION": 0,
            "NORMAL": 1,
            "TANGENT": 2,
            "TEXCOORD_0": 3,
            "TEXCOORD_1": 4
          },
          "indices": 6,
          "material": 1
        },
        {
          "attributes": {
            "POSITION": 0,
            "NORMAL": 1,
            "TANGENT": 2,
            "TEXCOORD_0": 3,
            "TEXCOORD_1": 4
          },
          "indices": 7,
          "material": 2
        },
        {
          "attributes": {
            "POSITION": 0,
            "NORMAL": 1,
            "TANGENT": 2,
            "TEXCOORD_0": 3,
            "TEXCOORD_1": 4
          },
          "indices": 8,
          "material": 3
        },
        {
          "attributes": {
            "POSITION": 0,
            "NORMAL": 1,
            "TANGENT": 2,
            "TEXCOORD_0": 3,
            "TEXCOORD_1": 4
          },
          "indices": 9,
          "material": 4
        },
        {
          "attributes": {
            "POSITION": 0,
            "NORMAL": 1,
            "TANGENT": 2,
            "TEXCOORD_0": 3,
            "TEXCOORD_1": 4
          },
          "indices": 10,
          "material": 5
        },
        {
          "attributes": {
            "POSITION": 0,
            "NORMAL": 1,
            "TANGENT": 2,
            "TEXCOORD_0": 3,
            "TEXCOORD_1": 4
          },
          "indices": 11,
          "material": 6
        },
        {
          "attributes": {
            "POSITION": 0,
            "NORMAL": 1,
            "TANGENT": 2,
            "TEXCOORD_0": 3,
            "TEXCOORD_1": 4
          },
          "indices": 12,
          "material": 7
        },
        {
          "attributes": {
            "POSITION": 0,
            "NORMAL": 1,
            "TANGENT": 2,
            "TEXCOORD_0": 3,
            "TEXCOORD_1": 4
          },
          "indices": 13,
          "material": 8
        },
        {
          "attributes": {
            "POSITION": 0,
            "NORMAL": 1,
            "TANGENT": 2,
            "TEXCOORD_0": 3,
            "TEXCOORD_1": 4
          },
          "indices": 14,
          "material": 9
        }
      ],
      "name": "House_3x1_02_Merged (2)"
    }
  ],
  "nodes": [
    {
      "mesh": 0,
      "name": "House_3x1_02_Merged (2)"
    }
  ],
  "samplers": [
    {}
  ],
  "scene": 0,
  "scenes": [
    {
      "nodes": [
        0
      ],
      "name": "house_3x1_02_merged_(2)"
    }
  ],
  "textures": [
    {
      "sampler": 0,
      "source": 0,
      "name": "1039729349T_Stonewall_01_CMain"
    },
    {
      "sampler": 0,
      "source": 1,
      "name": "540049250T_WoodTrim_02_CMain"
    },
    {
      "sampler": 0,
      "source": 2,
      "name": "395544113T_Plaster_03_CMain"
    },
    {
      "sampler": 0,
      "source": 3,
      "name": "413864656T_House_PlasterBricks_01_CMain"
    },
    {
      "sampler": 0,
      "source": 4,
      "name": "1542078432T_WoodPlanks_01_CMain"
    },
    {
      "sampler": 0,
      "source": 5,
      "name": "1542044607T_WoodPlanks_02_CMain"
    },
    {
      "sampler": 0,
      "source": 6,
      "name": "856012099T_RoofTiles_01_CMain"
    },
    {
      "sampler": 0,
      "source": 7,
      "name": "761451313T_TrimMetal_CMain"
    },
    {
      "sampler": 0,
      "source": 8,
      "name": "1874190472T_VillageGlass_01_CMain"
    }
  ]
}