{
  "extensionsUsed": [
    "KHR_lights_punctual"
  ],
  "accessors": [
    {
      "bufferView": 0,
      "componentType": 5126,
      "count": 479,
      "type": "VEC3",
      "max": [
        1.6577537059783936,
        2.3438231945037842,
        1.6415722370147705
      ],
      "min": [
        -1.6577343940734863,
        -2.6744604042505671E-07,
        -1.6415722370147705
      ]
    },
    {
      "bufferView": 1,
      "componentType": 5126,
      "count": 479,
      "type": "VEC3",
      "max": [
        0.9997742772102356,
        1.0,
        0.99938833713531494
      ],
      "min": [
        -0.99977594614028931,
        -1.0,
        -0.99939143657684326
      ]
    },
    {
      "bufferView": 2,
      "componentType": 5126,
      "count": 479,
      "type": "VEC4",
      "max": [
        1.0,
        0.99999403953552246,
        0.99931633472442627,
        1.0
      ],
      "min": [
        -1.0,
        -0.99999392032623291,
        -1.0,
        -1.0
      ]
    },
    {
      "bufferView": 3,
      "componentType": 5126,
      "count": 479,
      "type": "VEC2",
      "max": [
        0.88271057605743408,
        0.2805137038230896
      ],
      "min": [
        0.37746968865394592,
        0.18258732557296753
      ]
    },
    {
      "bufferView": 4,
      "componentType": 5123,
      "count": 1623,
      "type": "SCALAR",
      "max": [
        478.0
      ],
      "min": [
        0.0
      ]
    }
  ],
  "asset": {
    "version": "2.0"
  },
  "buffers": [
    {
      "uri": "fountain_002.bin",
      "byteLength": 26238
    }
  ],
  "bufferViews": [
    {
      "buffer": 0,
      "byteLength": 5748
    },
    {
      "buffer": 0,
      "byteOffset": 5748,
      "byteLength": 5748
    },
    {
      "buffer": 0,
      "byteOffset": 11496,
      "byteLength": 7664
    },
    {
      "buffer": 0,
      "byteOffset": 19160,
      "byteLength": 3832
    },
    {
      "buffer": 0,
      "byteOffset": 22992,
      "byteLength": 3246
    }
  ],
  "images": [
    {
      "uri": "1124351310TextureMain.png",
      "name": "Texture"
    }
  ],
  "materials": [
    {
      "pbrMetallicRoughness": {
        "baseColorTexture": {
          "index": 0
        },
        "metallicFactor": 0.0,
        "roughnessFactor": 0.5
      },
      "name": "Main_Materials"
    }
  ],
  "meshes": [
    {
      "primitives": [
        {
          "attributes": {
            "POSITION": 0,
            "NORMAL": 1,
            "TANGENT": 2,
            "TEXCOORD_0": 3
          },
          "indices": 4,
          "material": 0
        }
      ],
      "name": "fountain_002"
    }
  ],
  "nodes": [
    {
      "mesh": 0,
      "name": "fountain_002"
    }
  ],
  "samplers": [
    {}
  ],
  "scene": 0,
  "scenes": [
    {
      "nodes": [
        0
      ],
      "name": "fountain_002"
    }
  ],
  "textures": [
    {
      "sampler": 0,
      "source": 0,
      "name": "1124351310TextureMain"
    }
  ]
}