{
  "extensionsUsed": [
    "KHR_lights_punctual"
  ],
  "accessors": [
    {
      "bufferView": 0,
      "componentType": 5126,
      "count": 9518,
      "type": "VEC3",
      "max": [
        6.2530174255371094,
        10.791718482971191,
        4.6790313720703125
      ],
      "min": [
        -6.153904914855957,
        -5.7326394653500756E-07,
        -4.6468548774719238
      ]
    },
    {
      "bufferView": 1,
      "componentType": 5126,
      "count": 9518,
      "type": "VEC3",
      "max": [
        1.0,
        1.0,
        1.0
      ],
      "min": [
        -1.0,
        -1.0,
        -1.0
      ]
    },
    {
      "bufferView": 2,
      "componentType": 5126,
      "count": 9518,
      "type": "VEC4",
      "max": [
        1.0,
        1.0,
        1.0,
        1.0
      ],
      "min": [
        -1.0,
        -1.0,
        -1.0,
        -1.0
      ]
    },
    {
      "bufferView": 3,
      "componentType": 5126,
      "count": 9518,
      "type": "VEC2",
      "max": [
        0.92681789398193359,
        0.86560851335525513
      ],
      "min": [
        0.020051717758178711,
        0.011818408966064453
      ]
    },
    {
      "bufferView": 4,
      "componentType": 5123,
      "count": 21882,
      "type": "SCALAR",
      "max": [
        9097.0
      ],
      "min": [
        0.0
      ]
    },
    {
      "bufferView": 5,
      "componentType": 5123,
      "count": 894,
      "type": "SCALAR",
      "max": [
        9517.0
      ],
      "min": [
        7937.0
      ]
    },
    {
      "bufferView": 6,
      "componentType": 5126,
      "count": 1918,
      "type": "VEC3",
      "max": [
        0.70384246110916138,
        2.5675082206726074,
        1.1250995397567749
      ],
      "min": [
        -0.70389461517333984,
        -1.96894973214512E-07,
        -1.1250964403152466
      ]
    },
    {
      "bufferView": 7,
      "componentType": 5126,
      "count": 1918,
      "type": "VEC3",
      "max": [
        1.0,
        1.0,
        1.0
      ],
      "min": [
        -1.0,
        -0.99770206212997437,
        -1.0
      ]
    },
    {
      "bufferView": 8,
      "componentType": 5126,
      "count": 1918,
      "type": "VEC4",
      "max": [
        1.0,
        1.0,
        1.0,
        1.0
      ],
      "min": [
        -1.0,
        -1.0,
        -1.0,
        -1.0
      ]
    },
    {
      "bufferView": 9,
      "componentType": 5126,
      "count": 1918,
      "type": "VEC2",
      "max": [
        0.92681789398193359,
        0.48262166976928711
      ],
      "min": [
        0.020890340209007263,
        0.01192551851272583
      ]
    },
    {
      "bufferView": 10,
      "componentType": 5123,
      "count": 4665,
      "type": "SCALAR",
      "max": [
        1759.0
      ],
      "min": [
        0.0
      ]
    },
    {
      "bufferView": 11,
      "componentType": 5123,
      "count": 258,
      "type": "SCALAR",
      "max": [
        1917.0
      ],
      "min": [
        1760.0
      ]
    },
    {
      "bufferView": 12,
      "componentType": 5126,
      "count": 1916,
      "type": "VEC3",
      "max": [
        0.70383238792419434,
        2.5675082206726074,
        1.1250998973846436
      ],
      "min": [
        -0.70390349626541138,
        -8.6517061959057173E-08,
        -1.1251075267791748
      ]
    },
    {
      "bufferView": 13,
      "componentType": 5126,
      "count": 1916,
      "type": "VEC3",
      "max": [
        1.0,
        1.0,
        1.0
      ],
      "min": [
        -1.0,
        -0.99769943952560425,
        -1.0
      ]
    },
    {
      "bufferView": 14,
      "componentType": 5126,
      "count": 1916,
      "type": "VEC4",
      "max": [
        1.0,
        1.0,
        1.0,
        1.0
      ],
      "min": [
        -1.0,
        -1.0,
        -1.0,
        -1.0
      ]
    },
    {
      "bufferView": 15,
      "componentType": 5126,
      "count": 1916,
      "type": "VEC2",
      "max": [
        0.92681789398193359,
        0.48262166976928711
      ],
      "min": [
        0.020890340209007263,
        0.16636234521865845
      ]
    },
    {
      "bufferView": 16,
      "componentType": 5123,
      "count": 4665,
      "type": "SCALAR",
      "max": [
        1757.0
      ],
      "min": [
        0.0
      ]
    },
    {
      "bufferView": 17,
      "componentType": 5123,
      "count": 258,
      "type": "SCALAR",
      "max": [
        1915.0
      ],
      "min": [
        1758.0
      ]
    },
    {
      "bufferView": 18,
      "componentType": 5126,
      "count": 1843,
      "type": "VEC3",
      "max": [
        0.70388138294219971,
        2.5675082206726074,
        1.1250911951065063
      ],
      "min": [
        -0.70388525724411011,
        -1.5874225312018098E-07,
        -1.1251106262207031
      ]
    },
    {
      "bufferView": 19,
      "componentType": 5126,
      "count": 1843,
      "type": "VEC3",
      "max": [
        1.0,
        1.0,
        1.0
      ],
      "min": [
        -1.0,
        -0.99954384565353394,
        -1.0
      ]
    },
    {
      "bufferView": 20,
      "componentType": 5126,
      "count": 1843,
      "type": "VEC4",
      "max": [
        1.0,
        1.0,
        1.0,
        1.0
      ],
      "min": [
        -1.0,
        -1.0,
        -1.0,
        -1.0
      ]
    },
    {
      "bufferView": 21,
      "componentType": 5126,
      "count": 1843,
      "type": "VEC2",
      "max": [
        0.89534038305282593,
        0.85642504692077637
      ],
      "min": [
        0.020051717758178711,
        0.07740318775177002
      ]
    },
    {
      "bufferView": 22,
      "componentType": 5123,
      "count": 4701,
      "type": "SCALAR",
      "max": [
        1582.0
      ],
      "min": [
        0.0
      ]
    },
    {
      "bufferView": 23,
      "componentType": 5123,
      "count": 636,
      "type": "SCALAR",
      "max": [
        1842.0
      ],
      "min": [
        565.0
      ]
    },
    {
      "bufferView": 24,
      "componentType": 5126,
      "count": 1843,
      "type": "VEC3",
      "max": [
        0.70382916927337646,
        2.5675082206726074,
        1.1250845193862915
      ],
      "min": [
        -0.70390874147415161,
        -2.0824241175887437E-07,
        -1.1251221895217896
      ]
    },
    {
      "bufferView": 25,
      "componentType": 5126,
      "count": 1843,
      "type": "VEC3",
      "max": [
        1.0,
        1.0,
        1.0
      ],
      "min": [
        -1.0,
        -0.99954259395599365,
        -1.0
      ]
    },
    {
      "bufferView": 26,
      "componentType": 5126,
      "count": 1843,
      "type": "VEC4",
      "max": [
        1.0,
        1.0,
        1.0,
        1.0
      ],
      "min": [
        -1.0,
        -1.0,
        -1.0,
        -1.0
      ]
    },
    {
      "bufferView": 27,
      "componentType": 5126,
      "count": 1843,
      "type": "VEC2",
      "max": [
        0.89534038305282593,
        0.75529962778091431
      ],
      "min": [
        0.020051717758178711,
        0.07740318775177002
      ]
    },
    {
      "bufferView": 28,
      "componentType": 5123,
      "count": 4701,
      "type": "SCALAR",
      "max": [
        1582.0
      ],
      "min": [
        0.0
      ]
    },
    {
      "bufferView": 29,
      "componentType": 5123,
      "count": 636,
      "type": "SCALAR",
      "max": [
        1842.0
      ],
      "min": [
        565.0
      ]
    },
    {
      "bufferView": 30,
      "componentType": 5126,
      "count": 1843,
      "type": "VEC3",
      "max": [
        0.7038615345954895,
        2.5675082206726074,
        1.1250532865524292
      ],
      "min": [
        -0.703894853591919,
        -1.3195808890031913E-07,
        -1.1251428127288818
      ]
    },
    {
      "bufferView": 31,
      "componentType": 5126,
      "count": 1843,
      "type": "VEC3",
      "max": [
        1.0,
        1.0,
        1.0
      ],
      "min": [
        -1.0,
        -0.99954360723495483,
        -1.0
      ]
    },
    {
      "bufferView": 32,
      "componentType": 5126,
      "count": 1843,
      "type": "VEC4",
      "max": [
        1.0,
        1.0,
        1.0,
        1.0
      ],
      "min": [
        -1.0,
        -1.0,
        -1.0,
        -1.0
      ]
    },
    {
      "bufferView": 33,
      "componentType": 5126,
      "count": 1843,
      "type": "VEC2",
      "max": [
        0.89534038305282593,
        0.814319372177124
      ],
      "min": [
        0.020051717758178711,
        0.07740318775177002
      ]
    },
    {
      "bufferView": 34,
      "componentType": 5123,
      "count": 4701,
      "type": "SCALAR",
      "max": [
        1582.0
      ],
      "min": [
        0.0
      ]
    },
    {
      "bufferView": 35,
      "componentType": 5123,
      "count": 636,
      "type": "SCALAR",
      "max": [
        1842.0
      ],
      "min": [
        565.0
      ]
    }
  ],
  "asset": {
    "version": "2.0"
  },
  "buffers": [
    {
      "uri": "attraction_004.bin",
      "byteLength": 1003554
    }
  ],
  "bufferViews": [
    {
      "buffer": 0,
      "byteLength": 114216
    },
    {
      "buffer": 0,
      "byteOffset": 114216,
      "byteLength": 114216
    },
    {
      "buffer": 0,
      "byteOffset": 228432,
      "byteLength": 152288
    },
    {
      "buffer": 0,
      "byteOffset": 380720,
      "byteLength": 76144
    },
    {
      "buffer": 0,
      "byteOffset": 456864,
      "byteLength": 43764
    },
    {
      "buffer": 0,
      "byteOffset": 500628,
      "byteLength": 1788
    },
    {
      "buffer": 0,
      "byteOffset": 502416,
      "byteLength": 23016
    },
    {
      "buffer": 0,
      "byteOffset": 525432,
      "byteLength": 23016
    },
    {
      "buffer": 0,
      "byteOffset": 548448,
      "byteLength": 30688
    },
    {
      "buffer": 0,
      "byteOffset": 579136,
      "byteLength": 15344
    },
    {
      "buffer": 0,
      "byteOffset": 594480,
      "byteLength": 9330
    },
    {
      "buffer": 0,
      "byteOffset": 603810,
      "byteLength": 516
    },
    {
      "buffer": 0,
      "byteOffset": 604326,
      "byteLength": 22992
    },
    {
      "buffer": 0,
      "byteOffset": 627318,
      "byteLength": 22992
    },
    {
      "buffer": 0,
      "byteOffset": 650310,
      "byteLength": 30656
    },
    {
      "buffer": 0,
      "byteOffset": 680966,
      "byteLength": 15328
    },
    {
      "buffer": 0,
      "byteOffset": 696294,
      "byteLength": 9330
    },
    {
      "buffer": 0,
      "byteOffset": 705624,
      "byteLength": 516
    },
    {
      "buffer": 0,
      "byteOffset": 706140,
      "byteLength": 22116
    },
    {
      "buffer": 0,
      "byteOffset": 728256,
      "byteLength": 22116
    },
    {
      "buffer": 0,
      "byteOffset": 750372,
      "byteLength": 29488
    },
    {
      "buffer": 0,
      "byteOffset": 779860,
      "byteLength": 14744
    },
    {
      "buffer": 0,
      "byteOffset": 794604,
      "byteLength": 9402
    },
    {
      "buffer": 0,
      "byteOffset": 804006,
      "byteLength": 1272
    },
    {
      "buffer": 0,
      "byteOffset": 805278,
      "byteLength": 22116
    },
    {
      "buffer": 0,
      "byteOffset": 827394,
      "byteLength": 22116
    },
    {
      "buffer": 0,
      "byteOffset": 849510,
      "byteLength": 29488
    },
    {
      "buffer": 0,
      "byteOffset": 878998,
      "byteLength": 14744
    },
    {
      "buffer": 0,
      "byteOffset": 893742,
      "byteLength": 9402
    },
    {
      "buffer": 0,
      "byteOffset": 903144,
      "byteLength": 1272
    },
    {
      "buffer": 0,
      "byteOffset": 904416,
      "byteLength": 22116
    },
    {
      "buffer": 0,
      "byteOffset": 926532,
      "byteLength": 22116
    },
    {
      "buffer": 0,
      "byteOffset": 948648,
      "byteLength": 29488
    },
    {
      "buffer": 0,
      "byteOffset": 978136,
      "byteLength": 14744
    },
    {
      "buffer": 0,
      "byteOffset": 992880,
      "byteLength": 9402
    },
    {
      "buffer": 0,
      "byteOffset": 1002282,
      "byteLength": 1272
    }
  ],
  "images": [
    {
      "uri": "1124351310TextureMain.png",
      "name": "Texture"
    }
  ],
  "materials": [
    {
      "pbrMetallicRoughness": {
        "baseColorTexture": {
          "index": 0
        },
        "metallicFactor": 0.0,
        "roughnessFactor": 0.5
      },
      "name": "Main_Materials"
    },
    {
      "pbrMetallicRoughness": {
        "metallicFactor": 0.0,
        "roughnessFactor": 0.5
      },
      "name": "emission"
    }
  ],
  "meshes": [
    {
      "primitives": [
        {
          "attributes": {
            "POSITION": 0,
            "NORMAL": 1,
            "TANGENT": 2,
            "TEXCOORD_0": 3
          },
          "indices": 4,
          "material": 0
        },
        {
          "attributes": {
            "POSITION": 0,
            "NORMAL": 1,
            "TANGENT": 2,
            "TEXCOORD_0": 3
          },
          "indices": 5,
          "material": 1
        }
      ],
      "name": "attraction_4_001"
    },
    {
      "primitives": [
        {
          "attributes": {
            "POSITION": 6,
            "NORMAL": 7,
            "TANGENT": 8,
            "TEXCOORD_0": 9
          },
          "indices": 10,
          "material": 0
        },
        {
          "attributes": {
            "POSITION": 6,
            "NORMAL": 7,
            "TANGENT": 8,
            "TEXCOORD_0": 9
          },
          "indices": 11,
          "material": 1
        }
      ],
      "name": "attraction_4_002"
    },
    {
      "primitives": [
        {
          "attributes": {
            "POSITION": 12,
            "NORMAL": 13,
            "TANGENT": 14,
            "TEXCOORD_0": 15
          },
          "indices": 16,
          "material": 0
        },
        {
          "attributes": {
            "POSITION": 12,
            "NORMAL": 13,
            "TANGENT": 14,
            "TEXCOORD_0": 15
          },
          "indices": 17,
          "material": 1
        }
      ],
      "name": "attraction_4_003"
    },
    {
      "primitives": [
        {
          "attributes": {
            "POSITION": 18,
            "NORMAL": 19,
            "TANGENT": 20,
            "TEXCOORD_0": 21
          },
          "indices": 22,
          "material": 0
        },
        {
          "attributes": {
            "POSITION": 18,
            "NORMAL": 19,
            "TANGENT": 20,
            "TEXCOORD_0": 21
          },
          "indices": 23,
          "material": 1
        }
      ],
      "name": "attraction_4_004"
    },
    {
      "primitives": [
        {
          "attributes": {
            "POSITION": 24,
            "NORMAL": 25,
            "TANGENT": 26,
            "TEXCOORD_0": 27
          },
          "indices": 28,
          "material": 0
        },
        {
          "attributes": {
            "POSITION": 24,
            "NORMAL": 25,
            "TANGENT": 26,
            "TEXCOORD_0": 27
          },
          "indices": 29,
          "material": 1
        }
      ],
      "name": "attraction_4_005"
    },
    {
      "primitives": [
        {
          "attributes": {
            "POSITION": 30,
            "NORMAL": 31,
            "TANGENT": 32,
            "TEXCOORD_0": 33
          },
          "indices": 34,
          "material": 0
        },
        {
          "attributes": {
            "POSITION": 30,
            "NORMAL": 31,
            "TANGENT": 32,
            "TEXCOORD_0": 33
          },
          "indices": 35,
          "material": 1
        }
      ],
      "name": "attraction_4_006"
    }
  ],
  "nodes": [
    {
      "children": [
        1
      ],
      "name": "attraction_004"
    },
    {
      "children": [
        2,
        3,
        4,
        5,
        6
      ],
      "mesh": 0,
      "name": "attraction_4_001"
    },
    {
      "mesh": 1,
      "rotation": [
        0.0,
        -0.627045453,
        0.0,
        0.778982759
      ],
      "translation": [
        2.698,
        0.207,
        1.544
      ],
      "name": "attraction_4_002"
    },
    {
      "mesh": 2,
      "rotation": [
        0.0,
        0.4414019,
        0.0,
        0.897309542
      ],
      "translation": [
        1.994,
        0.207,
        -1.484
      ],
      "name": "attraction_4_003"
    },
    {
      "mesh": 3,
      "rotation": [
        0.0,
        -0.9811038,
        0.0,
        -0.193482146
      ],
      "translation": [
        -3.58,
        0.207,
        -1.61
      ],
      "name": "attraction_4_004"
    },
    {
      "mesh": 4,
      "rotation": [
        0.0,
        0.7966503,
        0.0,
        0.60444057
      ],
      "translation": [
        -2.091,
        0.207,
        1.656
      ],
      "name": "attraction_4_005"
    },
    {
      "mesh": 5,
      "translation": [
        0.0,
        0.207,
        0.0
      ],
      "name": "attraction_4_006"
    }
  ],
  "samplers": [
    {}
  ],
  "scene": 0,
  "scenes": [
    {
      "nodes": [
        0
      ],
      "name": "attraction_004"
    }
  ],
  "textures": [
    {
      "sampler": 0,
      "source": 0,
      "name": "1124351310TextureMain"
    }
  ]
}