{
  "extensionsUsed": [
    "KHR_lights_punctual"
  ],
  "accessors": [
    {
      "bufferView": 0,
      "componentType": 5126,
      "count": 1198,
      "type": "VEC3",
      "max": [
        2.6177618503570557,
        5.5593032836914063,
        3.4793734550476074
      ],
      "min": [
        -2.4177620410919189,
        -0.1401878148317337,
        -3.6596264839172363
      ]
    },
    {
      "bufferView": 1,
      "componentType": 5126,
      "count": 1198,
      "type": "VEC3",
      "max": [
        1.0,
        1.0,
        1.0
      ],
      "min": [
        -1.0,
        -1.0,
        -1.0
      ]
    },
    {
      "bufferView": 2,
      "componentType": 5126,
      "count": 1198,
      "type": "VEC4",
      "max": [
        1.0,
        1.0,
        1.0,
        1.0
      ],
      "min": [
        -1.0,
        -1.0,
        -1.0,
        -1.0
      ]
    },
    {
      "bufferView": 3,
      "componentType": 5126,
      "count": 1198,
      "type": "VEC2",
      "max": [
        1.9990234375,
        2.15234375
      ],
      "min": [
        -1.9990234375,
        -0.923828125
      ]
    },
    {
      "bufferView": 4,
      "componentType": 5126,
      "count": 1198,
      "type": "VEC2",
      "max": [
        0.998046875,
        1.06640625
      ],
      "min": [
        0.0,
        0.09716796875
      ]
    },
    {
      "bufferView": 5,
      "componentType": 5123,
      "count": 1908,
      "type": "SCALAR",
      "max": [
        1101.0
      ],
      "min": [
        0.0
      ]
    },
    {
      "bufferView": 6,
      "componentType": 5123,
      "count": 84,
      "type": "SCALAR",
      "max": [
        1145.0
      ],
      "min": [
        1102.0
      ]
    },
    {
      "bufferView": 7,
      "componentType": 5123,
      "count": 84,
      "type": "SCALAR",
      "max": [
        1189.0
      ],
      "min": [
        1146.0
      ]
    },
    {
      "bufferView": 8,
      "componentType": 5123,
      "count": 132,
      "type": "SCALAR",
      "max": [
        1197.0
      ],
      "min": [
        410.0
      ]
    }
  ],
  "asset": {
    "version": "2.0"
  },
  "buffers": [
    {
      "uri": "structure_barn_(2).bin",
      "byteLength": 71504
    }
  ],
  "bufferViews": [
    {
      "buffer": 0,
      "byteLength": 14376
    },
    {
      "buffer": 0,
      "byteOffset": 14376,
      "byteLength": 14376
    },
    {
      "buffer": 0,
      "byteOffset": 28752,
      "byteLength": 19168
    },
    {
      "buffer": 0,
      "byteOffset": 47920,
      "byteLength": 9584
    },
    {
      "buffer": 0,
      "byteOffset": 57504,
      "byteLength": 9584
    },
    {
      "buffer": 0,
      "byteOffset": 67088,
      "byteLength": 3816
    },
    {
      "buffer": 0,
      "byteOffset": 70904,
      "byteLength": 168
    },
    {
      "buffer": 0,
      "byteOffset": 71072,
      "byteLength": 168
    },
    {
      "buffer": 0,
      "byteOffset": 71240,
      "byteLength": 264
    }
  ],
  "images": [
    {
      "uri": "540049250T_WoodTrim_02_CMain.png",
      "name": "T_WoodTrim_02_C"
    },
    {
      "uri": "856012099T_RoofTiles_01_CMain.png",
      "name": "T_RoofTiles_01_C"
    },
    {
      "uri": "1542044607T_WoodPlanks_02_CMain.png",
      "name": "T_WoodPlanks_02_C"
    },
    {
      "uri": "1451568791T_WoodWall_CMain.png",
      "name": "T_WoodWall_C"
    }
  ],
  "materials": [
    {
      "pbrMetallicRoughness": {
        "baseColorTexture": {
          "index": 0
        },
        "metallicFactor": 0.0
      },
      "name": "M_WoodTrim"
    },
    {
      "pbrMetallicRoughness": {
        "baseColorTexture": {
          "index": 1
        },
        "metallicFactor": 0.0
      },
      "name": "M_RoofTiles_Red"
    },
    {
      "pbrMetallicRoughness": {
        "baseColorTexture": {
          "index": 2
        },
        "metallicFactor": 0.0
      },
      "name": "M_Roof_Wood"
    },
    {
      "pbrMetallicRoughness": {
        "baseColorTexture": {
          "index": 3
        },
        "metallicFactor": 0.0
      },
      "name": "M_WoodWall_01"
    }
  ],
  "meshes": [
    {
      "primitives": [
        {
          "attributes": {
            "POSITION": 0,
            "NORMAL": 1,
            "TANGENT": 2,
            "TEXCOORD_0": 3,
            "TEXCOORD_1": 4
          },
          "indices": 5,
          "material": 0
        },
        {
          "attributes": {
            "POSITION": 0,
            "NORMAL": 1,
            "TANGENT": 2,
            "TEXCOORD_0": 3,
            "TEXCOORD_1": 4
          },
          "indices": 6,
          "material": 1
        },
        {
          "attributes": {
            "POSITION": 0,
            "NORMAL": 1,
            "TANGENT": 2,
            "TEXCOORD_0": 3,
            "TEXCOORD_1": 4
          },
          "indices": 7,
          "material": 2
        },
        {
          "attributes": {
            "POSITION": 0,
            "NORMAL": 1,
            "TANGENT": 2,
            "TEXCOORD_0": 3,
            "TEXCOORD_1": 4
          },
          "indices": 8,
          "material": 3
        }
      ],
      "name": "SM_Barn_LOD0"
    }
  ],
  "nodes": [
    {
      "children": [
        1
      ],
      "name": "Structure_Barn (2)"
    },
    {
      "mesh": 0,
      "name": "SM_Barn_LOD0"
    }
  ],
  "samplers": [
    {}
  ],
  "scene": 0,
  "scenes": [
    {
      "nodes": [
        0
      ],
      "name": "structure_barn_(2)"
    }
  ],
  "textures": [
    {
      "sampler": 0,
      "source": 0,
      "name": "540049250T_WoodTrim_02_CMain"
    },
    {
      "sampler": 0,
      "source": 1,
      "name": "856012099T_RoofTiles_01_CMain"
    },
    {
      "sampler": 0,
      "source": 2,
      "name": "1542044607T_WoodPlanks_02_CMain"
    },
    {
      "sampler": 0,
      "source": 3,
      "name": "1451568791T_WoodWall_CMain"
    }
  ]
}