{
  "extensionsUsed": [
    "KHR_lights_punctual"
  ],
  "accessors": [
    {
      "bufferView": 0,
      "componentType": 5126,
      "count": 1232,
      "type": "VEC3",
      "max": [
        5.0420923233032227,
        8.4598712921142578,
        6.4881706237792969
      ],
      "min": [
        -5.0420923233032227,
        -1.0422502327855909E-06,
        -6.4881677627563477
      ]
    },
    {
      "bufferView": 1,
      "componentType": 5126,
      "count": 1232,
      "type": "VEC3",
      "max": [
        1.0,
        1.0,
        1.0
      ],
      "min": [
        -1.0,
        -1.0,
        -1.0
      ]
    },
    {
      "bufferView": 2,
      "componentType": 5126,
      "count": 1232,
      "type": "VEC4",
      "max": [
        1.0,
        1.0,
        1.0,
        1.0
      ],
      "min": [
        -1.0,
        -1.0,
        -1.0,
        1.0
      ]
    },
    {
      "bufferView": 3,
      "componentType": 5126,
      "count": 1232,
      "type": "VEC2",
      "max": [
        0.8893769383430481,
        0.33113324642181396
      ],
      "min": [
        0.61835670471191406,
        0.17662280797958374
      ]
    },
    {
      "bufferView": 4,
      "componentType": 5123,
      "count": 2580,
      "type": "SCALAR",
      "max": [
        1231.0
      ],
      "min": [
        0.0
      ]
    },
    {
      "bufferView": 5,
      "componentType": 5126,
      "count": 1853,
      "type": "VEC3",
      "max": [
        1.1518410444259644,
        5.5482053756713867,
        4.9322638511657715
      ],
      "min": [
        -1.151841402053833,
        -5.6734714508056641,
        -4.9307942390441895
      ]
    },
    {
      "bufferView": 6,
      "componentType": 5126,
      "count": 1853,
      "type": "VEC3",
      "max": [
        1.0,
        1.0,
        1.0
      ],
      "min": [
        -1.0,
        -1.0,
        -1.0
      ]
    },
    {
      "bufferView": 7,
      "componentType": 5126,
      "count": 1853,
      "type": "VEC4",
      "max": [
        1.0,
        1.0,
        1.0,
        1.0
      ],
      "min": [
        -1.0,
        -1.0,
        -0.714428722858429,
        -1.0
      ]
    },
    {
      "bufferView": 8,
      "componentType": 5126,
      "count": 1853,
      "type": "VEC2",
      "max": [
        0.828924834728241,
        0.28678953647613525
      ],
      "min": [
        0.019502639770507813,
        0.066492199897766113
      ]
    },
    {
      "bufferView": 9,
      "componentType": 5123,
      "count": 2304,
      "type": "SCALAR",
      "max": [
        1343.0
      ],
      "min": [
        0.0
      ]
    },
    {
      "bufferView": 10,
      "componentType": 5123,
      "count": 1812,
      "type": "SCALAR",
      "max": [
        1852.0
      ],
      "min": [
        1344.0
      ]
    },
    {
      "bufferView": 11,
      "componentType": 5126,
      "count": 6117,
      "type": "VEC3",
      "max": [
        1.4643467664718628,
        0.82616204023361206,
        4.6235880851745605
      ],
      "min": [
        -0.31708800792694092,
        -1.0614520311355591,
        -4.357602596282959
      ]
    },
    {
      "bufferView": 12,
      "componentType": 5126,
      "count": 6117,
      "type": "VEC3",
      "max": [
        1.0,
        1.0,
        1.0
      ],
      "min": [
        -1.0,
        -1.0,
        -1.0
      ]
    },
    {
      "bufferView": 13,
      "componentType": 5126,
      "count": 6117,
      "type": "VEC4",
      "max": [
        1.0,
        1.0,
        1.0,
        1.0
      ],
      "min": [
        -1.0,
        -1.0,
        -1.0,
        -1.0
      ]
    },
    {
      "bufferView": 14,
      "componentType": 5126,
      "count": 6117,
      "type": "VEC2",
      "max": [
        0.8885076642036438,
        0.43385463953018188
      ],
      "min": [
        0.77418434619903564,
        0.16167712211608887
      ]
    },
    {
      "bufferView": 15,
      "componentType": 5123,
      "count": 17826,
      "type": "SCALAR",
      "max": [
        6116.0
      ],
      "min": [
        0.0
      ]
    }
  ],
  "asset": {
    "version": "2.0"
  },
  "buffers": [
    {
      "uri": "attraction_001.bin",
      "byteLength": 490740
    }
  ],
  "bufferViews": [
    {
      "buffer": 0,
      "byteLength": 14784
    },
    {
      "buffer": 0,
      "byteOffset": 14784,
      "byteLength": 14784
    },
    {
      "buffer": 0,
      "byteOffset": 29568,
      "byteLength": 19712
    },
    {
      "buffer": 0,
      "byteOffset": 49280,
      "byteLength": 9856
    },
    {
      "buffer": 0,
      "byteOffset": 59136,
      "byteLength": 5160
    },
    {
      "buffer": 0,
      "byteOffset": 64296,
      "byteLength": 22236
    },
    {
      "buffer": 0,
      "byteOffset": 86532,
      "byteLength": 22236
    },
    {
      "buffer": 0,
      "byteOffset": 108768,
      "byteLength": 29648
    },
    {
      "buffer": 0,
      "byteOffset": 138416,
      "byteLength": 14824
    },
    {
      "buffer": 0,
      "byteOffset": 153240,
      "byteLength": 4608
    },
    {
      "buffer": 0,
      "byteOffset": 157848,
      "byteLength": 3624
    },
    {
      "buffer": 0,
      "byteOffset": 161472,
      "byteLength": 73404
    },
    {
      "buffer": 0,
      "byteOffset": 234876,
      "byteLength": 73404
    },
    {
      "buffer": 0,
      "byteOffset": 308280,
      "byteLength": 97872
    },
    {
      "buffer": 0,
      "byteOffset": 406152,
      "byteLength": 48936
    },
    {
      "buffer": 0,
      "byteOffset": 455088,
      "byteLength": 35652
    }
  ],
  "images": [
    {
      "uri": "1124351310TextureMain.png",
      "name": "Texture"
    }
  ],
  "materials": [
    {
      "pbrMetallicRoughness": {
        "baseColorTexture": {
          "index": 0
        },
        "metallicFactor": 0.0,
        "roughnessFactor": 0.5
      },
      "name": "Main_Materials"
    },
    {
      "pbrMetallicRoughness": {
        "metallicFactor": 0.0,
        "roughnessFactor": 0.5
      },
      "name": "emission"
    }
  ],
  "meshes": [
    {
      "primitives": [
        {
          "attributes": {
            "POSITION": 0,
            "NORMAL": 1,
            "TANGENT": 2,
            "TEXCOORD_0": 3
          },
          "indices": 4,
          "material": 0
        }
      ],
      "name": "attraction_1_001"
    },
    {
      "primitives": [
        {
          "attributes": {
            "POSITION": 5,
            "NORMAL": 6,
            "TANGENT": 7,
            "TEXCOORD_0": 8
          },
          "indices": 9,
          "material": 1
        },
        {
          "attributes": {
            "POSITION": 5,
            "NORMAL": 6,
            "TANGENT": 7,
            "TEXCOORD_0": 8
          },
          "indices": 10,
          "material": 0
        }
      ],
      "name": "attraction_1_002"
    },
    {
      "primitives": [
        {
          "attributes": {
            "POSITION": 11,
            "NORMAL": 12,
            "TANGENT": 13,
            "TEXCOORD_0": 14
          },
          "indices": 15,
          "material": 0
        }
      ],
      "name": "attraction_1_003"
    }
  ],
  "nodes": [
    {
      "children": [
        1
      ],
      "name": "attraction_001"
    },
    {
      "children": [
        2
      ],
      "mesh": 0,
      "name": "attraction_1_001"
    },
    {
      "children": [
        3
      ],
      "mesh": 1,
      "rotation": [
        0.0,
        0.0,
        0.7967823,
        0.6042665
      ],
      "translation": [
        0.0,
        7.47,
        0.0
      ],
      "name": "attraction_1_002"
    },
    {
      "mesh": 2,
      "rotation": [
        0.0,
        0.0,
        -0.9445704,
        0.3283089
      ],
      "translation": [
        0.0,
        -4.97,
        0.0
      ],
      "name": "attraction_1_003"
    }
  ],
  "samplers": [
    {}
  ],
  "scene": 0,
  "scenes": [
    {
      "nodes": [
        0
      ],
      "name": "attraction_001"
    }
  ],
  "textures": [
    {
      "sampler": 0,
      "source": 0,
      "name": "1124351310TextureMain"
    }
  ]
}