{
  "extensionsUsed": [
    "KHR_lights_punctual"
  ],
  "accessors": [
    {
      "bufferView": 0,
      "componentType": 5126,
      "count": 2362,
      "type": "VEC3",
      "max": [
        1.2283104658126831,
        5.2087054252624512,
        3.2835750579833984
      ],
      "min": [
        -1.0373361110687256,
        -0.10204115509986877,
        -3.6246089935302734
      ]
    },
    {
      "bufferView": 1,
      "componentType": 5126,
      "count": 2362,
      "type": "VEC3",
      "max": [
        0.99862110614776611,
        0.99819356203079224,
        0.99996912479400635
      ],
      "min": [
        -0.99860817193984985,
        -0.999666690826416,
        -0.99986350536346436
      ]
    },
    {
      "bufferView": 2,
      "componentType": 5126,
      "count": 2362,
      "type": "VEC4",
      "max": [
        0.99990665912628174,
        0.99748295545578,
        0.99991786479949951,
        1.0
      ],
      "min": [
        -0.98754996061325073,
        -0.99994027614593506,
        -0.99962055683135986,
        1.0
      ]
    },
    {
      "bufferView": 3,
      "componentType": 5126,
      "count": 2362,
      "type": "VEC2",
      "max": [
        0.92667949199676514,
        0.47648358345031738
      ],
      "min": [
        0.027927041053771973,
        0.11792159080505371
      ]
    },
    {
      "bufferView": 4,
      "componentType": 5123,
      "count": 4890,
      "type": "SCALAR",
      "max": [
        2361.0
      ],
      "min": [
        0.0
      ]
    }
  ],
  "asset": {
    "version": "2.0"
  },
  "buffers": [
    {
      "uri": "dinosaur_002.bin",
      "byteLength": 123156
    }
  ],
  "bufferViews": [
    {
      "buffer": 0,
      "byteLength": 28344
    },
    {
      "buffer": 0,
      "byteOffset": 28344,
      "byteLength": 28344
    },
    {
      "buffer": 0,
      "byteOffset": 56688,
      "byteLength": 37792
    },
    {
      "buffer": 0,
      "byteOffset": 94480,
      "byteLength": 18896
    },
    {
      "buffer": 0,
      "byteOffset": 113376,
      "byteLength": 9780
    }
  ],
  "images": [
    {
      "uri": "1124351310TextureMain.png",
      "name": "Texture"
    }
  ],
  "materials": [
    {
      "pbrMetallicRoughness": {
        "baseColorTexture": {
          "index": 0
        },
        "metallicFactor": 0.0,
        "roughnessFactor": 0.5
      },
      "name": "Main_Materials"
    }
  ],
  "meshes": [
    {
      "primitives": [
        {
          "attributes": {
            "POSITION": 0,
            "NORMAL": 1,
            "TANGENT": 2,
            "TEXCOORD_0": 3
          },
          "indices": 4,
          "material": 0
        }
      ],
      "name": "dinosaur_002"
    }
  ],
  "nodes": [
    {
      "mesh": 0,
      "name": "dinosaur_002"
    }
  ],
  "samplers": [
    {}
  ],
  "scene": 0,
  "scenes": [
    {
      "nodes": [
        0
      ],
      "name": "dinosaur_002"
    }
  ],
  "textures": [
    {
      "sampler": 0,
      "source": 0,
      "name": "1124351310TextureMain"
    }
  ]
}