{
  "extensionsUsed": [
    "KHR_lights_punctual"
  ],
  "accessors": [
    {
      "bufferView": 0,
      "componentType": 5126,
      "count": 312,
      "type": "VEC3",
      "max": [
        3.1134381294250488,
        4.6610560417175293,
        3.108999490737915
      ],
      "min": [
        -3.1133606433868408,
        -4.6757500626881665E-07,
        -3.0718004703521729
      ]
    },
    {
      "bufferView": 1,
      "componentType": 5126,
      "count": 312,
      "type": "VEC3",
      "max": [
        0.99083089828491211,
        0.99997878074646,
        0.99083578586578369
      ],
      "min": [
        -0.990830659866333,
        -0.99997377395629883,
        -0.99083566665649414
      ]
    },
    {
      "bufferView": 2,
      "componentType": 5126,
      "count": 312,
      "type": "VEC4",
      "max": [
        0.74342125654220581,
        1.0,
        0.92713260650634766,
        1.0
      ],
      "min": [
        -1.0,
        -1.0,
        -0.92389345169067383,
        1.0
      ]
    },
    {
      "bufferView": 3,
      "componentType": 5126,
      "count": 312,
      "type": "VEC2",
      "max": [
        0.88564199209213257,
        0.33215075731277466
      ],
      "min": [
        0.77424383163452148,
        0.12069582939147949
      ]
    },
    {
      "bufferView": 4,
      "componentType": 5123,
      "count": 660,
      "type": "SCALAR",
      "max": [
        311.0
      ],
      "min": [
        0.0
      ]
    }
  ],
  "asset": {
    "version": "2.0"
  },
  "buffers": [
    {
      "uri": "attraction_entrance_003.bin",
      "byteLength": 16296
    }
  ],
  "bufferViews": [
    {
      "buffer": 0,
      "byteLength": 3744
    },
    {
      "buffer": 0,
      "byteOffset": 3744,
      "byteLength": 3744
    },
    {
      "buffer": 0,
      "byteOffset": 7488,
      "byteLength": 4992
    },
    {
      "buffer": 0,
      "byteOffset": 12480,
      "byteLength": 2496
    },
    {
      "buffer": 0,
      "byteOffset": 14976,
      "byteLength": 1320
    }
  ],
  "images": [
    {
      "uri": "1124351310TextureMain.png",
      "name": "Texture"
    }
  ],
  "materials": [
    {
      "pbrMetallicRoughness": {
        "baseColorTexture": {
          "index": 0
        },
        "metallicFactor": 0.0,
        "roughnessFactor": 0.5
      },
      "name": "Main_Materials"
    }
  ],
  "meshes": [
    {
      "primitives": [
        {
          "attributes": {
            "POSITION": 0,
            "NORMAL": 1,
            "TANGENT": 2,
            "TEXCOORD_0": 3
          },
          "indices": 4,
          "material": 0
        }
      ],
      "name": "attraction_entrance_003"
    }
  ],
  "nodes": [
    {
      "mesh": 0,
      "name": "attraction_entrance_003"
    }
  ],
  "samplers": [
    {}
  ],
  "scene": 0,
  "scenes": [
    {
      "nodes": [
        0
      ],
      "name": "attraction_entrance_003"
    }
  ],
  "textures": [
    {
      "sampler": 0,
      "source": 0,
      "name": "1124351310TextureMain"
    }
  ]
}