{
  "extensionsUsed": [
    "KHR_lights_punctual"
  ],
  "accessors": [
    {
      "bufferView": 0,
      "componentType": 5126,
      "count": 5158,
      "type": "VEC3",
      "max": [
        7.2009239196777344,
        14.492537498474121,
        8.7127494812011719
      ],
      "min": [
        -7.2014713287353516,
        -1.4194869208949967E-06,
        -8.7127532958984375
      ]
    },
    {
      "bufferView": 1,
      "componentType": 5126,
      "count": 5158,
      "type": "VEC3",
      "max": [
        1.0,
        1.0,
        1.0
      ],
      "min": [
        -1.0,
        -1.0,
        -1.0
      ]
    },
    {
      "bufferView": 2,
      "componentType": 5126,
      "count": 5158,
      "type": "VEC4",
      "max": [
        1.0,
        1.0,
        1.0,
        1.0
      ],
      "min": [
        -1.0,
        -1.0,
        -1.0,
        -1.0
      ]
    },
    {
      "bufferView": 3,
      "componentType": 5126,
      "count": 5158,
      "type": "VEC2",
      "max": [
        0.88322663307189941,
        0.47652161121368408
      ],
      "min": [
        0.021352643147110939,
        0.015813946723937988
      ]
    },
    {
      "bufferView": 4,
      "componentType": 5123,
      "count": 8088,
      "type": "SCALAR",
      "max": [
        3131.0
      ],
      "min": [
        0.0
      ]
    },
    {
      "bufferView": 5,
      "componentType": 5123,
      "count": 4788,
      "type": "SCALAR",
      "max": [
        5157.0
      ],
      "min": [
        3132.0
      ]
    },
    {
      "bufferView": 6,
      "componentType": 5126,
      "count": 18826,
      "type": "VEC3",
      "max": [
        2.7890722751617432,
        -0.063770689070224762,
        8.763789176940918
      ],
      "min": [
        -2.7889354228973389,
        -12.673148155212402,
        -7.4809002876281738
      ]
    },
    {
      "bufferView": 7,
      "componentType": 5126,
      "count": 18826,
      "type": "VEC3",
      "max": [
        1.0,
        1.0,
        1.0
      ],
      "min": [
        -1.0,
        -1.0,
        -1.0
      ]
    },
    {
      "bufferView": 8,
      "componentType": 5126,
      "count": 18826,
      "type": "VEC4",
      "max": [
        1.0,
        1.0,
        1.0,
        1.0
      ],
      "min": [
        -1.0,
        -1.0,
        -1.0,
        -1.0
      ]
    },
    {
      "bufferView": 9,
      "componentType": 5126,
      "count": 18826,
      "type": "VEC2",
      "max": [
        0.89163273572921753,
        0.43385463953018188
      ],
      "min": [
        0.01909552700817585,
        0.030537724494934082
      ]
    },
    {
      "bufferView": 10,
      "componentType": 5123,
      "count": 53661,
      "type": "SCALAR",
      "max": [
        18825.0
      ],
      "min": [
        0.0
      ]
    }
  ],
  "asset": {
    "version": "2.0"
  },
  "buffers": [
    {
      "uri": "attraction_12_001.bin",
      "byteLength": 1284306
    }
  ],
  "bufferViews": [
    {
      "buffer": 0,
      "byteLength": 61896
    },
    {
      "buffer": 0,
      "byteOffset": 61896,
      "byteLength": 61896
    },
    {
      "buffer": 0,
      "byteOffset": 123792,
      "byteLength": 82528
    },
    {
      "buffer": 0,
      "byteOffset": 206320,
      "byteLength": 41264
    },
    {
      "buffer": 0,
      "byteOffset": 247584,
      "byteLength": 16176
    },
    {
      "buffer": 0,
      "byteOffset": 263760,
      "byteLength": 9576
    },
    {
      "buffer": 0,
      "byteOffset": 273336,
      "byteLength": 225912
    },
    {
      "buffer": 0,
      "byteOffset": 499248,
      "byteLength": 225912
    },
    {
      "buffer": 0,
      "byteOffset": 725160,
      "byteLength": 301216
    },
    {
      "buffer": 0,
      "byteOffset": 1026376,
      "byteLength": 150608
    },
    {
      "buffer": 0,
      "byteOffset": 1176984,
      "byteLength": 107322
    }
  ],
  "images": [
    {
      "uri": "1124351310TextureMain.png",
      "name": "Texture"
    }
  ],
  "materials": [
    {
      "pbrMetallicRoughness": {
        "baseColorTexture": {
          "index": 0
        },
        "metallicFactor": 0.0,
        "roughnessFactor": 0.5
      },
      "name": "Main_Materials"
    },
    {
      "pbrMetallicRoughness": {
        "metallicFactor": 0.0,
        "roughnessFactor": 0.5
      },
      "name": "emission"
    }
  ],
  "meshes": [
    {
      "primitives": [
        {
          "attributes": {
            "POSITION": 0,
            "NORMAL": 1,
            "TANGENT": 2,
            "TEXCOORD_0": 3
          },
          "indices": 4,
          "material": 0
        },
        {
          "attributes": {
            "POSITION": 0,
            "NORMAL": 1,
            "TANGENT": 2,
            "TEXCOORD_0": 3
          },
          "indices": 5,
          "material": 1
        }
      ],
      "name": "attraction_12_001"
    },
    {
      "primitives": [
        {
          "attributes": {
            "POSITION": 6,
            "NORMAL": 7,
            "TANGENT": 8,
            "TEXCOORD_0": 9
          },
          "indices": 10,
          "material": 0
        }
      ],
      "name": "attraction_12_002"
    }
  ],
  "nodes": [
    {
      "children": [
        1
      ],
      "mesh": 0,
      "name": "attraction_12_001"
    },
    {
      "mesh": 1,
      "translation": [
        0.0,
        13.34,
        0.0
      ],
      "name": "attraction_12_002"
    }
  ],
  "samplers": [
    {}
  ],
  "scene": 0,
  "scenes": [
    {
      "nodes": [
        0
      ],
      "name": "attraction_12_001"
    }
  ],
  "textures": [
    {
      "sampler": 0,
      "source": 0,
      "name": "1124351310TextureMain"
    }
  ]
}