{
  "extensionsUsed": [
    "KHR_lights_punctual"
  ],
  "accessors": [
    {
      "bufferView": 0,
      "componentType": 5126,
      "count": 2118,
      "type": "VEC3",
      "max": [
        6.366025447845459,
        7.6657438278198242,
        3.5101785659790039
      ],
      "min": [
        -6.366034984588623,
        -1.6401573930124869E-06,
        -3.5101845264434814
      ]
    },
    {
      "bufferView": 1,
      "componentType": 5126,
      "count": 2118,
      "type": "VEC3",
      "max": [
        1.0,
        1.0,
        1.0
      ],
      "min": [
        -1.0,
        -1.0,
        -1.0
      ]
    },
    {
      "bufferView": 2,
      "componentType": 5126,
      "count": 2118,
      "type": "VEC4",
      "max": [
        1.0,
        1.0,
        1.0,
        1.0
      ],
      "min": [
        -1.0,
        -1.0,
        -1.0,
        -1.0
      ]
    },
    {
      "bufferView": 3,
      "componentType": 5126,
      "count": 2118,
      "type": "VEC2",
      "max": [
        0.88589483499526978,
        0.36940932273864746
      ],
      "min": [
        0.27292156219482422,
        0.15592473745346069
      ]
    },
    {
      "bufferView": 4,
      "componentType": 5123,
      "count": 4758,
      "type": "SCALAR",
      "max": [
        2117.0
      ],
      "min": [
        0.0
      ]
    }
  ],
  "asset": {
    "version": "2.0"
  },
  "buffers": [
    {
      "uri": "attraction_entrance_001.bin",
      "byteLength": 111180
    }
  ],
  "bufferViews": [
    {
      "buffer": 0,
      "byteLength": 25416
    },
    {
      "buffer": 0,
      "byteOffset": 25416,
      "byteLength": 25416
    },
    {
      "buffer": 0,
      "byteOffset": 50832,
      "byteLength": 33888
    },
    {
      "buffer": 0,
      "byteOffset": 84720,
      "byteLength": 16944
    },
    {
      "buffer": 0,
      "byteOffset": 101664,
      "byteLength": 9516
    }
  ],
  "images": [
    {
      "uri": "1124351310TextureMain.png",
      "name": "Texture"
    }
  ],
  "materials": [
    {
      "pbrMetallicRoughness": {
        "baseColorTexture": {
          "index": 0
        },
        "metallicFactor": 0.0,
        "roughnessFactor": 0.5
      },
      "name": "Main_Materials"
    }
  ],
  "meshes": [
    {
      "primitives": [
        {
          "attributes": {
            "POSITION": 0,
            "NORMAL": 1,
            "TANGENT": 2,
            "TEXCOORD_0": 3
          },
          "indices": 4,
          "material": 0
        }
      ],
      "name": "attraction_entrance_001"
    }
  ],
  "nodes": [
    {
      "mesh": 0,
      "name": "attraction_entrance_001"
    }
  ],
  "samplers": [
    {}
  ],
  "scene": 0,
  "scenes": [
    {
      "nodes": [
        0
      ],
      "name": "attraction_entrance_001"
    }
  ],
  "textures": [
    {
      "sampler": 0,
      "source": 0,
      "name": "1124351310TextureMain"
    }
  ]
}