{
  "extensionsUsed": [
    "KHR_lights_punctual"
  ],
  "accessors": [
    {
      "bufferView": 0,
      "componentType": 5126,
      "count": 1828,
      "type": "VEC3",
      "max": [
        10.960566520690918,
        7.6004881858825684,
        10.960585594177246
      ],
      "min": [
        -10.960585594177246,
        -1.7857057628134498E-06,
        -10.960598945617676
      ]
    },
    {
      "bufferView": 1,
      "componentType": 5126,
      "count": 1828,
      "type": "VEC3",
      "max": [
        1.0,
        1.0,
        1.0
      ],
      "min": [
        -1.0,
        -1.0,
        -1.0
      ]
    },
    {
      "bufferView": 2,
      "componentType": 5126,
      "count": 1828,
      "type": "VEC4",
      "max": [
        1.0,
        0.0030532716773450375,
        0.99371355772018433,
        1.0
      ],
      "min": [
        -1.0,
        0.0,
        -0.99371236562728882,
        -1.0
      ]
    },
    {
      "bufferView": 3,
      "componentType": 5126,
      "count": 1828,
      "type": "VEC2",
      "max": [
        0.80516493320465088,
        0.707822322845459
      ],
      "min": [
        0.74044102430343628,
        0.530269980430603
      ]
    },
    {
      "bufferView": 4,
      "componentType": 5123,
      "count": 9618,
      "type": "SCALAR",
      "max": [
        1827.0
      ],
      "min": [
        0.0
      ]
    }
  ],
  "asset": {
    "version": "2.0"
  },
  "buffers": [
    {
      "uri": "decoration_007.bin",
      "byteLength": 106980
    }
  ],
  "bufferViews": [
    {
      "buffer": 0,
      "byteLength": 21936
    },
    {
      "buffer": 0,
      "byteOffset": 21936,
      "byteLength": 21936
    },
    {
      "buffer": 0,
      "byteOffset": 43872,
      "byteLength": 29248
    },
    {
      "buffer": 0,
      "byteOffset": 73120,
      "byteLength": 14624
    },
    {
      "buffer": 0,
      "byteOffset": 87744,
      "byteLength": 19236
    }
  ],
  "images": [
    {
      "uri": "1124351310TextureMain.png",
      "name": "Texture"
    }
  ],
  "materials": [
    {
      "pbrMetallicRoughness": {
        "baseColorTexture": {
          "index": 0
        },
        "metallicFactor": 0.0,
        "roughnessFactor": 0.5
      },
      "name": "Main_Materials"
    }
  ],
  "meshes": [
    {
      "primitives": [
        {
          "attributes": {
            "POSITION": 0,
            "NORMAL": 1,
            "TANGENT": 2,
            "TEXCOORD_0": 3
          },
          "indices": 4,
          "material": 0
        }
      ],
      "name": "decoration_007"
    }
  ],
  "nodes": [
    {
      "mesh": 0,
      "name": "decoration_007"
    }
  ],
  "samplers": [
    {}
  ],
  "scene": 0,
  "scenes": [
    {
      "nodes": [
        0
      ],
      "name": "decoration_007"
    }
  ],
  "textures": [
    {
      "sampler": 0,
      "source": 0,
      "name": "1124351310TextureMain"
    }
  ]
}