{
  "extensionsUsed": [
    "KHR_lights_punctual"
  ],
  "accessors": [
    {
      "bufferView": 0,
      "componentType": 5126,
      "count": 209,
      "type": "VEC3",
      "max": [
        0.90971189737319946,
        0.31764459609985352,
        1.9957517385482788
      ],
      "min": [
        -0.9097021222114563,
        -0.31764516234397888,
        -1.9957566261291504
      ]
    },
    {
      "bufferView": 1,
      "componentType": 5126,
      "count": 209,
      "type": "VEC3",
      "max": [
        0.95468008518218994,
        0.99992167949676514,
        0.978694498538971
      ],
      "min": [
        -0.9546775221824646,
        -0.9995841383934021,
        -0.9786946177482605
      ]
    },
    {
      "bufferView": 2,
      "componentType": 5126,
      "count": 209,
      "type": "VEC4",
      "max": [
        0.994010329246521,
        0.98155587911605835,
        0.67671447992324829,
        1.0
      ],
      "min": [
        -0.9999920129776001,
        -0.91804152727127075,
        -1.0,
        1.0
      ]
    },
    {
      "bufferView": 3,
      "componentType": 5126,
      "count": 209,
      "type": "VEC2",
      "max": [
        0.832847535610199,
        0.32700830698013306
      ],
      "min": [
        0.81250506639480591,
        0.16326195001602173
      ]
    },
    {
      "bufferView": 4,
      "componentType": 5121,
      "count": 714,
      "type": "SCALAR",
      "max": [
        208.0
      ],
      "min": [
        0.0
      ]
    }
  ],
  "asset": {
    "version": "2.0"
  },
  "buffers": [
    {
      "uri": "boat_002.bin",
      "byteLength": 10746
    }
  ],
  "bufferViews": [
    {
      "buffer": 0,
      "byteLength": 2508
    },
    {
      "buffer": 0,
      "byteOffset": 2508,
      "byteLength": 2508
    },
    {
      "buffer": 0,
      "byteOffset": 5016,
      "byteLength": 3344
    },
    {
      "buffer": 0,
      "byteOffset": 8360,
      "byteLength": 1672
    },
    {
      "buffer": 0,
      "byteOffset": 10032,
      "byteLength": 714
    }
  ],
  "images": [
    {
      "uri": "1124351310TextureMain.png",
      "name": "Texture"
    }
  ],
  "materials": [
    {
      "pbrMetallicRoughness": {
        "baseColorTexture": {
          "index": 0
        },
        "metallicFactor": 0.0,
        "roughnessFactor": 0.5
      },
      "name": "Main_Materials"
    }
  ],
  "meshes": [
    {
      "primitives": [
        {
          "attributes": {
            "POSITION": 0,
            "NORMAL": 1,
            "TANGENT": 2,
            "TEXCOORD_0": 3
          },
          "indices": 4,
          "material": 0
        }
      ],
      "name": "boat_002"
    }
  ],
  "nodes": [
    {
      "mesh": 0,
      "name": "boat_002"
    }
  ],
  "samplers": [
    {}
  ],
  "scene": 0,
  "scenes": [
    {
      "nodes": [
        0
      ],
      "name": "boat_002"
    }
  ],
  "textures": [
    {
      "sampler": 0,
      "source": 0,
      "name": "1124351310TextureMain"
    }
  ]
}