{
  "extensionsUsed": [
    "KHR_lights_punctual"
  ],
  "accessors": [
    {
      "bufferView": 0,
      "componentType": 5126,
      "count": 2357,
      "type": "VEC3",
      "max": [
        0.86033689975738525,
        5.10634708404541,
        2.9993515014648438
      ],
      "min": [
        -1.0411010980606079,
        -0.051391743123531342,
        -3.1484956741333008
      ]
    },
    {
      "bufferView": 1,
      "componentType": 5126,
      "count": 2357,
      "type": "VEC3",
      "max": [
        0.99973660707473755,
        0.99604105949401855,
        0.99358701705932617
      ],
      "min": [
        -0.99942159652709961,
        -0.99491840600967407,
        -0.999697208404541
      ]
    },
    {
      "bufferView": 2,
      "componentType": 5126,
      "count": 2357,
      "type": "VEC4",
      "max": [
        0.999962329864502,
        0.99827325344085693,
        0.99885344505310059,
        1.0
      ],
      "min": [
        -0.99887901544570923,
        -0.99954283237457275,
        -0.99775862693786621,
        1.0
      ]
    },
    {
      "bufferView": 3,
      "componentType": 5126,
      "count": 2357,
      "type": "VEC2",
      "max": [
        0.92667949199676514,
        0.47648358345031738
      ],
      "min": [
        0.027927041053771973,
        0.11792159080505371
      ]
    },
    {
      "bufferView": 4,
      "componentType": 5123,
      "count": 4890,
      "type": "SCALAR",
      "max": [
        2356.0
      ],
      "min": [
        0.0
      ]
    }
  ],
  "asset": {
    "version": "2.0"
  },
  "buffers": [
    {
      "uri": "dinosaur_001.bin",
      "byteLength": 122916
    }
  ],
  "bufferViews": [
    {
      "buffer": 0,
      "byteLength": 28284
    },
    {
      "buffer": 0,
      "byteOffset": 28284,
      "byteLength": 28284
    },
    {
      "buffer": 0,
      "byteOffset": 56568,
      "byteLength": 37712
    },
    {
      "buffer": 0,
      "byteOffset": 94280,
      "byteLength": 18856
    },
    {
      "buffer": 0,
      "byteOffset": 113136,
      "byteLength": 9780
    }
  ],
  "images": [
    {
      "uri": "1124351310TextureMain.png",
      "name": "Texture"
    }
  ],
  "materials": [
    {
      "pbrMetallicRoughness": {
        "baseColorTexture": {
          "index": 0
        },
        "metallicFactor": 0.0,
        "roughnessFactor": 0.5
      },
      "name": "Main_Materials"
    }
  ],
  "meshes": [
    {
      "primitives": [
        {
          "attributes": {
            "POSITION": 0,
            "NORMAL": 1,
            "TANGENT": 2,
            "TEXCOORD_0": 3
          },
          "indices": 4,
          "material": 0
        }
      ],
      "name": "dinosaur_001"
    }
  ],
  "nodes": [
    {
      "mesh": 0,
      "name": "dinosaur_001"
    }
  ],
  "samplers": [
    {}
  ],
  "scene": 0,
  "scenes": [
    {
      "nodes": [
        0
      ],
      "name": "dinosaur_001"
    }
  ],
  "textures": [
    {
      "sampler": 0,
      "source": 0,
      "name": "1124351310TextureMain"
    }
  ]
}