{
  "extensionsUsed": [
    "KHR_lights_punctual"
  ],
  "accessors": [
    {
      "bufferView": 0,
      "componentType": 5126,
      "count": 1131,
      "type": "VEC3",
      "max": [
        1.4359911680221558,
        1.0348337888717651,
        1.4360713958740234
      ],
      "min": [
        -1.4361786842346191,
        -0.28570091724395752,
        -1.4360672235488892
      ]
    },
    {
      "bufferView": 1,
      "componentType": 5126,
      "count": 1131,
      "type": "VEC3",
      "max": [
        1.0,
        1.0,
        1.0
      ],
      "min": [
        -1.0,
        -1.0,
        -1.0
      ]
    },
    {
      "bufferView": 2,
      "componentType": 5126,
      "count": 1131,
      "type": "VEC4",
      "max": [
        1.0,
        1.0,
        0.99999344348907471,
        1.0
      ],
      "min": [
        -1.0,
        -1.0,
        -1.0,
        1.0
      ]
    },
    {
      "bufferView": 3,
      "componentType": 5126,
      "count": 1131,
      "type": "VEC2",
      "max": [
        0.876189112663269,
        0.74530941247940063
      ],
      "min": [
        0.029775738716125488,
        0.022290349006652832
      ]
    },
    {
      "bufferView": 4,
      "componentType": 5123,
      "count": 3525,
      "type": "SCALAR",
      "max": [
        1083.0
      ],
      "min": [
        0.0
      ]
    },
    {
      "bufferView": 5,
      "componentType": 5123,
      "count": 84,
      "type": "SCALAR",
      "max": [
        1130.0
      ],
      "min": [
        1084.0
      ]
    }
  ],
  "asset": {
    "version": "2.0"
  },
  "buffers": [
    {
      "uri": "attraction_5_006.bin",
      "byteLength": 61506
    }
  ],
  "bufferViews": [
    {
      "buffer": 0,
      "byteLength": 13572
    },
    {
      "buffer": 0,
      "byteOffset": 13572,
      "byteLength": 13572
    },
    {
      "buffer": 0,
      "byteOffset": 27144,
      "byteLength": 18096
    },
    {
      "buffer": 0,
      "byteOffset": 45240,
      "byteLength": 9048
    },
    {
      "buffer": 0,
      "byteOffset": 54288,
      "byteLength": 7050
    },
    {
      "buffer": 0,
      "byteOffset": 61338,
      "byteLength": 168
    }
  ],
  "images": [
    {
      "uri": "1124351310TextureMain.png",
      "name": "Texture"
    }
  ],
  "materials": [
    {
      "pbrMetallicRoughness": {
        "baseColorTexture": {
          "index": 0
        },
        "metallicFactor": 0.0,
        "roughnessFactor": 0.5
      },
      "name": "Main_Materials"
    },
    {
      "pbrMetallicRoughness": {
        "metallicFactor": 0.0,
        "roughnessFactor": 0.5
      },
      "name": "emission"
    }
  ],
  "meshes": [
    {
      "primitives": [
        {
          "attributes": {
            "POSITION": 0,
            "NORMAL": 1,
            "TANGENT": 2,
            "TEXCOORD_0": 3
          },
          "indices": 4,
          "material": 0
        },
        {
          "attributes": {
            "POSITION": 0,
            "NORMAL": 1,
            "TANGENT": 2,
            "TEXCOORD_0": 3
          },
          "indices": 5,
          "material": 1
        }
      ],
      "name": "attraction_5_006"
    }
  ],
  "nodes": [
    {
      "mesh": 0,
      "name": "attraction_5_006"
    }
  ],
  "samplers": [
    {}
  ],
  "scene": 0,
  "scenes": [
    {
      "nodes": [
        0
      ],
      "name": "attraction_5_006"
    }
  ],
  "textures": [
    {
      "sampler": 0,
      "source": 0,
      "name": "1124351310TextureMain"
    }
  ]
}