{
  "extensionsUsed": [
    "KHR_lights_punctual"
  ],
  "accessors": [
    {
      "bufferView": 0,
      "componentType": 5126,
      "count": 1186,
      "type": "VEC3",
      "max": [
        3.4490282535552979,
        6.8516435623168945,
        -0.1030457466840744
      ],
      "min": [
        -3.4490425586700439,
        4.8429063781441073E-07,
        -3.2725136280059814
      ]
    },
    {
      "bufferView": 1,
      "componentType": 5126,
      "count": 1186,
      "type": "VEC3",
      "max": [
        1.0,
        1.0,
        1.0
      ],
      "min": [
        -1.0,
        -1.0,
        -1.0
      ]
    },
    {
      "bufferView": 2,
      "componentType": 5126,
      "count": 1186,
      "type": "VEC4",
      "max": [
        1.0,
        1.0,
        1.0,
        1.0
      ],
      "min": [
        -1.0,
        -0.53941947221755981,
        -1.0,
        -1.0
      ]
    },
    {
      "bufferView": 3,
      "componentType": 5126,
      "count": 1186,
      "type": "VEC2",
      "max": [
        0.88004904985427856,
        0.43213367462158203
      ],
      "min": [
        0.019690036773681641,
        0.071921646595001221
      ]
    },
    {
      "bufferView": 4,
      "componentType": 5123,
      "count": 1596,
      "type": "SCALAR",
      "max": [
        657.0
      ],
      "min": [
        0.0
      ]
    },
    {
      "bufferView": 5,
      "componentType": 5123,
      "count": 840,
      "type": "SCALAR",
      "max": [
        1185.0
      ],
      "min": [
        658.0
      ]
    }
  ],
  "asset": {
    "version": "2.0"
  },
  "buffers": [
    {
      "uri": "attraction_8_001.bin",
      "byteLength": 61800
    }
  ],
  "bufferViews": [
    {
      "buffer": 0,
      "byteLength": 14232
    },
    {
      "buffer": 0,
      "byteOffset": 14232,
      "byteLength": 14232
    },
    {
      "buffer": 0,
      "byteOffset": 28464,
      "byteLength": 18976
    },
    {
      "buffer": 0,
      "byteOffset": 47440,
      "byteLength": 9488
    },
    {
      "buffer": 0,
      "byteOffset": 56928,
      "byteLength": 3192
    },
    {
      "buffer": 0,
      "byteOffset": 60120,
      "byteLength": 1680
    }
  ],
  "images": [
    {
      "uri": "1124351310TextureMain.png",
      "name": "Texture"
    }
  ],
  "materials": [
    {
      "pbrMetallicRoughness": {
        "baseColorTexture": {
          "index": 0
        },
        "metallicFactor": 0.0,
        "roughnessFactor": 0.5
      },
      "name": "Main_Materials"
    },
    {
      "pbrMetallicRoughness": {
        "metallicFactor": 0.0,
        "roughnessFactor": 0.5
      },
      "name": "emission"
    }
  ],
  "meshes": [
    {
      "primitives": [
        {
          "attributes": {
            "POSITION": 0,
            "NORMAL": 1,
            "TANGENT": 2,
            "TEXCOORD_0": 3
          },
          "indices": 4,
          "material": 0
        },
        {
          "attributes": {
            "POSITION": 0,
            "NORMAL": 1,
            "TANGENT": 2,
            "TEXCOORD_0": 3
          },
          "indices": 5,
          "material": 1
        }
      ],
      "name": "attraction_8_001"
    }
  ],
  "nodes": [
    {
      "mesh": 0,
      "name": "attraction_8_001"
    }
  ],
  "samplers": [
    {}
  ],
  "scene": 0,
  "scenes": [
    {
      "nodes": [
        0
      ],
      "name": "attraction_8_001"
    }
  ],
  "textures": [
    {
      "sampler": 0,
      "source": 0,
      "name": "1124351310TextureMain"
    }
  ]
}