{
  "extensionsUsed": [
    "KHR_lights_punctual"
  ],
  "accessors": [
    {
      "bufferView": 0,
      "componentType": 5126,
      "count": 20737,
      "type": "VEC3",
      "max": [
        10.218379020690918,
        31.713190078735352,
        25.998205184936523
      ],
      "min": [
        -10.605779647827148,
        -2.6283373832702637,
        -20.516105651855469
      ]
    },
    {
      "bufferView": 1,
      "componentType": 5126,
      "count": 20737,
      "type": "VEC3",
      "max": [
        1.0,
        1.0,
        1.0
      ],
      "min": [
        -1.0,
        -1.0,
        -1.0
      ]
    },
    {
      "bufferView": 2,
      "componentType": 5126,
      "count": 20737,
      "type": "VEC4",
      "max": [
        1.0,
        1.0,
        1.0,
        1.0
      ],
      "min": [
        -1.0,
        -1.0,
        -1.0,
        -1.0
      ]
    },
    {
      "bufferView": 3,
      "componentType": 5126,
      "count": 20737,
      "type": "VEC2",
      "max": [
        0.88379460573196411,
        0.86382102966308594
      ],
      "min": [
        0.026670575141906738,
        0.07959449291229248
      ]
    },
    {
      "bufferView": 4,
      "componentType": 5123,
      "count": 66567,
      "type": "SCALAR",
      "max": [
        20692.0
      ],
      "min": [
        0.0
      ]
    },
    {
      "bufferView": 5,
      "componentType": 5123,
      "count": 108,
      "type": "SCALAR",
      "max": [
        20736.0
      ],
      "min": [
        20693.0
      ]
    }
  ],
  "asset": {
    "version": "2.0"
  },
  "buffers": [
    {
      "uri": "pirate_ship_001.bin",
      "byteLength": 1128726
    }
  ],
  "bufferViews": [
    {
      "buffer": 0,
      "byteLength": 248844
    },
    {
      "buffer": 0,
      "byteOffset": 248844,
      "byteLength": 248844
    },
    {
      "buffer": 0,
      "byteOffset": 497688,
      "byteLength": 331792
    },
    {
      "buffer": 0,
      "byteOffset": 829480,
      "byteLength": 165896
    },
    {
      "buffer": 0,
      "byteOffset": 995376,
      "byteLength": 133134
    },
    {
      "buffer": 0,
      "byteOffset": 1128510,
      "byteLength": 216
    }
  ],
  "images": [
    {
      "uri": "1124351310TextureMain.png",
      "name": "Texture"
    }
  ],
  "materials": [
    {
      "pbrMetallicRoughness": {
        "baseColorTexture": {
          "index": 0
        },
        "metallicFactor": 0.0,
        "roughnessFactor": 0.5
      },
      "name": "Main_Materials"
    },
    {
      "pbrMetallicRoughness": {
        "metallicFactor": 0.0,
        "roughnessFactor": 0.5
      },
      "name": "emission"
    }
  ],
  "meshes": [
    {
      "primitives": [
        {
          "attributes": {
            "POSITION": 0,
            "NORMAL": 1,
            "TANGENT": 2,
            "TEXCOORD_0": 3
          },
          "indices": 4,
          "material": 0
        },
        {
          "attributes": {
            "POSITION": 0,
            "NORMAL": 1,
            "TANGENT": 2,
            "TEXCOORD_0": 3
          },
          "indices": 5,
          "material": 1
        }
      ],
      "name": "pirate_ship_001"
    }
  ],
  "nodes": [
    {
      "mesh": 0,
      "name": "pirate_ship_001"
    }
  ],
  "samplers": [
    {}
  ],
  "scene": 0,
  "scenes": [
    {
      "nodes": [
        0
      ],
      "name": "pirate_ship_001"
    }
  ],
  "textures": [
    {
      "sampler": 0,
      "source": 0,
      "name": "1124351310TextureMain"
    }
  ]
}