{
  "extensionsUsed": [
    "KHR_lights_punctual"
  ],
  "accessors": [
    {
      "bufferView": 0,
      "componentType": 5126,
      "count": 2892,
      "type": "VEC3",
      "max": [
        7.163245677947998,
        7.03733491897583,
        10.420494079589844
      ],
      "min": [
        -6.5348224639892578,
        -0.0056242644786834717,
        -7.3285021781921387
      ]
    },
    {
      "bufferView": 1,
      "componentType": 5126,
      "count": 2892,
      "type": "VEC3",
      "max": [
        1.0,
        1.0,
        1.0
      ],
      "min": [
        -1.0,
        -0.999993085861206,
        -1.0
      ]
    },
    {
      "bufferView": 2,
      "componentType": 5126,
      "count": 2892,
      "type": "VEC4",
      "max": [
        1.0,
        1.0,
        1.0,
        1.0
      ],
      "min": [
        -1.0,
        -1.0,
        -1.0,
        -1.0
      ]
    },
    {
      "bufferView": 3,
      "componentType": 5126,
      "count": 2892,
      "type": "VEC2",
      "max": [
        0.88213294744491577,
        0.60823386907577515
      ],
      "min": [
        0.27060121297836304,
        0.021414756774902344
      ]
    },
    {
      "bufferView": 4,
      "componentType": 5126,
      "count": 2892,
      "type": "VEC2",
      "max": [
        0.0,
        1.0
      ],
      "min": [
        0.0,
        1.0
      ]
    },
    {
      "bufferView": 5,
      "componentType": 5121,
      "count": 90,
      "type": "SCALAR",
      "max": [
        39.0
      ],
      "min": [
        0.0
      ]
    },
    {
      "bufferView": 6,
      "componentType": 5123,
      "count": 6639,
      "type": "SCALAR",
      "max": [
        2891.0
      ],
      "min": [
        40.0
      ]
    }
  ],
  "asset": {
    "version": "2.0"
  },
  "buffers": [
    {
      "uri": "castle_002.bin",
      "byteLength": 175320
    }
  ],
  "bufferViews": [
    {
      "buffer": 0,
      "byteLength": 34704
    },
    {
      "buffer": 0,
      "byteOffset": 34704,
      "byteLength": 34704
    },
    {
      "buffer": 0,
      "byteOffset": 69408,
      "byteLength": 46272
    },
    {
      "buffer": 0,
      "byteOffset": 115680,
      "byteLength": 23136
    },
    {
      "buffer": 0,
      "byteOffset": 138816,
      "byteLength": 23136
    },
    {
      "buffer": 0,
      "byteOffset": 161952,
      "byteLength": 90
    },
    {
      "buffer": 0,
      "byteOffset": 162042,
      "byteLength": 13278
    }
  ],
  "images": [
    {
      "uri": "1124351310TextureMain.png",
      "name": "Texture"
    }
  ],
  "materials": [
    {
      "pbrMetallicRoughness": {
        "metallicFactor": 0.0,
        "roughnessFactor": 0.5
      },
      "name": "emission"
    },
    {
      "pbrMetallicRoughness": {
        "baseColorTexture": {
          "index": 0
        },
        "metallicFactor": 0.0,
        "roughnessFactor": 0.5
      },
      "name": "Main_Materials"
    }
  ],
  "meshes": [
    {
      "primitives": [
        {
          "attributes": {
            "POSITION": 0,
            "NORMAL": 1,
            "TANGENT": 2,
            "TEXCOORD_0": 3,
            "TEXCOORD_1": 4
          },
          "indices": 5,
          "material": 0
        },
        {
          "attributes": {
            "POSITION": 0,
            "NORMAL": 1,
            "TANGENT": 2,
            "TEXCOORD_0": 3,
            "TEXCOORD_1": 4
          },
          "indices": 6,
          "material": 1
        }
      ],
      "name": "castle_002"
    }
  ],
  "nodes": [
    {
      "mesh": 0,
      "name": "castle_002"
    }
  ],
  "samplers": [
    {}
  ],
  "scene": 0,
  "scenes": [
    {
      "nodes": [
        0
      ],
      "name": "castle_002"
    }
  ],
  "textures": [
    {
      "sampler": 0,
      "source": 0,
      "name": "1124351310TextureMain"
    }
  ]
}