{
  "extensionsUsed": [
    "KHR_lights_punctual"
  ],
  "accessors": [
    {
      "bufferView": 0,
      "componentType": 5126,
      "count": 2395,
      "type": "VEC3",
      "max": [
        2.5056641101837158,
        34.957054138183594,
        2.5797340869903564
      ],
      "min": [
        -2.4176452159881592,
        -9.1390944589875289E-07,
        -2.6208205223083496
      ]
    },
    {
      "bufferView": 1,
      "componentType": 5126,
      "count": 2395,
      "type": "VEC3",
      "max": [
        1.0,
        1.0,
        1.0
      ],
      "min": [
        -1.0,
        -1.0,
        -1.0
      ]
    },
    {
      "bufferView": 2,
      "componentType": 5126,
      "count": 2395,
      "type": "VEC4",
      "max": [
        1.0,
        1.0,
        1.0,
        1.0
      ],
      "min": [
        -1.0,
        -1.0,
        -1.0,
        -1.0
      ]
    },
    {
      "bufferView": 3,
      "componentType": 5126,
      "count": 2395,
      "type": "VEC2",
      "max": [
        0.890669584274292,
        0.386432409286499
      ],
      "min": [
        0.62192243337631226,
        0.063905537128448486
      ]
    },
    {
      "bufferView": 4,
      "componentType": 5126,
      "count": 2395,
      "type": "VEC2",
      "max": [
        0.0,
        1.0
      ],
      "min": [
        0.0,
        1.0
      ]
    },
    {
      "bufferView": 5,
      "componentType": 5123,
      "count": 5811,
      "type": "SCALAR",
      "max": [
        2341.0
      ],
      "min": [
        0.0
      ]
    },
    {
      "bufferView": 6,
      "componentType": 5123,
      "count": 117,
      "type": "SCALAR",
      "max": [
        2394.0
      ],
      "min": [
        2342.0
      ]
    }
  ],
  "asset": {
    "version": "2.0"
  },
  "buffers": [
    {
      "uri": "castle_tower_012.bin",
      "byteLength": 145976
    }
  ],
  "bufferViews": [
    {
      "buffer": 0,
      "byteLength": 28740
    },
    {
      "buffer": 0,
      "byteOffset": 28740,
      "byteLength": 28740
    },
    {
      "buffer": 0,
      "byteOffset": 57480,
      "byteLength": 38320
    },
    {
      "buffer": 0,
      "byteOffset": 95800,
      "byteLength": 19160
    },
    {
      "buffer": 0,
      "byteOffset": 114960,
      "byteLength": 19160
    },
    {
      "buffer": 0,
      "byteOffset": 134120,
      "byteLength": 11622
    },
    {
      "buffer": 0,
      "byteOffset": 145742,
      "byteLength": 234
    }
  ],
  "images": [
    {
      "uri": "1124351310TextureMain.png",
      "name": "Texture"
    }
  ],
  "materials": [
    {
      "pbrMetallicRoughness": {
        "baseColorTexture": {
          "index": 0
        },
        "metallicFactor": 0.0,
        "roughnessFactor": 0.5
      },
      "name": "Main_Materials"
    },
    {
      "pbrMetallicRoughness": {
        "metallicFactor": 0.0,
        "roughnessFactor": 0.5
      },
      "name": "emission"
    }
  ],
  "meshes": [
    {
      "primitives": [
        {
          "attributes": {
            "POSITION": 0,
            "NORMAL": 1,
            "TANGENT": 2,
            "TEXCOORD_0": 3,
            "TEXCOORD_1": 4
          },
          "indices": 5,
          "material": 0
        },
        {
          "attributes": {
            "POSITION": 0,
            "NORMAL": 1,
            "TANGENT": 2,
            "TEXCOORD_0": 3,
            "TEXCOORD_1": 4
          },
          "indices": 6,
          "material": 1
        }
      ],
      "name": "castle_tower_012"
    }
  ],
  "nodes": [
    {
      "mesh": 0,
      "name": "castle_tower_012"
    }
  ],
  "samplers": [
    {}
  ],
  "scene": 0,
  "scenes": [
    {
      "nodes": [
        0
      ],
      "name": "castle_tower_012"
    }
  ],
  "textures": [
    {
      "sampler": 0,
      "source": 0,
      "name": "1124351310TextureMain"
    }
  ]
}