{
  "extensionsUsed": [
    "KHR_lights_punctual"
  ],
  "accessors": [
    {
      "bufferView": 0,
      "componentType": 5126,
      "count": 1890,
      "type": "VEC3",
      "max": [
        6.3660373687744141,
        6.1718449592590332,
        2.4811840057373047
      ],
      "min": [
        -6.3660397529602051,
        -3.4203944778710138E-06,
        -2.4811854362487793
      ]
    },
    {
      "bufferView": 1,
      "componentType": 5126,
      "count": 1890,
      "type": "VEC3",
      "max": [
        1.0,
        1.0,
        1.0
      ],
      "min": [
        -1.0,
        -1.0,
        -1.0
      ]
    },
    {
      "bufferView": 2,
      "componentType": 5126,
      "count": 1890,
      "type": "VEC4",
      "max": [
        1.0,
        1.0,
        1.0,
        1.0
      ],
      "min": [
        -1.0,
        -1.0,
        -1.0,
        -1.0
      ]
    },
    {
      "bufferView": 3,
      "componentType": 5126,
      "count": 1890,
      "type": "VEC2",
      "max": [
        0.88589483499526978,
        0.36940932273864746
      ],
      "min": [
        0.020243406295776367,
        0.12593448162078857
      ]
    },
    {
      "bufferView": 4,
      "componentType": 5123,
      "count": 4254,
      "type": "SCALAR",
      "max": [
        1889.0
      ],
      "min": [
        0.0
      ]
    }
  ],
  "asset": {
    "version": "2.0"
  },
  "buffers": [
    {
      "uri": "attraction_entrance_002.bin",
      "byteLength": 99228
    }
  ],
  "bufferViews": [
    {
      "buffer": 0,
      "byteLength": 22680
    },
    {
      "buffer": 0,
      "byteOffset": 22680,
      "byteLength": 22680
    },
    {
      "buffer": 0,
      "byteOffset": 45360,
      "byteLength": 30240
    },
    {
      "buffer": 0,
      "byteOffset": 75600,
      "byteLength": 15120
    },
    {
      "buffer": 0,
      "byteOffset": 90720,
      "byteLength": 8508
    }
  ],
  "images": [
    {
      "uri": "1124351310TextureMain.png",
      "name": "Texture"
    }
  ],
  "materials": [
    {
      "pbrMetallicRoughness": {
        "baseColorTexture": {
          "index": 0
        },
        "metallicFactor": 0.0,
        "roughnessFactor": 0.5
      },
      "name": "Main_Materials"
    }
  ],
  "meshes": [
    {
      "primitives": [
        {
          "attributes": {
            "POSITION": 0,
            "NORMAL": 1,
            "TANGENT": 2,
            "TEXCOORD_0": 3
          },
          "indices": 4,
          "material": 0
        }
      ],
      "name": "attraction_entrance_002"
    }
  ],
  "nodes": [
    {
      "mesh": 0,
      "name": "attraction_entrance_002"
    }
  ],
  "samplers": [
    {}
  ],
  "scene": 0,
  "scenes": [
    {
      "nodes": [
        0
      ],
      "name": "attraction_entrance_002"
    }
  ],
  "textures": [
    {
      "sampler": 0,
      "source": 0,
      "name": "1124351310TextureMain"
    }
  ]
}